{
.appVersion = "3109";
classes = (
{
code = "u10BA9 u10BA9.fina u10BAA u10BAA.fina u10BAB u10BAB.fina u10BAC u10BAC.fina";
name = class1;
},
{
code = "u10B81 u10B82.init u10B82.medi u10B83 u10B84 u10B85 u10B86.init u10B86.medi u10B87.init u10B87.medi u10B88.init u10B88.medi u10B89 u10B8A.init u10B8A.medi u10B8B.init u10B8B.medi u10B8C u10B8D.init u10B8D.medi u10B8E u10B8F u10B90.init u10B90.medi u10B91 u10BA9 u10BA9.alt u10BAA u10BAA.alt u10BAB u10BAB.alt u10BAC u10BAC.alt u10BAD.init u10BAD.medi u10BAE.init u10BAE.medi";
name = class2;
},
{
code = "u10B81.fina u10B82.fina u10B83.fina u10B84.fina u10B85.fina u10B86.fina u10B87.fina u10B88.fina u10B89.fina u10B8A.fina u10B8B.fina u10B8C.fina u10B8D.fina u10B8E.fina u10B8F.fina u10B90.fina u10B91.fina u10BA9.alt.fina u10BA9.fina u10BAA.alt.fina u10BAA.fina u10BAB.alt.fina u10BAB.fina u10BAC.alt.fina u10BAC.fina u10BAD.fina u10BAE.fina u10BAF";
name = class4;
}
);
copyright = "Copyright 2018-2021 Google Inc. All Rights Reserved.";
customParameters = (
{
name = glyphOrder;
value = (
.notdef,
NULL,
CR,
space,
u10B80,
u10B81,
u10B82,
u10B83,
u10B84,
u10B85,
u10B86,
u10B87,
u10B88,
u10B89,
u10B8C,
u10B8A,
u10B8B,
u10B8D,
u10B90,
u10B91,
u10B8E,
u10B8F,
u10B99,
u10B9A,
u10B9C,
u10B9B,
u10B80.fina,
u10B80.medi,
u10B80.init,
u10B81.fina,
u10B82.fina,
u10B82.medi,
u10B82.init,
u10B83.fina,
u10B84.fina,
u10B85.fina,
u10B86.fina,
u10B86.medi,
u10B86.init,
u10B87.medi,
u10B87.fina,
u10B87.init,
u10B88.fina,
u10B88.medi,
u10B88.init,
uni0640,
u10B89.fina,
u10B8A.fina,
u10B8A.medi,
u10B8A.init,
u10B8B.fina,
u10B8B.medi,
u10B8B.init,
u10B8C.fina,
u10B8D.fina,
u10B8D.medi,
u10B8D.init,
u10B8E.fina,
u10B8F.fina,
u10B90.fina,
u10B90.medi,
u10B90.init,
u10B91.fina,
u10BA9.fina,
u10BA9,
u10BAA,
u10BAB,
u10BAC,
u10BAD,
u10BAE,
u10BAF,
u10BA9.alt,
u10BA9.alt.fina,
u10BAA.fina,
u10BAA.alt,
u10BAA.alt.fina,
u10BAB.fina,
u10BAB.alt,
u10BAB.alt.fina,
u10BAC.fina,
u10BAC.alt,
u10BAC.alt.fina,
u10BAD.fina,
u10BAD.medi,
u10BAD.init,

glyphs = (
{
glyphname = .notdef;
lastChange = "2018-04-03 13:12:53 +0000";
layers = (
{
layerId = UUID0;
paths = (
{
closed = 1;
nodes = (
"505 0 LINE",
"505 714 LINE",
"94 714 LINE",
"94 0 LINE"
);
},
{
closed = 1;
nodes = (
"145 663 LINE",
"454 663 LINE",
"454 51 LINE",
"145 51 LINE"
);
}
);
width = 600;
}
);
category = Separator;
},
{
glyphname = u10B80;
lastChange = "2018-04-03 13:12:53 +0000";
layers = (
{
layerId = UUID0;
paths = (
{
closed = 1;
nodes = (
"425 -19 OFFCURVE",
"462 16 OFFCURVE",
"482 39 CURVE",
"495 9 OFFCURVE",
"515 -4 OFFCURVE",
"534 -4 CURVE SMOOTH",
"572 -4 OFFCURVE",
"584 16 OFFCURVE",
"584 52 CURVE SMOOTH",
"584 62 OFFCURVE",
"581 70 OFFCURVE",
"576 80 CURVE SMOOTH",
"568 97 OFFCURVE",
"559 120 OFFCURVE",
"556 166 CURVE SMOOTH",
"555 181 OFFCURVE",
"555 195 OFFCURVE",
"554 208 CURVE SMOOTH",
"550 264 OFFCURVE",
"550 310 OFFCURVE",
"550 372 CURVE SMOOTH",
"550 404 OFFCURVE",
"535 415 OFFCURVE",
"504 415 CURVE SMOOTH",
"476 415 OFFCURVE",
"462 403 OFFCURVE",
"462 368 CURVE SMOOTH",
"462 330 OFFCURVE",
"464 299 OFFCURVE",
"466 270 CURVE SMOOTH",
"468 241 OFFCURVE",
"470 212 OFFCURVE",
"470 179 CURVE SMOOTH",
"470 124 OFFCURVE",
"451 65 OFFCURVE",
"349 65 CURVE SMOOTH",
"254 65 OFFCURVE",
"244 123 OFFCURVE",
"241 176 CURVE SMOOTH",
"239 219 OFFCURVE",
"238 242 OFFCURVE",
"238 270 CURVE SMOOTH",
"238 291 OFFCURVE",
"237 313 OFFCURVE",
"236 346 CURVE SMOOTH",
"236 361 OFFCURVE",
"215 378 OFFCURVE",
"193 378 CURVE SMOOTH",
"171 378 OFFCURVE",
"149 369 OFFCURVE",
"149 346 CURVE SMOOTH",
"149 308 OFFCURVE",
"150 284 OFFCURVE",
"152 260 CURVE SMOOTH",
"154 237 OFFCURVE",
"155 213 OFFCURVE",
"155 177 CURVE SMOOTH",
"155 107 OFFCURVE",
"112 84 OFFCURVE",
"48 84 CURVE SMOOTH",
"32 84 OFFCURVE",
"24 63 OFFCURVE",
"24 42 CURVE SMOOTH",
"24 21 OFFCURVE",
"33 0 OFFCURVE",
"48 0 CURVE SMOOTH",
"125 0 OFFCURVE",
"170 24 OFFCURVE",
"208 70 CURVE",
"180 71 LINE",
"206 24 OFFCURVE",
"251 -19 OFFCURVE",
"340 -19 CURVE SMOOTH"
);
}
);
width = 643;
}
);
unicode = 10B80;
category = Letter;
},
{
glyphname = u10B81;
lastChange = "2018-04-03 13:12:53 +0000";
layers = (
{
layerId = UUID0;
paths = (
{
closed = 1;
nodes = (
"576 -171 OFFCURVE",
"775 -30 OFFCURVE",
"775 299 CURVE SMOOTH",
"775 371 OFFCURVE",
"763 535 OFFCURVE",
"761 552 CURVE SMOOTH",
"759 568 OFFCURVE",
"744 576 OFFCURVE",
"721 576 CURVE SMOOTH",
"687 576 OFFCURVE",
"671 566 OFFCURVE",
"671 527 CURVE SMOOTH",
"671 488 OFFCURVE",
"676 446 OFFCURVE",
"680 405 CURVE SMOOTH",
"684 368 OFFCURVE",
"688 332 OFFCURVE",
"688 302 CURVE SMOOTH",
"688 34 OFFCURVE",
"532 -87 OFFCURVE",
"216 -87 CURVE SMOOTH",
"43 -87 OFFCURVE",
"-51 -72 OFFCURVE",
"-106 -63 CURVE SMOOTH",
"-129 -59 OFFCURVE",
"-146 -57 OFFCURVE",
"-158 -57 CURVE SMOOTH",
"-188 -57 OFFCURVE",
"-195 -78 OFFCURVE",
"-195 -98 CURVE SMOOTH",
"-195 -120 OFFCURVE",
"-188 -140 OFFCURVE",
"-159 -143 CURVE SMOOTH",
"-151 -144 OFFCURVE",
"-141 -146 OFFCURVE",
"-128 -148 CURVE SMOOTH",
"-78 -157 OFFCURVE",
"18 -171 OFFCURVE",
"214 -171 CURVE SMOOTH"
);
}
);
width = 849;
}
);
unicode = 10B81;
category = Letter;
},
{
glyphname = u10B82;
lastChange = "2018-04-03 13:12:53 +0000";
layers = (
{
layerId = UUID0;
paths = (
{
closed = 1;
nodes = (
"277 -12 OFFCURVE",
"375 17 OFFCURVE",
"375 137 CURVE SMOOTH",
"375 142 OFFCURVE",
"375 146 OFFCURVE",
"375 150 CURVE SMOOTH",
"369 205 OFFCURVE",
"362 266 OFFCURVE",
"355 317 CURVE SMOOTH",
"347 375 OFFCURVE",
"342 423 OFFCURVE",
"341 436 CURVE SMOOTH",
"340 452 OFFCURVE",
"319 459 OFFCURVE",
"298 459 CURVE SMOOTH",
"275 459 OFFCURVE",
"253 451 OFFCURVE",
"253 436 CURVE SMOOTH",
"253 428 OFFCURVE",
"257 396 OFFCURVE",
"263 354 CURVE SMOOTH",
"272 292 OFFCURVE",
"284 209 OFFCURVE",
"287 157 CURVE",
"287 81 OFFCURVE",
"237 72 OFFCURVE",
"177 72 CURVE SMOOTH",
"143 72 OFFCURVE",
"127 74 OFFCURVE",
"104 79 CURVE SMOOTH",
"89 82 OFFCURVE",
"77 84 OFFCURVE",
"63 84 CURVE SMOOTH",
"46 84 OFFCURVE",
"39 63 OFFCURVE",
"39 42 CURVE SMOOTH",
"39 21 OFFCURVE",
"48 5 OFFCURVE",
"63 0 CURVE SMOOTH",
"78 -5 OFFCURVE",
"129 -12 OFFCURVE",
"167 -12 CURVE SMOOTH"
);
}
);
width = 449;
}
);
unicode = 10B82;
category = Letter;
},
{
glyphname = u10B83;
lastChange = "2018-04-03 13:12:53 +0000";
layers = (
{
layerId = UUID0;
paths = (
{
closed = 1;
nodes = (
"464 -171 OFFCURVE",
"633 20 OFFCURVE",
"633 203 CURVE SMOOTH",
"633 233 LINE SMOOTH",
"633 374 OFFCURVE",
"568 449 OFFCURVE",
"479 449 CURVE SMOOTH",
"391 449 OFFCURVE",
"341 389 OFFCURVE",
"341 313 CURVE SMOOTH",
"341 229 OFFCURVE",
"411 170 OFFCURVE",
"545 170 CURVE",
"534 35 OFFCURVE",
"406 -87 OFFCURVE",
"167 -87 CURVE SMOOTH",
"73 -87 OFFCURVE",
"23 -78 OFFCURVE",
"-13 -68 CURVE SMOOTH",
"-37 -61 OFFCURVE",
"-60 -56 OFFCURVE",
"-72 -56 CURVE SMOOTH",
"-90 -56 OFFCURVE",
"-98 -75 OFFCURVE",
"-98 -96 CURVE SMOOTH",
"-98 -117 OFFCURVE",
"-89 -132 OFFCURVE",
"-74 -136 CURVE SMOOTH",
"17 -161 OFFCURVE",
"68 -171 OFFCURVE",
"169 -171 CURVE SMOOTH"
);
},
{
closed = 1;
nodes = (
"447 248 OFFCURVE",
"425 281 OFFCURVE",
"425 316 CURVE SMOOTH",
"425 349 OFFCURVE",
"448 365 OFFCURVE",
"470 365 CURVE SMOOTH",
"523 365 OFFCURVE",
"545 312 OFFCURVE",
"545 248 CURVE"
);
}
);
width = 707;
}
);
unicode = 10B83;
category = Letter;
},
{
glyphname = u10B84;
lastChange = "2018-04-03 13:12:53 +0000";
layers = (
{
layerId = UUID0;
paths = (
{
closed = 1;
nodes = (
"535 -56 OFFCURVE",
"558 -47 OFFCURVE",
"558 -34 CURVE SMOOTH",
"558 -33 OFFCURVE",
"558 -33 OFFCURVE",
"558 -32 CURVE SMOOTH",
"511 479 LINE SMOOTH",
"510 494 OFFCURVE",
"488 503 OFFCURVE",
"465 503 CURVE SMOOTH",
"445 503 OFFCURVE",
"423 497 OFFCURVE",
"423 480 CURVE SMOOTH",
"423 479 LINE",
"443 264 LINE",
"456 286 LINE",
"416 334 OFFCURVE",
"356 363 OFFCURVE",
"277 363 CURVE SMOOTH",
"128 363 OFFCURVE",
"49 278 OFFCURVE",
"49 169 CURVE SMOOTH",
"49 73 OFFCURVE",
"111 -12 OFFCURVE",
"230 -12 CURVE SMOOTH",
"281 -12 OFFCURVE",
"325 2 OFFCURVE",
"340 11 CURVE SMOOTH",
"353 19 OFFCURVE",
"365 28 OFFCURVE",
"365 54 CURVE SMOOTH",
"365 76 OFFCURVE",
"355 91 OFFCURVE",
"339 91 CURVE SMOOTH",
"329 91 OFFCURVE",
"320 88 OFFCURVE",
"311 84 CURVE SMOOTH",
"295 77 OFFCURVE",
"276 70 OFFCURVE",
"230 70 CURVE SMOOTH",
"188 70 OFFCURVE",
"136 100 OFFCURVE",
"136 169 CURVE SMOOTH",
"136 237 OFFCURVE",
"185 279 OFFCURVE",
"271 279 CURVE SMOOTH",
"368 279 OFFCURVE",
"430 231 OFFCURVE",
"454 150 CURVE",
"470 -31 LINE SMOOTH",
"472 -49 OFFCURVE",
"492 -56 OFFCURVE",
"512 -56 CURVE SMOOTH"
);
}
);
width = 631;
}
);
unicode = 10B84;
category = Letter;
},
{
glyphname = u10B85;
lastChange = "2018-04-03 13:12:53 +0000";
layers = (
{
layerId = UUID0;
paths = (
{
closed = 1;
nodes = (
"259 0 LINE SMOOTH",
"274 0 OFFCURVE",
"282 21 OFFCURVE",
"282 42 CURVE SMOOTH",
"282 63 OFFCURVE",
"275 84 OFFCURVE",
"259 84 CURVE SMOOTH",
"233 84 LINE SMOOTH",
"184 84 OFFCURVE",
"171 94 OFFCURVE",
"166 154 CURVE SMOOTH",
"159 239 OFFCURVE",
"158 329 OFFCURVE",
"156 417 CURVE SMOOTH",
"156 432 OFFCURVE",
"134 439 OFFCURVE",
"111 439 CURVE SMOOTH",
"90 439 OFFCURVE",
"68 432 OFFCURVE",
"68 417 CURVE SMOOTH",
"68 324 OFFCURVE",
"73 224 OFFCURVE",
"78 131 CURVE SMOOTH",
"83 28 OFFCURVE",
"132 0 OFFCURVE",
"230 0 CURVE SMOOTH"
);
}
);
width = 321;
}
);
unicode = 10B85;
category = Letter;
},
{
glyphname = u10B86;
lastChange = "2018-04-03 13:12:53 +0000";
layers = (
{
layerId = UUID0;
paths = (
{
closed = 1;
nodes = (
"263 0 OFFCURVE",
"360 20 OFFCURVE",
"360 63 CURVE SMOOTH",
"360 92 OFFCURVE",
"331 109 OFFCURVE",
"292 125 CURVE SMOOTH",
"218 156 OFFCURVE",
"146 192 OFFCURVE",
"146 269 CURVE SMOOTH",
"146 336 OFFCURVE",
"193 365 OFFCURVE",
"241 365 CURVE SMOOTH",
"261 365 OFFCURVE",
"274 363 OFFCURVE",
"286 360 CURVE SMOOTH",
"296 358 OFFCURVE",
"307 356 OFFCURVE",
"321 356 CURVE SMOOTH",
"347 356 OFFCURVE",
"360 376 OFFCURVE",
"360 398 CURVE SMOOTH",
"360 435 OFFCURVE",
"304 449 OFFCURVE",
"250 449 CURVE SMOOTH",
"137 449 OFFCURVE",
"59 375 OFFCURVE",
"59 269 CURVE SMOOTH",
"59 126 OFFCURVE",
"210 89 OFFCURVE",
"230 87 CURVE",
"213 81 OFFCURVE",
"195 78 OFFCURVE",
"169 78 CURVE SMOOTH",
"143 78 OFFCURVE",
"120 83 OFFCURVE",
"105 90 CURVE SMOOTH",
"95 95 OFFCURVE",
"88 98 OFFCURVE",
"74 98 CURVE SMOOTH",
"55 98 OFFCURVE",
"49 81 OFFCURVE",
"49 64 CURVE SMOOTH",
"49 41 OFFCURVE",
"61 26 OFFCURVE",
"74 20 CURVE SMOOTH",
"93 11 OFFCURVE",
"132 0 OFFCURVE",
"183 0 CURVE SMOOTH"
);
}
);
width = 419;
}
);
unicode = 10B86;
category = Letter;
},
{
glyphname = u10B87;
lastChange = "2018-04-03 13:12:53 +0000";
layers = (
{
layerId = UUID0;
paths = (
{
closed = 1;
nodes = (
"619 -41 OFFCURVE",
"692 30 OFFCURVE",
"692 199 CURVE SMOOTH",
"692 367 OFFCURVE",
"661 410 OFFCURVE",
"616 410 CURVE SMOOTH",
"550 410 OFFCURVE",
"488 322 OFFCURVE",
"488 269 CURVE SMOOTH",
"488 252 OFFCURVE",
"498 226 OFFCURVE",
"521 226 CURVE SMOOTH",
"536 226 OFFCURVE",
"550 234 OFFCURVE",
"561 242 CURVE SMOOTH",
"570 249 OFFCURVE",
"580 254 OFFCURVE",
"589 254 CURVE SMOOTH",
"597 254 OFFCURVE",
"604 250 OFFCURVE",
"604 180 CURVE SMOOTH",
"604 80 OFFCURVE",
"565 43 OFFCURVE",
"496 43 CURVE SMOOTH",
"397 43 OFFCURVE",
"379 175 OFFCURVE",
"370 243 CURVE SMOOTH",
"361 310 OFFCURVE",
"352 366 OFFCURVE",
"341 400 CURVE SMOOTH",
"333 426 OFFCURVE",
"320 439 OFFCURVE",
"297 439 CURVE SMOOTH",
"256 439 OFFCURVE",
"232 391 OFFCURVE",
"155 200 CURVE SMOOTH",
"129 136 OFFCURVE",
"99 85 OFFCURVE",
"53 84 CURVE SMOOTH",
"37 84 OFFCURVE",
"24 63 OFFCURVE",
"24 42 CURVE SMOOTH",
"24 21 OFFCURVE",
"33 0 OFFCURVE",
"48 0 CURVE SMOOTH",
"172 0 OFFCURVE",
"204 84 OFFCURVE",
"237 170 CURVE SMOOTH",
"255 216 OFFCURVE",
"274 271 OFFCURVE",
"293 331 CURVE",
"280 331 LINE",
"283 270 OFFCURVE",
"290 225 OFFCURVE",
"298 175 CURVE SMOOTH",
"313 82 OFFCURVE",
"358 -41 OFFCURVE",
"496 -41 CURVE SMOOTH"
);
}
);
width = 751;
}
);
unicode = 10B87;
category = Letter;
},
{
glyphname = u10B88;
lastChange = "2018-04-03 13:12:53 +0000";
layers = (
{
layerId = UUID0;
paths = (
{
closed = 1;
nodes = (
"124 0 OFFCURVE",
"145 8 OFFCURVE",
"146 23 CURVE SMOOTH",
"160 197 LINE SMOOTH",
"169 305 OFFCURVE",
"204 352 OFFCURVE",
"281 352 CURVE SMOOTH",
"356 352 OFFCURVE",
"391 298 OFFCURVE",
"399 197 CURVE SMOOTH",
"413 23 LINE SMOOTH",
"414 8 OFFCURVE",
"435 0 OFFCURVE",
"458 0 CURVE SMOOTH",
"479 0 OFFCURVE",
"500 7 OFFCURVE",
"500 21 CURVE SMOOTH",
"500 22 OFFCURVE",
"500 22 OFFCURVE",
"500 23 CURVE SMOOTH",
"486 198 LINE SMOOTH",
"475 339 OFFCURVE",
"421 439 OFFCURVE",
"282 439 CURVE SMOOTH",
"156 439 OFFCURVE",
"84 346 OFFCURVE",
"72 194 CURVE SMOOTH",
"59 23 LINE SMOOTH",
"59 22 OFFCURVE",
"59 22 OFFCURVE",
"59 21 CURVE SMOOTH",
"59 7 OFFCURVE",
"81 0 OFFCURVE",
"102 0 CURVE SMOOTH"
);
}
);
width = 559;
}
);
unicode = 10B88;
category = Letter;
},
{
glyphname = u10B89;
lastChange = "2018-04-03 13:12:53 +0000";
layers = (
{
layerId = UUID0;
paths = (
{
closed = 1;
nodes = (
"517 -239 OFFCURVE",
"607 -233 OFFCURVE",
"713 -226 CURVE SMOOTH",
"799 -220 OFFCURVE",
"879 -215 OFFCURVE",
"972 -215 CURVE SMOOTH",
"987 -215 OFFCURVE",
"995 -194 OFFCURVE",
"995 -173 CURVE SMOOTH",
"995 -152 OFFCURVE",
"988 -137 OFFCURVE",
"972 -136 CURVE SMOOTH",
"946 -134 OFFCURVE",
"917 -133 OFFCURVE",
"886 -133 CURVE SMOOTH",
"812 -133 OFFCURVE",
"741 -138 OFFCURVE",
"667 -144 CURVE SMOOTH",
"588 -150 OFFCURVE",
"504 -155 OFFCURVE",
"407 -155 CURVE SMOOTH",
"292 -155 OFFCURVE",
"170 -152 OFFCURVE",
"170 -92 CURVE SMOOTH",
"170 -50 OFFCURVE",
"196 -20 OFFCURVE",
"226 14 CURVE SMOOTH",
"263 56 OFFCURVE",
"303 107 OFFCURVE",
"303 189 CURVE SMOOTH",
"303 273 OFFCURVE",
"285 376 OFFCURVE",
"222 376 CURVE SMOOTH",
"155 376 OFFCURVE",
"24 216 OFFCURVE",
"24 158 CURVE SMOOTH",
"24 117 OFFCURVE",
"52 93 OFFCURVE",
"93 93 CURVE SMOOTH",
"140 93 OFFCURVE",
"177 98 OFFCURVE",
"196 101 CURVE",
"196 91 OFFCURVE",
"183 77 OFFCURVE",
"165 59 CURVE SMOOTH",
"129 23 OFFCURVE",
"79 -29 OFFCURVE",
"79 -104 CURVE SMOOTH",
"79 -238 OFFCURVE",
"252 -239 OFFCURVE",
"384 -239 CURVE SMOOTH"
);
},
{
closed = 1;
nodes = (
"135 177 OFFCURVE",
"133 188 OFFCURVE",
"133 195 CURVE SMOOTH",
"133 218 OFFCURVE",
"178 265 OFFCURVE",
"191 265 CURVE SMOOTH",
"203 265 OFFCURVE",
"211 252 OFFCURVE",
"211 212 CURVE SMOOTH",
"211 205 OFFCURVE",
"211 202 OFFCURVE",
"210 183 CURVE",
"187 178 OFFCURVE",
"161 177 OFFCURVE",
"148 177 CURVE SMOOTH"
);
}
);
width = 800;
}
);
unicode = 10B89;
category = Letter;
},
{
glyphname = u10B8C;
lastChange = "2018-04-03 13:12:53 +0000";
layers = (
{
layerId = UUID0;
paths = (
{
closed = 1;
nodes = (
"485 -171 OFFCURVE",
"605 -145 OFFCURVE",
"630 -138 CURVE SMOOTH",
"645 -134 OFFCURVE",
"653 -120 OFFCURVE",
"653 -99 CURVE SMOOTH",
"653 -78 OFFCURVE",
"642 -62 OFFCURVE",
"617 -62 CURVE SMOOTH",
"602 -62 OFFCURVE",
"577 -64 OFFCURVE",
"544 -70 CURVE SMOOTH",
"495 -79 OFFCURVE",
"432 -87 OFFCURVE",
"377 -87 CURVE SMOOTH",
"249 -87 OFFCURVE",
"161 -62 OFFCURVE",
"161 28 CURVE SMOOTH",
"161 157 OFFCURVE",
"165 287 OFFCURVE",
"172 416 CURVE",
"172 417 LINE",
"172 433 OFFCURVE",
"150 439 OFFCURVE",
"131 439 CURVE SMOOTH",
"107 439 OFFCURVE",
"85 430 OFFCURVE",
"84 416 CURVE SMOOTH",
"75 291 OFFCURVE",
"73 161 OFFCURVE",
"73 22 CURVE",
"73 -109 OFFCURVE",
"154 -171 OFFCURVE",
"371 -171 CURVE SMOOTH"
);
}
);
width = 576;
}
);
unicode = 10B8C;
category = Letter;
},
{
glyphname = u10B8A;
lastChange = "2018-04-03 13:12:53 +0000";
layers = (
{
layerId = UUID0;
paths = (
{
closed = 1;
nodes = (
"376 -12 OFFCURVE",
"500 31 OFFCURVE",
"500 187 CURVE SMOOTH",
"500 271 OFFCURVE",
"438 342 OFFCURVE",
"319 342 CURVE SMOOTH",
"281 342 OFFCURVE",
"249 334 OFFCURVE",
"228 328 CURVE",
"230 393 OFFCURVE",
"241 485 OFFCURVE",
"249 543 CURVE SMOOTH",
"253 572 OFFCURVE",
"255 593 OFFCURVE",
"255 602 CURVE SMOOTH",
"255 618 OFFCURVE",
"234 625 OFFCURVE",
"212 625 CURVE SMOOTH",
"190 625 OFFCURVE",
"169 617 OFFCURVE",
"167 602 CURVE SMOOTH",
"161 564 OFFCURVE",
"144 404 OFFCURVE",
"144 300 CURVE SMOOTH",
"144 275 OFFCURVE",
"147 243 OFFCURVE",
"172 243 CURVE SMOOTH",
"179 243 OFFCURVE",
"190 245 OFFCURVE",
"204 250 CURVE SMOOTH",
"219 255 OFFCURVE",
"245 261 OFFCURVE",
"288 261 CURVE SMOOTH",
"331 261 OFFCURVE",
"411 250 OFFCURVE",
"411 183 CURVE SMOOTH",
"411 92 OFFCURVE",
"354 72 OFFCURVE",
"213 72 CURVE SMOOTH",
"161 72 OFFCURVE",
"94 83 OFFCURVE",
"64 88 CURVE SMOOTH",
"41 92 OFFCURVE",
"29 94 OFFCURVE",
"23 94 CURVE SMOOTH",
"7 94 OFFCURVE",
"0 73 OFFCURVE",
"0 52 CURVE SMOOTH",
"0 31 OFFCURVE",
"9 14 OFFCURVE",
"23 10 CURVE SMOOTH",
"35 7 OFFCURVE",
"128 -12 OFFCURVE",
"216 -12 CURVE SMOOTH"
);
}
);
width = 544;
}
);
unicode = 10B8A;
category = Letter;
},
{
glyphname = u10B8B;
lastChange = "2018-04-03 13:12:53 +0000";
layers = (
{
layerId = UUID0;
paths = (
{
closed = 1;
nodes = (
"268 -279 OFFCURVE",
"305 -256 OFFCURVE",
"357 -204 CURVE SMOOTH",
"442 -118 LINE SMOOTH",
"486 -74 OFFCURVE",
"515 -31 OFFCURVE",
"515 8 CURVE SMOOTH",
"515 83 OFFCURVE",
"413 84 OFFCURVE",
"388 84 CURVE SMOOTH",
"190 84 LINE",
"191 254 OFFCURVE",
"205 425 OFFCURVE",
"214 523 CURVE SMOOTH",
"218 563 OFFCURVE",
"220 591 OFFCURVE",
"220 602 CURVE SMOOTH",
"220 618 OFFCURVE",
"198 625 OFFCURVE",
"177 625 CURVE SMOOTH",
"154 625 OFFCURVE",
"135 617 OFFCURVE",
"132 602 CURVE SMOOTH",
"125 572 OFFCURVE",
"104 260 OFFCURVE",
"103 84 CURVE",
"61 84 LINE SMOOTH",
"37 84 OFFCURVE",
"24 63 OFFCURVE",
"24 42 CURVE SMOOTH",
"24 2 OFFCURVE",
"46 0 OFFCURVE",
"61 0 CURVE SMOOTH",
"105 0 LINE",
"115 -107 OFFCURVE",
"147 -279 OFFCURVE",
"233 -279 CURVE SMOOTH"
);
},
{
closed = 1;
nodes = (
"220 -189 OFFCURVE",
"200 -89 OFFCURVE",
"193 0 CURVE",
"348 0 LINE SMOOTH",
"393 0 OFFCURVE",
"419 -3 OFFCURVE",
"419 -18 CURVE SMOOTH",
"419 -38 OFFCURVE",
"389 -69 OFFCURVE",
"367 -91 CURVE SMOOTH",
"309 -148 LINE SMOOTH",
"289 -167 OFFCURVE",
"264 -189 OFFCURVE",
"249 -189 CURVE SMOOTH"
);
}
);
width = 564;
}
);
unicode = 10B8B;
category = Letter;
},
{
glyphname = u10B8D;
lastChange = "2018-04-03 13:12:53 +0000";
layers = (
{
layerId = UUID0;
paths = (
{
closed = 1;
nodes = (
"671 -12 OFFCURVE",
"737 77 OFFCURVE",
"737 192 CURVE SMOOTH",
"737 313 OFFCURVE",
"663 398 OFFCURVE",
"533 398 CURVE SMOOTH",
"479 398 OFFCURVE",
"447 383 OFFCURVE",
"447 347 CURVE SMOOTH",
"447 325 OFFCURVE",
"461 305 OFFCURVE",
"486 305 CURVE SMOOTH",
"504 305 OFFCURVE",
"514 307 OFFCURVE",
"523 310 CURVE SMOOTH",
"530 313 OFFCURVE",
"535 314 OFFCURVE",
"542 314 CURVE SMOOTH",
"611 314 OFFCURVE",
"649 267 OFFCURVE",
"649 199 CURVE SMOOTH",
"649 121 OFFCURVE",
"615 73 OFFCURVE",
"531 73 CURVE SMOOTH",
"457 73 OFFCURVE",
"400 104 OFFCURVE",
"371 218 CURVE",
"361 332 OFFCURVE",
"288 398 OFFCURVE",
"168 398 CURVE SMOOTH",
"115 398 OFFCURVE",
"83 383 OFFCURVE",
"83 347 CURVE SMOOTH",
"83 325 OFFCURVE",
"97 305 OFFCURVE",
"122 305 CURVE SMOOTH",
"141 305 OFFCURVE",
"151 308 OFFCURVE",
"160 311 CURVE SMOOTH",
"167 313 OFFCURVE",
"171 314 OFFCURVE",
"181 314 CURVE SMOOTH",
"237 314 OFFCURVE",
"285 284 OFFCURVE",
"285 202 CURVE SMOOTH",
"285 117 OFFCURVE",
"204 99 OFFCURVE",
"146 91 CURVE SMOOTH",
"124 88 OFFCURVE",
"84 85 OFFCURVE",
"53 84 CURVE SMOOTH",
"37 83 OFFCURVE",
"24 63 OFFCURVE",
"24 42 CURVE SMOOTH",
"24 21 OFFCURVE",
"33 0 OFFCURVE",
"48 0 CURVE SMOOTH",
"76 0 OFFCURVE",
"110 3 OFFCURVE",
"166 9 CURVE SMOOTH",
"242 17 OFFCURVE",
"298 43 OFFCURVE",
"333 82 CURVE",
"362 32 OFFCURVE",
"421 -12 OFFCURVE",
"524 -12 CURVE SMOOTH"
);
}
);
width = 795;
}
);
unicode = 10B8D;
category = Letter;
},
{
glyphname = u10B90;
lastChange = "2018-04-03 13:12:53 +0000";
layers = (
{
layerId = UUID0;
paths = (
{
closed = 1;
nodes = (
"948 -13 OFFCURVE",
"1000 14 OFFCURVE",
"1010 20 CURVE SMOOTH",
"1022 27 OFFCURVE",
"1034 36 OFFCURVE",
"1034 62 CURVE SMOOTH",
"1034 83 OFFCURVE",
"1026 104 OFFCURVE",
"1010 104 CURVE SMOOTH",
"1006 104 OFFCURVE",
"999 101 OFFCURVE",
"988 96 CURVE SMOOTH",
"965 86 OFFCURVE",
"925 71 OFFCURVE",
"882 71 CURVE SMOOTH",
"830 71 OFFCURVE",
"798 86 OFFCURVE",
"775 189 CURVE",
"768 248 OFFCURVE",
"747 323 OFFCURVE",
"727 380 CURVE SMOOTH",
"709 431 OFFCURVE",
"671 469 OFFCURVE",
"623 469 CURVE SMOOTH",
"559 469 OFFCURVE",
"471 385 OFFCURVE",
"471 349 CURVE SMOOTH",
"471 327 OFFCURVE",
"485 316 OFFCURVE",
"510 316 CURVE SMOOTH",
"526 316 OFFCURVE",
"545 334 OFFCURVE",
"563 351 CURVE SMOOTH",
"583 369 OFFCURVE",
"601 385 OFFCURVE",
"617 385 CURVE SMOOTH",
"639 385 OFFCURVE",
"651 357 OFFCURVE",
"659 333 CURVE SMOOTH",
"683 260 OFFCURVE",
"691 211 OFFCURVE",
"691 158 CURVE SMOOTH",
"691 102 OFFCURVE",
"646 71 OFFCURVE",
"544 71 CURVE SMOOTH",
"474 71 OFFCURVE",
"421 81 OFFCURVE",
"377 99 CURVE",
"384 115 OFFCURVE",
"387 134 OFFCURVE",
"387 154 CURVE SMOOTH",
"387 214 OFFCURVE",
"359 310 OFFCURVE",
"334 380 CURVE SMOOTH",
"316 431 OFFCURVE",
"279 469 OFFCURVE",
"230 469 CURVE SMOOTH",
"166 469 OFFCURVE",
"79 385 OFFCURVE",
"79 349 CURVE SMOOTH",
"79 327 OFFCURVE",
"92 316 OFFCURVE",
"118 316 CURVE SMOOTH",
"133 316 OFFCURVE",
"152 333 OFFCURVE",
"170 350 CURVE SMOOTH",
"189 368 OFFCURVE",
"208 385 OFFCURVE",
"225 385 CURVE SMOOTH",
"246 385 OFFCURVE",
"258 357 OFFCURVE",
"266 333 CURVE SMOOTH",
"290 260 OFFCURVE",
"299 211 OFFCURVE",
"299 158 CURVE SMOOTH",
"299 86 OFFCURVE",
"236 76 OFFCURVE",
"164 76 CURVE SMOOTH",
"125 76 OFFCURVE",
"104 79 OFFCURVE",
"87 82 CURVE SMOOTH",
"77 84 OFFCURVE",
"68 84 OFFCURVE",
"59 84 CURVE SMOOTH",
"36 84 OFFCURVE",
"24 67 OFFCURVE",
"24 42 CURVE SMOOTH",
"24 25 OFFCURVE",
"34 2 OFFCURVE",
"55 0 CURVE SMOOTH",
"64 -1 OFFCURVE",
"69 -1 OFFCURVE",
"86 -3 CURVE SMOOTH",
"109 -6 OFFCURVE",
"137 -8 OFFCURVE",
"165 -8 CURVE SMOOTH",
"233 -8 OFFCURVE",
"286 5 OFFCURVE",
"322 29 CURVE",
"379 1 OFFCURVE",
"465 -12 OFFCURVE",
"538 -12 CURVE SMOOTH",
"638 -12 OFFCURVE",
"711 16 OFFCURVE",
"749 80 CURVE",
"722 87 LINE",
"753 9 OFFCURVE",
"805 -13 OFFCURVE",
"888 -13 CURVE SMOOTH"
);
}
);
width = 1058;
}
);
unicode = 10B90;
category = Letter;
},
{
glyphname = u10B91;
lastChange = "2018-04-03 13:12:53 +0000";
layers = (
{
layerId = UUID0;
paths = (
{
closed = 1;
nodes = (
"154 -27 OFFCURVE",
"176 -18 OFFCURVE",
"176 -3 CURVE SMOOTH",
"176 7 OFFCURVE",
"176 16 OFFCURVE",
"177 26 CURVE",
"247 4 OFFCURVE",
"315 -10 OFFCURVE",
"406 -10 CURVE SMOOTH",
"557 -10 OFFCURVE",
"661 67 OFFCURVE",
"661 188 CURVE SMOOTH",
"661 302 OFFCURVE",
"588 386 OFFCURVE",
"468 386 CURVE SMOOTH",
"356 386 OFFCURVE",
"254 314 OFFCURVE",
"151 208 CURVE",
"168 193 LINE",
"162 287 OFFCURVE",
"148 355 OFFCURVE",
"127 416 CURVE SMOOTH",
"121 432 OFFCURVE",
"104 439 OFFCURVE",
"81 439 CURVE SMOOTH",
"61 439 OFFCURVE",
"39 433 OFFCURVE",
"39 416 CURVE SMOOTH",
"39 411 OFFCURVE",
"41 402 OFFCURVE",
"42 397 CURVE SMOOTH",
"68 296 OFFCURVE",
"90 205 OFFCURVE",
"90 56 CURVE SMOOTH",
"90 49 OFFCURVE",
"90 41 OFFCURVE",
"90 31 CURVE SMOOTH",
"89 20 OFFCURVE",
"89 7 OFFCURVE",
"89 -3 CURVE SMOOTH",
"89 -20 OFFCURVE",
"111 -27 OFFCURVE",
"131 -27 CURVE SMOOTH"
);
},
{
closed = 1;
nodes = (
"319 70 OFFCURVE",
"213 95 OFFCURVE",
"176 119 CURVE",
"176 123 LINE",
"255 223 OFFCURVE",
"367 302 OFFCURVE",
"458 302 CURVE SMOOTH",
"526 302 OFFCURVE",
"572 263 OFFCURVE",
"572 188 CURVE SMOOTH",
"572 120 OFFCURVE",
"508 70 OFFCURVE",
"400 70 CURVE SMOOTH"
);
}
);
width = 710;
}
);
unicode = 10B91;
category = Letter;
},
{
glyphname = u10B8E;
lastChange = "2018-04-03 13:12:53 +0000";
layers = (
{
layerId = UUID0;
paths = (
{
closed = 1;
nodes = (
"442 0 OFFCURVE",
"544 82 OFFCURVE",
"544 223 CURVE SMOOTH",
"544 326 OFFCURVE",
"482 439 OFFCURVE",
"315 439 CURVE SMOOTH",
"173 439 OFFCURVE",
"86 357 OFFCURVE",
"86 210 CURVE SMOOTH",
"86 159 OFFCURVE",
"101 115 OFFCURVE",
"122 68 CURVE",
"136 89 LINE",
"113 94 OFFCURVE",
"84 100 OFFCURVE",
"63 100 CURVE SMOOTH",
"46 100 OFFCURVE",
"39 75 OFFCURVE",
"39 55 CURVE SMOOTH",
"39 33 OFFCURVE",
"48 14 OFFCURVE",
"63 12 CURVE SMOOTH",
"84 9 OFFCURVE",
"148 0 OFFCURVE",
"290 0 CURVE SMOOTH"
);
},
{
closed = 1;
nodes = (
"251 84 OFFCURVE",
"224 84 OFFCURVE",
"202 85 CURVE",
"185 131 OFFCURVE",
"175 177 OFFCURVE",
"175 205 CURVE SMOOTH",
"175 305 OFFCURVE",
"231 355 OFFCURVE",
"321 355 CURVE SMOOTH",
"418 355 OFFCURVE",
"455 295 OFFCURVE",
"455 218 CURVE SMOOTH",
"455 120 OFFCURVE",
"386 84 OFFCURVE",
"284 84 CURVE SMOOTH"
);
}
);
width = 603;
}
);
unicode = 10B8E;
category = Letter;
},
{
glyphname = u10B8F;
lastChange = "2018-04-03 13:12:53 +0000";
layers = (
{
layerId = UUID0;
paths = (
{
closed = 1;
nodes = (
"449 -190 OFFCURVE",
"575 -160 OFFCURVE",
"600 -153 CURVE SMOOTH",
"615 -149 OFFCURVE",
"623 -135 OFFCURVE",
"623 -114 CURVE SMOOTH",
"623 -93 OFFCURVE",
"611 -80 OFFCURVE",
"588 -80 CURVE SMOOTH",
"567 -80 OFFCURVE",
"546 -83 OFFCURVE",
"521 -88 CURVE SMOOTH",
"480 -97 OFFCURVE",
"427 -106 OFFCURVE",
"339 -106 CURVE SMOOTH",
"180 -106 OFFCURVE",
"134 -68 OFFCURVE",
"134 48 CURVE SMOOTH",
"134 70 OFFCURVE",
"136 98 OFFCURVE",
"139 125 CURVE SMOOTH",
"161 314 LINE",
"153 314 LINE",
"160 264 OFFCURVE",
"175 203 OFFCURVE",
"184 168 CURVE SMOOTH",
"208 73 OFFCURVE",
"249 -2 OFFCURVE",
"369 -2 CURVE SMOOTH",
"525 -2 OFFCURVE",
"576 74 OFFCURVE",
"576 217 CURVE SMOOTH",
"576 380 OFFCURVE",
"542 420 OFFCURVE",
"500 420 CURVE SMOOTH",
"434 420 OFFCURVE",
"372 332 OFFCURVE",
"372 278 CURVE SMOOTH",
"372 262 OFFCURVE",
"381 236 OFFCURVE",
"404 236 CURVE SMOOTH",
"419 236 OFFCURVE",
"432 243 OFFCURVE",
"444 251 CURVE SMOOTH",
"454 258 OFFCURVE",
"463 264 OFFCURVE",
"473 264 CURVE SMOOTH",
"480 264 OFFCURVE",
"488 260 OFFCURVE",
"488 192 CURVE SMOOTH",
"488 125 OFFCURVE",
"464 83 OFFCURVE",
"377 83 CURVE SMOOTH",
"299 83 OFFCURVE",
"284 128 OFFCURVE",
"255 236 CURVE SMOOTH",
"207 414 OFFCURVE",
"192 439 OFFCURVE",
"153 439 CURVE SMOOTH",
"115 439 OFFCURVE",
"92 394 OFFCURVE",
"71 237 CURVE SMOOTH",
"55 119 LINE SMOOTH",
"52 96 OFFCURVE",
"49 57 OFFCURVE",
"49 29 CURVE SMOOTH",
"49 -137 OFFCURVE",
"146 -190 OFFCURVE",
"320 -190 CURVE SMOOTH"
);
}
);
width = 645;
}
);
unicode = 10B8F;
category = Letter;
},
{
glyphname = u10B99;
lastChange = "2018-04-03 13:12:53 +0000";
layers = (
{
layerId = UUID0;
paths = (
{
closed = 1;
nodes = (
"302 367 OFFCURVE",
"349 413 OFFCURVE",
"349 469 CURVE SMOOTH",
"349 526 OFFCURVE",
"302 572 OFFCURVE",
"245 572 CURVE SMOOTH",
"189 572 OFFCURVE",
"143 526 OFFCURVE",
"143 469 CURVE SMOOTH",
"143 413 OFFCURVE",
"189 367 OFFCURVE",
"245 367 CURVE SMOOTH"
);
},
{
closed = 1;
nodes = (
"302 -24 OFFCURVE",
"349 22 OFFCURVE",
"349 78 CURVE SMOOTH",
"349 135 OFFCURVE",
"302 181 OFFCURVE",
"245 181 CURVE SMOOTH",
"189 181 OFFCURVE",
"143 135 OFFCURVE",
"143 78 CURVE SMOOTH",
"143 22 OFFCURVE",
"189 -24 OFFCURVE",
"245 -24 CURVE SMOOTH"
);
},
{
closed = 1;
nodes = (
"209 12 OFFCURVE",
"180 42 OFFCURVE",
"180 78 CURVE SMOOTH",
"180 115 OFFCURVE",
"209 144 OFFCURVE",
"245 144 CURVE SMOOTH",
"282 144 OFFCURVE",
"312 115 OFFCURVE",
"312 78 CURVE SMOOTH",
"312 42 OFFCURVE",
"282 12 OFFCURVE",
"245 12 CURVE SMOOTH"
);
},
{
closed = 1;
nodes = (
"145 206 OFFCURVE",
"173 234 OFFCURVE",
"173 268 CURVE SMOOTH",
"173 302 OFFCURVE",
"145 330 OFFCURVE",
"110 330 CURVE SMOOTH",
"77 330 OFFCURVE",
"49 302 OFFCURVE",
"49 268 CURVE SMOOTH",
"49 234 OFFCURVE",
"77 206 OFFCURVE",
"110 206 CURVE SMOOTH"
);
},
{
closed = 1;
nodes = (
"414 206 OFFCURVE",
"441 234 OFFCURVE",
"441 268 CURVE SMOOTH",
"441 302 OFFCURVE",
"414 330 OFFCURVE",
"379 330 CURVE SMOOTH",
"345 330 OFFCURVE",
"317 302 OFFCURVE",
"317 268 CURVE SMOOTH",
"317 234 OFFCURVE",
"345 206 OFFCURVE",
"379 206 CURVE SMOOTH"
);
},
{
closed = 1;
nodes = (
"209 403 OFFCURVE",
"180 433 OFFCURVE",
"180 469 CURVE SMOOTH",
"180 506 OFFCURVE",
"209 535 OFFCURVE",
"245 535 CURVE SMOOTH",
"282 535 OFFCURVE",
"312 506 OFFCURVE",
"312 469 CURVE SMOOTH",
"312 433 OFFCURVE",
"282 403 OFFCURVE",
"245 403 CURVE SMOOTH"
);
}
);
width = 490;
}
);
unicode = 10B99;
category = Letter;
},
{
glyphname = u10B9A;
lastChange = "2018-04-03 13:12:53 +0000";
layers = (
{
layerId = UUID0;
paths = (
{
closed = 1;
nodes = (
"335 381 OFFCURVE",
"378 424 OFFCURVE",
"378 476 CURVE SMOOTH",
"378 529 OFFCURVE",
"335 572 OFFCURVE",
"282 572 CURVE SMOOTH",
"230 572 OFFCURVE",
"187 529 OFFCURVE",
"187 476 CURVE SMOOTH",
"187 424 OFFCURVE",
"230 381 OFFCURVE",
"282 381 CURVE SMOOTH"
);
},
{
closed = 1;
nodes = (
"335 -24 OFFCURVE",
"378 19 OFFCURVE",
"378 71 CURVE SMOOTH",
"378 124 OFFCURVE",
"335 167 OFFCURVE",
"282 167 CURVE SMOOTH",
"230 167 OFFCURVE",
"187 124 OFFCURVE",
"187 71 CURVE SMOOTH",
"187 19 OFFCURVE",
"230 -24 OFFCURVE",
"282 -24 CURVE SMOOTH"
);
},
{
closed = 1;
nodes = (
"180 183 OFFCURVE",
"219 222 OFFCURVE",
"219 268 CURVE SMOOTH",
"219 314 OFFCURVE",
"180 353 OFFCURVE",
"133 353 CURVE SMOOTH",
"87 353 OFFCURVE",
"49 314 OFFCURVE",
"49 268 CURVE SMOOTH",
"49 222 OFFCURVE",
"87 183 OFFCURVE",
"133 183 CURVE SMOOTH"
);
},
{
closed = 1;
nodes = (
"105 217 OFFCURVE",
"83 240 OFFCURVE",
"83 268 CURVE SMOOTH",
"83 296 OFFCURVE",
"105 319 OFFCURVE",
"133 319 CURVE SMOOTH",
"162 319 OFFCURVE",
"185 296 OFFCURVE",
"185 268 CURVE SMOOTH",
"185 240 OFFCURVE",
"162 217 OFFCURVE",
"133 217 CURVE SMOOTH"
);
},
{
closed = 1;
nodes = (
"477 183 OFFCURVE",
"516 222 OFFCURVE",
"516 268 CURVE SMOOTH",
"516 314 OFFCURVE",
"477 353 OFFCURVE",
"430 353 CURVE SMOOTH",
"384 353 OFFCURVE",
"346 314 OFFCURVE",
"346 268 CURVE SMOOTH",
"346 222 OFFCURVE",
"384 183 OFFCURVE",
"430 183 CURVE SMOOTH"
);
},
{
closed = 1;
nodes = (
"402 217 OFFCURVE",
"379 240 OFFCURVE",
"379 268 CURVE SMOOTH",
"379 296 OFFCURVE",
"402 319 OFFCURVE",
"430 319 CURVE SMOOTH",
"458 319 OFFCURVE",
"481 296 OFFCURVE",
"481 268 CURVE SMOOTH",
"481 240 OFFCURVE",
"458 217 OFFCURVE",
"430 217 CURVE SMOOTH"
);
}
);
width = 564;
}
);
unicode = 10B9A;
category = Letter;
},
{
glyphname = u10B9C;
lastChange = "2018-04-03 13:12:53 +0000";
layers = (
{
layerId = UUID0;
paths = (
{
closed = 1;
nodes = (
"600 171 OFFCURVE",
"646 218 OFFCURVE",
"646 273 CURVE SMOOTH",
"646 331 OFFCURVE",
"600 377 OFFCURVE",
"543 377 CURVE SMOOTH",
"487 377 OFFCURVE",
"441 331 OFFCURVE",
"441 273 CURVE SMOOTH",
"441 218 OFFCURVE",
"487 171 OFFCURVE",
"543 171 CURVE SMOOTH"
);
},
{
closed = 1;
nodes = (
"208 171 OFFCURVE",
"254 218 OFFCURVE",
"254 273 CURVE SMOOTH",
"254 331 OFFCURVE",
"208 377 OFFCURVE",
"151 377 CURVE SMOOTH",
"95 377 OFFCURVE",
"49 331 OFFCURVE",
"49 273 CURVE SMOOTH",
"49 218 OFFCURVE",
"95 171 OFFCURVE",
"151 171 CURVE SMOOTH"
);
},
{
closed = 1;
nodes = (
"115 208 OFFCURVE",
"85 238 OFFCURVE",
"85 273 CURVE SMOOTH",
"85 311 OFFCURVE",
"115 340 OFFCURVE",
"151 340 CURVE SMOOTH",
"188 340 OFFCURVE",
"217 311 OFFCURVE",
"217 273 CURVE SMOOTH",
"217 238 OFFCURVE",
"188 208 OFFCURVE",
"151 208 CURVE SMOOTH"
);
},
{
closed = 1;
nodes = (
"405 -24 OFFCURVE",
"451 22 OFFCURVE",
"451 78 CURVE SMOOTH",
"451 135 OFFCURVE",
"405 181 OFFCURVE",
"348 181 CURVE SMOOTH",
"292 181 OFFCURVE",
"246 135 OFFCURVE",
"246 78 CURVE SMOOTH",
"246 22 OFFCURVE",
"292 -24 OFFCURVE",
"348 -24 CURVE SMOOTH"
);
},
{
closed = 1;
nodes = (
"312 12 OFFCURVE",
"282 42 OFFCURVE",
"282 78 CURVE SMOOTH",
"282 115 OFFCURVE",
"312 144 OFFCURVE",
"348 144 CURVE SMOOTH",
"384 144 OFFCURVE",
"414 115 OFFCURVE",
"414 78 CURVE SMOOTH",
"414 42 OFFCURVE",
"384 12 OFFCURVE",
"348 12 CURVE SMOOTH"
);
},
{
closed = 1;
nodes = (
"375 226 OFFCURVE",
"396 247 OFFCURVE",
"396 273 CURVE SMOOTH",
"396 301 OFFCURVE",
"375 322 OFFCURVE",
"347 322 CURVE SMOOTH",
"321 322 OFFCURVE",
"299 301 OFFCURVE",
"299 273 CURVE SMOOTH",
"299 247 OFFCURVE",
"321 226 OFFCURVE",
"347 226 CURVE SMOOTH"
);
},
{
closed = 1;
nodes = (
"507 208 OFFCURVE",
"478 238 OFFCURVE",
"478 273 CURVE SMOOTH",
"478 311 OFFCURVE",
"507 340 OFFCURVE",
"543 340 CURVE SMOOTH",
"580 340 OFFCURVE",
"609 311 OFFCURVE",
"609 273 CURVE SMOOTH",
"609 238 OFFCURVE",
"580 208 OFFCURVE",
"543 208 CURVE SMOOTH"
);
},
{
closed = 1;
nodes = (
"405 367 OFFCURVE",
"451 413 OFFCURVE",
"451 469 CURVE SMOOTH",
"451 526 OFFCURVE",
"405 572 OFFCURVE",
"348 572 CURVE SMOOTH",
"292 572 OFFCURVE",
"246 526 OFFCURVE",
"246 469 CURVE SMOOTH",
"246 413 OFFCURVE",
"292 367 OFFCURVE",
"348 367 CURVE SMOOTH"
);
},
{
closed = 1;
nodes = (
"312 403 OFFCURVE",
"282 433 OFFCURVE",
"282 469 CURVE SMOOTH",
"282 506 OFFCURVE",
"312 535 OFFCURVE",
"348 535 CURVE SMOOTH",
"384 535 OFFCURVE",
"414 506 OFFCURVE",
"414 469 CURVE SMOOTH",
"414 433 OFFCURVE",
"384 403 OFFCURVE",
"348 403 CURVE SMOOTH"
);
}
);
width = 695;
}
);
unicode = 10B9C;
category = Letter;
},
{
glyphname = u10B9B;
lastChange = "2018-04-03 13:12:53 +0000";
layers = (
{
layerId = UUID0;
paths = (
{
closed = 1;
nodes = (
"351 252 LINE",
"495 105 LINE",
"513 125 LINE",
"369 271 LINE",
"513 419 LINE",
"495 438 LINE",
"351 291 LINE",
"206 438 LINE",
"188 419 LINE",
"332 271 LINE",
"188 125 LINE",
"206 105 LINE"
);
},
{
closed = 1;
nodes = (
"208 171 OFFCURVE",
"254 218 OFFCURVE",
"254 273 CURVE SMOOTH",
"254 331 OFFCURVE",
"208 377 OFFCURVE",
"151 377 CURVE SMOOTH",
"95 377 OFFCURVE",
"49 331 OFFCURVE",
"49 273 CURVE SMOOTH",
"49 218 OFFCURVE",
"95 171 OFFCURVE",
"151 171 CURVE SMOOTH"
);
},
{
closed = 1;
nodes = (
"115 208 OFFCURVE",
"85 238 OFFCURVE",
"85 273 CURVE SMOOTH",
"85 311 OFFCURVE",
"115 340 OFFCURVE",
"151 340 CURVE SMOOTH",
"188 340 OFFCURVE",
"217 311 OFFCURVE",
"217 273 CURVE SMOOTH",
"217 238 OFFCURVE",
"188 208 OFFCURVE",
"151 208 CURVE SMOOTH"
);
},
{
closed = 1;
nodes = (
"405 -24 OFFCURVE",
"451 22 OFFCURVE",
"451 78 CURVE SMOOTH",
"451 135 OFFCURVE",
"405 181 OFFCURVE",
"348 181 CURVE SMOOTH",
"292 181 OFFCURVE",
"246 135 OFFCURVE",
"246 78 CURVE SMOOTH",
"246 22 OFFCURVE",
"292 -24 OFFCURVE",
"348 -24 CURVE SMOOTH"
);
},
{
closed = 1;
nodes = (
"312 12 OFFCURVE",
"282 42 OFFCURVE",
"282 78 CURVE SMOOTH",
"282 115 OFFCURVE",
"312 144 OFFCURVE",
"348 144 CURVE SMOOTH",
"384 144 OFFCURVE",
"414 115 OFFCURVE",
"414 78 CURVE SMOOTH",
"414 42 OFFCURVE",
"384 12 OFFCURVE",
"348 12 CURVE SMOOTH"
);
},
{
closed = 1;
nodes = (
"312 403 OFFCURVE",
"282 433 OFFCURVE",
"282 469 CURVE SMOOTH",
"282 506 OFFCURVE",
"312 535 OFFCURVE",
"348 535 CURVE SMOOTH",
"384 535 OFFCURVE",
"414 506 OFFCURVE",
"414 469 CURVE SMOOTH",
"414 433 OFFCURVE",
"384 403 OFFCURVE",
"348 403 CURVE SMOOTH"
);
},
{
closed = 1;
nodes = (
"600 171 OFFCURVE",
"646 218 OFFCURVE",
"646 273 CURVE SMOOTH",
"646 331 OFFCURVE",
"600 377 OFFCURVE",
"543 377 CURVE SMOOTH",
"487 377 OFFCURVE",
"441 331 OFFCURVE",
"441 273 CURVE SMOOTH",
"441 218 OFFCURVE",
"487 171 OFFCURVE",
"543 171 CURVE SMOOTH"
);
},
{
closed = 1;
nodes = (
"507 208 OFFCURVE",
"478 238 OFFCURVE",
"478 273 CURVE SMOOTH",
"478 311 OFFCURVE",
"507 340 OFFCURVE",
"543 340 CURVE SMOOTH",
"580 340 OFFCURVE",
"609 311 OFFCURVE",
"609 273 CURVE SMOOTH",
"609 238 OFFCURVE",
"580 208 OFFCURVE",
"543 208 CURVE SMOOTH"
);
},
{
closed = 1;
nodes = (
"405 367 OFFCURVE",
"451 413 OFFCURVE",
"451 469 CURVE SMOOTH",
"451 526 OFFCURVE",
"405 572 OFFCURVE",
"348 572 CURVE SMOOTH",
"292 572 OFFCURVE",
"246 526 OFFCURVE",
"246 469 CURVE SMOOTH",
"246 413 OFFCURVE",
"292 367 OFFCURVE",
"348 367 CURVE SMOOTH"
);
}
);
width = 695;
}
);
unicode = 10B9B;
category = Letter;
},
{
glyphname = u10B80.fina;
lastChange = "2018-04-03 13:12:53 +0000";
layers = (
{
layerId = UUID0;
paths = (
{
closed = 1;
nodes = (
"447 -19 OFFCURVE",
"484 25 OFFCURVE",
"513 72 CURVE",
"493 72 LINE",
"502 36 OFFCURVE",
"514 0 OFFCURVE",
"578 0 CURVE SMOOTH",
"670 0 LINE SMOOTH",
"686 0 OFFCURVE",
"694 21 OFFCURVE",
"694 42 CURVE SMOOTH",
"694 63 OFFCURVE",
"687 84 OFFCURVE",
"670 84 CURVE SMOOTH",
"608 84 LINE SMOOTH",
"560 84 OFFCURVE",
"557 114 OFFCURVE",
"555 151 CURVE SMOOTH",
"554 175 OFFCURVE",
"553 199 OFFCURVE",
"552 232 CURVE SMOOTH",
"551 263 OFFCURVE",
"550 310 OFFCURVE",
"550 362 CURVE SMOOTH",
"550 378 OFFCURVE",
"550 386 OFFCURVE",
"550 392 CURVE SMOOTH",
"550 407 OFFCURVE",
"527 415 OFFCURVE",
"504 415 CURVE SMOOTH",
"465 415 OFFCURVE",
"462 400 OFFCURVE",
"462 368 CURVE SMOOTH",
"462 331 OFFCURVE",
"464 299 OFFCURVE",
"466 268 CURVE SMOOTH",
"468 238 OFFCURVE",
"470 208 OFFCURVE",
"470 174 CURVE SMOOTH",
"470 119 OFFCURVE",
"453 65 OFFCURVE",
"356 65 CURVE SMOOTH",
"257 65 OFFCURVE",
"244 118 OFFCURVE",
"242 171 CURVE SMOOTH",
"240 212 OFFCURVE",
"239 240 OFFCURVE",
"238 271 CURVE SMOOTH",
"237 295 OFFCURVE",
"237 331 OFFCURVE",
"237 355 CURVE SMOOTH",
"237 371 OFFCURVE",
"215 378 OFFCURVE",
"194 378 CURVE SMOOTH",
"171 378 OFFCURVE",
"149 369 OFFCURVE",
"149 346 CURVE SMOOTH",
"149 309 OFFCURVE",
"150 285 OFFCURVE",
"152 261 CURVE SMOOTH",
"154 237 OFFCURVE",
"155 213 OFFCURVE",
"155 177 CURVE SMOOTH",
"155 107 OFFCURVE",
"112 84 OFFCURVE",
"48 84 CURVE SMOOTH",
"32 84 OFFCURVE",
"24 63 OFFCURVE",
"24 42 CURVE SMOOTH",
"24 21 OFFCURVE",
"33 0 OFFCURVE",
"48 0 CURVE SMOOTH",
"125 0 OFFCURVE",
"176 24 OFFCURVE",
"215 84 CURVE",
"187 85 LINE",
"210 24 OFFCURVE",
"254 -19 OFFCURVE",
"349 -19 CURVE SMOOTH"
);
}
);
width = 655;
}
);
category = Letter;
},
{
glyphname = u10B80.medi;
lastChange = "2018-04-03 13:12:53 +0000";
layers = (
{
layerId = UUID0;
paths = (
{
closed = 1;
nodes = (
"406 -19 OFFCURVE",
"454 35 OFFCURVE",
"468 67 CURVE",
"455 67 LINE",
"463 39 OFFCURVE",
"488 0 OFFCURVE",
"542 0 CURVE SMOOTH",
"636 0 LINE SMOOTH",
"651 0 OFFCURVE",
"660 21 OFFCURVE",
"660 42 CURVE SMOOTH",
"660 63 OFFCURVE",
"652 84 OFFCURVE",
"636 84 CURVE SMOOTH",
"574 84 LINE SMOOTH",
"525 84 OFFCURVE",
"523 114 OFFCURVE",
"521 166 CURVE SMOOTH",
"518 241 OFFCURVE",
"516 294 OFFCURVE",
"516 372 CURVE SMOOTH",
"516 378 OFFCURVE",
"516 386 OFFCURVE",
"516 392 CURVE SMOOTH",
"516 407 OFFCURVE",
"493 415 OFFCURVE",
"470 415 CURVE SMOOTH",
"431 415 OFFCURVE",
"428 400 OFFCURVE",
"428 368 CURVE SMOOTH",
"428 331 OFFCURVE",
"430 299 OFFCURVE",
"432 268 CURVE SMOOTH",
"434 238 OFFCURVE",
"436 208 OFFCURVE",
"436 174 CURVE SMOOTH",
"436 110 OFFCURVE",
"412 65 OFFCURVE",
"314 65 CURVE SMOOTH",
"223 65 OFFCURVE",
"209 118 OFFCURVE",
"207 171 CURVE SMOOTH",
"204 245 OFFCURVE",
"203 291 OFFCURVE",
"202 351 CURVE SMOOTH",
"202 371 OFFCURVE",
"181 378 OFFCURVE",
"159 378 CURVE SMOOTH",
"137 378 OFFCURVE",
"115 369 OFFCURVE",
"115 346 CURVE SMOOTH",
"115 308 OFFCURVE",
"116 282 OFFCURVE",
"118 260 CURVE SMOOTH",
"120 232 OFFCURVE",
"121 209 OFFCURVE",
"121 177 CURVE SMOOTH",
"121 107 OFFCURVE",
"78 84 OFFCURVE",
"14 84 CURVE SMOOTH",
"-16 84 LINE SMOOTH",
"-32 84 OFFCURVE",
"-39 63 OFFCURVE",
"-39 42 CURVE SMOOTH",
"-39 21 OFFCURVE",
"-31 0 OFFCURVE",
"-16 0 CURVE SMOOTH",
"16 0 LINE SMOOTH",
"92 0 OFFCURVE",
"139 24 OFFCURVE",
"176 80 CURVE",
"148 80 LINE",
"174 24 OFFCURVE",
"220 -19 OFFCURVE",
"308 -19 CURVE SMOOTH"
);
}
);
width = 630;
}
);
category = Letter;
},
{
glyphname = u10B80.init;
lastChange = "2018-04-03 13:12:53 +0000";
layers = (
{
layerId = UUID0;
paths = (
{
closed = 1;
nodes = (
"391 -19 OFFCURVE",
"428 16 OFFCURVE",
"448 39 CURVE",
"461 9 OFFCURVE",
"481 -4 OFFCURVE",
"500 -4 CURVE SMOOTH",
"538 -4 OFFCURVE",
"550 16 OFFCURVE",
"550 52 CURVE SMOOTH",
"550 62 OFFCURVE",
"547 70 OFFCURVE",
"542 80 CURVE SMOOTH",
"534 97 OFFCURVE",
"525 120 OFFCURVE",
"522 166 CURVE SMOOTH",
"521 181 OFFCURVE",
"521 195 OFFCURVE",
"520 208 CURVE SMOOTH",
"516 264 OFFCURVE",
"516 310 OFFCURVE",
"516 372 CURVE SMOOTH",
"516 404 OFFCURVE",
"501 415 OFFCURVE",
"470 415 CURVE SMOOTH",
"442 415 OFFCURVE",
"428 403 OFFCURVE",
"428 368 CURVE SMOOTH",
"428 330 OFFCURVE",
"430 299 OFFCURVE",
"432 270 CURVE SMOOTH",
"434 241 OFFCURVE",
"436 212 OFFCURVE",
"436 179 CURVE SMOOTH",
"436 124 OFFCURVE",
"417 65 OFFCURVE",
"315 65 CURVE SMOOTH",
"220 65 OFFCURVE",
"210 123 OFFCURVE",
"207 176 CURVE SMOOTH",
"205 219 OFFCURVE",
"204 242 OFFCURVE",
"204 270 CURVE SMOOTH",
"204 291 OFFCURVE",
"203 313 OFFCURVE",
"202 346 CURVE SMOOTH",
"202 361 OFFCURVE",
"181 378 OFFCURVE",
"159 378 CURVE SMOOTH",
"137 378 OFFCURVE",
"115 369 OFFCURVE",
"115 346 CURVE SMOOTH",
"115 308 OFFCURVE",
"116 284 OFFCURVE",
"118 260 CURVE SMOOTH",
"120 237 OFFCURVE",
"121 213 OFFCURVE",
"121 177 CURVE SMOOTH",
"121 107 OFFCURVE",
"78 84 OFFCURVE",
"14 84 CURVE SMOOTH",
"-2 84 OFFCURVE",
"-10 63 OFFCURVE",
"-10 42 CURVE SMOOTH",
"-10 21 OFFCURVE",
"-1 0 OFFCURVE",
"14 0 CURVE SMOOTH",
"91 0 OFFCURVE",
"136 24 OFFCURVE",
"174 70 CURVE",
"146 71 LINE",
"172 24 OFFCURVE",
"217 -19 OFFCURVE",
"306 -19 CURVE SMOOTH"
);
},
{
closed = 1;
nodes = (
"32 0 LINE",
"32 84 LINE",
"-16 84 LINE SMOOTH",
"-32 84 OFFCURVE",
"-39 63 OFFCURVE",
"-39 42 CURVE SMOOTH",
"-39 21 OFFCURVE",
"-31 0 OFFCURVE",
"-16 0 CURVE SMOOTH"
);
}
);
width = 608;
}
);
category = Letter;
},
{
glyphname = u10B81.fina;
lastChange = "2018-04-03 13:12:53 +0000";
layers = (
{
layerId = UUID0;
paths = (
{
closed = 1;
nodes = (
"864 0 LINE SMOOTH",
"879 0 OFFCURVE",
"888 21 OFFCURVE",
"888 42 CURVE SMOOTH",
"888 63 OFFCURVE",
"880 84 OFFCURVE",
"864 84 CURVE SMOOTH",
"690 84 LINE",
"690 0 LINE"
);
},
{
closed = 1;
nodes = (
"576 -269 OFFCURVE",
"775 -128 OFFCURVE",
"775 201 CURVE SMOOTH",
"775 273 OFFCURVE",
"763 437 OFFCURVE",
"761 454 CURVE SMOOTH",
"759 470 OFFCURVE",
"744 478 OFFCURVE",
"721 478 CURVE SMOOTH",
"687 478 OFFCURVE",
"671 468 OFFCURVE",
"671 429 CURVE SMOOTH",
"671 390 OFFCURVE",
"676 348 OFFCURVE",
"680 307 CURVE SMOOTH",
"684 270 OFFCURVE",
"688 234 OFFCURVE",
"688 204 CURVE SMOOTH",
"688 -64 OFFCURVE",
"532 -185 OFFCURVE",
"216 -185 CURVE SMOOTH",
"43 -185 OFFCURVE",
"-51 -170 OFFCURVE",
"-106 -161 CURVE SMOOTH",
"-129 -157 OFFCURVE",
"-146 -155 OFFCURVE",
"-158 -155 CURVE SMOOTH",
"-188 -155 OFFCURVE",
"-195 -176 OFFCURVE",
"-195 -196 CURVE SMOOTH",
"-195 -218 OFFCURVE",
"-188 -238 OFFCURVE",
"-159 -241 CURVE SMOOTH",
"-151 -242 OFFCURVE",
"-141 -244 OFFCURVE",
"-128 -246 CURVE SMOOTH",
"-78 -255 OFFCURVE",
"18 -269 OFFCURVE",
"214 -269 CURVE SMOOTH"
);
}
);
width = 849;
}
);
category = Letter;
},
{
glyphname = u10B82.fina;
lastChange = "2018-04-03 13:12:53 +0000";
layers = (
{
layerId = UUID0;
paths = (
{
closed = 1;
nodes = (
"277 -12 OFFCURVE",
"375 17 OFFCURVE",
"375 137 CURVE SMOOTH",
"375 142 OFFCURVE",
"375 146 OFFCURVE",
"375 150 CURVE SMOOTH",
"369 205 OFFCURVE",
"362 266 OFFCURVE",
"355 317 CURVE SMOOTH",
"347 375 OFFCURVE",
"342 423 OFFCURVE",
"341 436 CURVE SMOOTH",
"340 452 OFFCURVE",
"319 459 OFFCURVE",
"298 459 CURVE SMOOTH",
"275 459 OFFCURVE",
"253 451 OFFCURVE",
"253 436 CURVE SMOOTH",
"253 428 OFFCURVE",
"257 396 OFFCURVE",
"263 354 CURVE SMOOTH",
"272 292 OFFCURVE",
"284 209 OFFCURVE",
"287 157 CURVE",
"287 81 OFFCURVE",
"237 72 OFFCURVE",
"177 72 CURVE SMOOTH",
"143 72 OFFCURVE",
"127 74 OFFCURVE",
"104 79 CURVE SMOOTH",
"89 82 OFFCURVE",
"77 84 OFFCURVE",
"63 84 CURVE SMOOTH",
"46 84 OFFCURVE",
"39 63 OFFCURVE",
"39 42 CURVE SMOOTH",
"39 21 OFFCURVE",
"48 5 OFFCURVE",
"63 0 CURVE SMOOTH",
"78 -5 OFFCURVE",
"129 -12 OFFCURVE",
"167 -12 CURVE SMOOTH"
);
},
{
closed = 1;
nodes = (
"498 0 LINE SMOOTH",
"513 0 OFFCURVE",
"522 21 OFFCURVE",
"522 42 CURVE SMOOTH",
"522 63 OFFCURVE",
"514 84 OFFCURVE",
"498 84 CURVE SMOOTH",
"275 84 LINE",
"275 0 LINE"
);
}
);
width = 483;
}
);
category = Letter;
},
{
glyphname = u10B82.medi;
lastChange = "2018-04-03 13:12:53 +0000";
layers = (
{
layerId = UUID0;
paths = (
{
closed = 1;
nodes = (
"78 0 LINE SMOOTH",
"146 0 OFFCURVE",
"217 19 OFFCURVE",
"247 73 CURVE",
"213 77 LINE",
"246 8 OFFCURVE",
"313 0 OFFCURVE",
"387 0 CURVE SMOOTH",
"463 0 LINE SMOOTH",
"479 0 OFFCURVE",
"487 21 OFFCURVE",
"487 42 CURVE SMOOTH",
"487 63 OFFCURVE",
"479 84 OFFCURVE",
"463 84 CURVE SMOOTH",
"387 84 LINE SMOOTH",
"318 84 OFFCURVE",
"282 104 OFFCURVE",
"271 183 CURVE SMOOTH",
"261 253 OFFCURVE",
"240 407 OFFCURVE",
"238 436 CURVE SMOOTH",
"237 452 OFFCURVE",
"216 459 OFFCURVE",
"195 459 CURVE SMOOTH",
"172 459 OFFCURVE",
"150 451 OFFCURVE",
"150 436 CURVE SMOOTH",
"150 418 OFFCURVE",
"172 260 OFFCURVE",
"180 208 CURVE SMOOTH",
"185 174 OFFCURVE",
"185 156 OFFCURVE",
"185 152 CURVE SMOOTH",
"185 99 OFFCURVE",
"145 84 OFFCURVE",
"75 84 CURVE SMOOTH",
"-16 84 LINE SMOOTH",
"-32 84 OFFCURVE",
"-39 63 OFFCURVE",
"-39 42 CURVE SMOOTH",
"-39 21 OFFCURVE",
"-31 0 OFFCURVE",
"-16 0 CURVE SMOOTH"
);
}
);
width = 448;
}
);
category = Letter;
},
{
glyphname = u10B82.init;
lastChange = "2018-04-03 13:12:53 +0000";
layers = (
{
layerId = UUID0;
paths = (
{
closed = 1;
nodes = (
"73 0 LINE SMOOTH",
"178 0 OFFCURVE",
"268 29 OFFCURVE",
"268 147 CURVE SMOOTH",
"268 169 OFFCURVE",
"259 236 OFFCURVE",
"249 307 CURVE SMOOTH",
"241 364 OFFCURVE",
"234 415 OFFCURVE",
"233 436 CURVE SMOOTH",
"232 452 OFFCURVE",
"211 459 OFFCURVE",
"190 459 CURVE SMOOTH",
"156 459 OFFCURVE",
"146 450 OFFCURVE",
"146 433 CURVE SMOOTH",
"146 423 OFFCURVE",
"152 375 OFFCURVE",
"160 318 CURVE SMOOTH",
"170 244 OFFCURVE",
"180 166 OFFCURVE",
"180 156 CURVE SMOOTH",
"180 87 OFFCURVE",
"114 84 OFFCURVE",
"70 84 CURVE SMOOTH",
"-16 84 LINE SMOOTH",
"-32 84 OFFCURVE",
"-39 63 OFFCURVE",
"-39 42 CURVE SMOOTH",
"-39 21 OFFCURVE",
"-31 0 OFFCURVE",
"-16 0 CURVE SMOOTH"
);
}
);
width = 341;
}
);
category = Letter;
},
{
glyphname = u10B83.fina;
lastChange = "2018-04-03 13:12:53 +0000";
layers = (
{
layerId = UUID0;
paths = (
{
closed = 1;
nodes = (
"464 -337 OFFCURVE",
"633 -146 OFFCURVE",
"633 37 CURVE SMOOTH",
"633 67 LINE SMOOTH",
"633 208 OFFCURVE",
"568 283 OFFCURVE",
"479 283 CURVE SMOOTH",
"391 283 OFFCURVE",
"341 223 OFFCURVE",
"341 147 CURVE SMOOTH",
"341 63 OFFCURVE",
"411 4 OFFCURVE",
"545 4 CURVE",
"534 -131 OFFCURVE",
"406 -253 OFFCURVE",
"167 -253 CURVE SMOOTH",
"73 -253 OFFCURVE",
"23 -244 OFFCURVE",
"-13 -234 CURVE SMOOTH",
"-37 -227 OFFCURVE",
"-60 -222 OFFCURVE",
"-72 -222 CURVE SMOOTH",
"-90 -222 OFFCURVE",
"-98 -241 OFFCURVE",
"-98 -262 CURVE SMOOTH",
"-98 -283 OFFCURVE",
"-89 -298 OFFCURVE",
"-74 -302 CURVE SMOOTH",
"17 -327 OFFCURVE",
"68 -337 OFFCURVE",
"169 -337 CURVE SMOOTH"
);
},
{
closed = 1;
nodes = (
"447 82 OFFCURVE",
"425 115 OFFCURVE",
"425 150 CURVE SMOOTH",
"425 183 OFFCURVE",
"448 199 OFFCURVE",
"470 199 CURVE SMOOTH",
"523 199 OFFCURVE",
"545 146 OFFCURVE",
"545 82 CURVE"
);
},
{
closed = 1;
nodes = (
"722 0 LINE SMOOTH",
"737 0 OFFCURVE",
"746 21 OFFCURVE",
"746 42 CURVE SMOOTH",
"746 63 OFFCURVE",
"738 84 OFFCURVE",
"722 84 CURVE SMOOTH",
"548 84 LINE",
"548 0 LINE"
);
}
);
width = 692;
}
);
category = Letter;
},
{
glyphname = u10B84.fina;
lastChange = "2018-04-03 13:12:53 +0000";
layers = (
{
layerId = UUID0;
paths = (
{
closed = 1;
nodes = (
"535 -56 OFFCURVE",
"558 -47 OFFCURVE",
"558 -34 CURVE SMOOTH",
"558 -33 OFFCURVE",
"558 -33 OFFCURVE",
"558 -32 CURVE SMOOTH",
"511 479 LINE SMOOTH",
"510 494 OFFCURVE",
"488 503 OFFCURVE",
"465 503 CURVE SMOOTH",
"445 503 OFFCURVE",
"423 497 OFFCURVE",
"423 480 CURVE SMOOTH",
"423 479 LINE",
"443 264 LINE",
"456 286 LINE",
"416 334 OFFCURVE",
"356 363 OFFCURVE",
"277 363 CURVE SMOOTH",
"128 363 OFFCURVE",
"49 278 OFFCURVE",
"49 169 CURVE SMOOTH",
"49 73 OFFCURVE",
"111 -12 OFFCURVE",
"230 -12 CURVE SMOOTH",
"281 -12 OFFCURVE",
"325 2 OFFCURVE",
"340 11 CURVE SMOOTH",
"353 19 OFFCURVE",
"365 28 OFFCURVE",
"365 54 CURVE SMOOTH",
"365 76 OFFCURVE",
"355 91 OFFCURVE",
"339 91 CURVE SMOOTH",
"329 91 OFFCURVE",
"320 88 OFFCURVE",
"311 84 CURVE SMOOTH",
"295 77 OFFCURVE",
"276 70 OFFCURVE",
"230 70 CURVE SMOOTH",
"188 70 OFFCURVE",
"136 100 OFFCURVE",
"136 169 CURVE SMOOTH",
"136 237 OFFCURVE",
"185 279 OFFCURVE",
"271 279 CURVE SMOOTH",
"368 279 OFFCURVE",
"430 231 OFFCURVE",
"454 150 CURVE",
"470 -31 LINE SMOOTH",
"472 -49 OFFCURVE",
"492 -56 OFFCURVE",
"512 -56 CURVE SMOOTH"
);
},
{
closed = 1;
nodes = (
"647 0 LINE SMOOTH",
"662 0 OFFCURVE",
"671 21 OFFCURVE",
"671 42 CURVE SMOOTH",
"671 63 OFFCURVE",
"663 84 OFFCURVE",
"647 84 CURVE SMOOTH",
"473 84 LINE",
"473 0 LINE"
);
}
);
width = 617;
}
);
category = Letter;
},
{
glyphname = u10B85.fina;
lastChange = "2018-04-03 13:12:53 +0000";
layers = (
{
layerId = UUID0;
paths = (
{
closed = 1;
nodes = (
"303 0 LINE SMOOTH",
"318 0 OFFCURVE",
"326 21 OFFCURVE",
"326 42 CURVE SMOOTH",
"326 63 OFFCURVE",
"319 84 OFFCURVE",
"303 84 CURVE SMOOTH",
"231 84 LINE SMOOTH",
"177 84 OFFCURVE",
"169 94 OFFCURVE",
"165 154 CURVE SMOOTH",
"159 239 OFFCURVE",
"158 297 OFFCURVE",
"156 417 CURVE SMOOTH",
"156 432 OFFCURVE",
"134 439 OFFCURVE",
"111 439 CURVE SMOOTH",
"90 439 OFFCURVE",
"68 432 OFFCURVE",
"68 417 CURVE SMOOTH",
"69 324 OFFCURVE",
"73 224 OFFCURVE",
"78 131 CURVE SMOOTH",
"83 31 OFFCURVE",
"123 0 OFFCURVE",
"230 0 CURVE SMOOTH"
);
}
);
width = 287;
}
);
category = Letter;
},
{
glyphname = u10B86.fina;
lastChange = "2018-04-03 13:12:53 +0000";
layers = (
{
layerId = UUID0;
paths = (
{
closed = 1;
nodes = (
"419 0 LINE SMOOTH",
"434 0 OFFCURVE",
"442 21 OFFCURVE",
"442 42 CURVE SMOOTH",
"442 63 OFFCURVE",
"435 84 OFFCURVE",
"419 84 CURVE SMOOTH",
"338 84 LINE",
"257 105 OFFCURVE",
"154 155 OFFCURVE",
"154 260 CURVE SMOOTH",
"154 336 OFFCURVE",
"202 365 OFFCURVE",
"250 365 CURVE SMOOTH",
"271 365 OFFCURVE",
"284 363 OFFCURVE",
"296 360 CURVE SMOOTH",
"307 357 OFFCURVE",
"316 356 OFFCURVE",
"330 356 CURVE SMOOTH",
"355 356 OFFCURVE",
"369 376 OFFCURVE",
"369 398 CURVE SMOOTH",
"369 435 OFFCURVE",
"313 449 OFFCURVE",
"259 449 CURVE SMOOTH",
"146 449 OFFCURVE",
"67 375 OFFCURVE",
"67 254 CURVE SMOOTH",
"67 122 OFFCURVE",
"180 83 OFFCURVE",
"200 81 CURVE",
"190 78 OFFCURVE",
"181 78 OFFCURVE",
"171 78 CURVE SMOOTH",
"144 78 OFFCURVE",
"117 85 OFFCURVE",
"99 91 CURVE SMOOTH",
"85 96 OFFCURVE",
"75 98 OFFCURVE",
"68 98 CURVE SMOOTH",
"47 98 OFFCURVE",
"39 81 OFFCURVE",
"39 64 CURVE SMOOTH",
"39 40 OFFCURVE",
"55 28 OFFCURVE",
"66 21 CURVE SMOOTH",
"81 12 OFFCURVE",
"136 0 OFFCURVE",
"186 0 CURVE SMOOTH"
);
}
);
width = 403;
}
);
category = Letter;
},
{
glyphname = u10B86.medi;
lastChange = "2018-04-03 13:12:53 +0000";
layers = (
{
layerId = UUID0;
paths = (
{
closed = 1;
nodes = (
"395 0 LINE SMOOTH",
"410 0 OFFCURVE",
"418 21 OFFCURVE",
"418 42 CURVE SMOOTH",
"418 63 OFFCURVE",
"411 84 OFFCURVE",
"395 84 CURVE SMOOTH",
"321 84 LINE",
"261 94 OFFCURVE",
"130 145 OFFCURVE",
"130 260 CURVE SMOOTH",
"130 328 OFFCURVE",
"177 365 OFFCURVE",
"225 365 CURVE SMOOTH",
"246 365 OFFCURVE",
"258 363 OFFCURVE",
"270 360 CURVE SMOOTH",
"279 358 OFFCURVE",
"293 356 OFFCURVE",
"306 356 CURVE SMOOTH",
"331 356 OFFCURVE",
"345 376 OFFCURVE",
"345 398 CURVE SMOOTH",
"345 435 OFFCURVE",
"288 449 OFFCURVE",
"235 449 CURVE SMOOTH",
"121 449 OFFCURVE",
"43 375 OFFCURVE",
"43 254 CURVE SMOOTH",
"43 141 OFFCURVE",
"123 98 OFFCURVE",
"155 84 CURVE",
"-16 84 LINE SMOOTH",
"-32 84 OFFCURVE",
"-39 63 OFFCURVE",
"-39 42 CURVE SMOOTH",
"-39 21 OFFCURVE",
"-31 0 OFFCURVE",
"-16 0 CURVE SMOOTH"
);
}
);
width = 379;
}
);
category = Letter;
},
{
glyphname = u10B86.init;
lastChange = "2018-04-03 13:12:53 +0000";
layers = (
{
layerId = UUID0;
paths = (
{
closed = 1;
nodes = (
"167 0 LINE SMOOTH",
"302 0 OFFCURVE",
"344 22 OFFCURVE",
"344 66 CURVE SMOOTH",
"344 89 OFFCURVE",
"323 105 OFFCURVE",
"270 126 CURVE SMOOTH",
"208 150 OFFCURVE",
"130 181 OFFCURVE",
"130 260 CURVE SMOOTH",
"130 328 OFFCURVE",
"177 365 OFFCURVE",
"225 365 CURVE SMOOTH",
"246 365 OFFCURVE",
"258 363 OFFCURVE",
"270 360 CURVE SMOOTH",
"284 357 OFFCURVE",
"294 356 OFFCURVE",
"306 356 CURVE SMOOTH",
"331 356 OFFCURVE",
"345 376 OFFCURVE",
"345 398 CURVE SMOOTH",
"345 435 OFFCURVE",
"288 449 OFFCURVE",
"235 449 CURVE SMOOTH",
"121 449 OFFCURVE",
"43 375 OFFCURVE",
"43 259 CURVE SMOOTH",
"43 120 OFFCURVE",
"167 86 OFFCURVE",
"213 77 CURVE",
"230 84 LINE",
"-16 84 LINE SMOOTH",
"-32 84 OFFCURVE",
"-39 63 OFFCURVE",
"-39 42 CURVE SMOOTH",
"-39 21 OFFCURVE",
"-31 0 OFFCURVE",
"-16 0 CURVE SMOOTH"
);
}
);
width = 403;
}
);
category = Letter;
},
{
glyphname = u10B87.medi;
lastChange = "2018-04-03 13:12:53 +0000";
layers = (
{
layerId = UUID0;
paths = (
{
closed = 1;
nodes = (
"585 -41 OFFCURVE",
"658 30 OFFCURVE",
"658 199 CURVE SMOOTH",
"658 367 OFFCURVE",
"627 410 OFFCURVE",
"582 410 CURVE SMOOTH",
"516 410 OFFCURVE",
"454 322 OFFCURVE",
"454 269 CURVE SMOOTH",
"454 252 OFFCURVE",
"464 226 OFFCURVE",
"487 226 CURVE SMOOTH",
"502 226 OFFCURVE",
"516 234 OFFCURVE",
"527 242 CURVE SMOOTH",
"536 249 OFFCURVE",
"546 254 OFFCURVE",
"555 254 CURVE SMOOTH",
"563 254 OFFCURVE",
"570 250 OFFCURVE",
"570 180 CURVE SMOOTH",
"570 80 OFFCURVE",
"531 43 OFFCURVE",
"462 43 CURVE SMOOTH",
"363 43 OFFCURVE",
"345 175 OFFCURVE",
"336 243 CURVE SMOOTH",
"327 310 OFFCURVE",
"318 366 OFFCURVE",
"307 400 CURVE SMOOTH",
"299 426 OFFCURVE",
"286 439 OFFCURVE",
"263 439 CURVE SMOOTH",
"222 439 OFFCURVE",
"198 391 OFFCURVE",
"121 200 CURVE SMOOTH",
"95 136 OFFCURVE",
"65 85 OFFCURVE",
"19 84 CURVE SMOOTH",
"3 84 OFFCURVE",
"-10 63 OFFCURVE",
"-10 42 CURVE SMOOTH",
"-10 21 OFFCURVE",
"-1 0 OFFCURVE",
"14 0 CURVE SMOOTH",
"138 0 OFFCURVE",
"170 84 OFFCURVE",
"203 170 CURVE SMOOTH",
"221 216 OFFCURVE",
"240 271 OFFCURVE",
"259 331 CURVE",
"246 331 LINE",
"249 270 OFFCURVE",
"256 225 OFFCURVE",
"264 175 CURVE SMOOTH",
"279 82 OFFCURVE",
"324 -41 OFFCURVE",
"462 -41 CURVE SMOOTH"
);
},
{
closed = 1;
nodes = (
"32 0 LINE",
"32 84 LINE",
"-16 84 LINE SMOOTH",
"-32 84 OFFCURVE",
"-39 63 OFFCURVE",
"-39 42 CURVE SMOOTH",
"-39 21 OFFCURVE",
"-31 0 OFFCURVE",
"-16 0 CURVE SMOOTH"
);
},
{
closed = 1;
nodes = (
"727 0 LINE SMOOTH",
"742 0 OFFCURVE",
"751 21 OFFCURVE",
"751 42 CURVE SMOOTH",
"751 63 OFFCURVE",
"743 84 OFFCURVE",
"727 84 CURVE SMOOTH",
"553 84 LINE",
"553 0 LINE"
);
}
);
width = 712;
}
);
category = Letter;
},
{
glyphname = u10B87.fina;
lastChange = "2018-04-03 13:12:53 +0000";
layers = (
{
layerId = UUID0;
paths = (
{
closed = 1;
nodes = (
"619 -41 OFFCURVE",
"692 30 OFFCURVE",
"692 199 CURVE SMOOTH",
"692 367 OFFCURVE",
"661 410 OFFCURVE",
"616 410 CURVE SMOOTH",
"550 410 OFFCURVE",
"488 322 OFFCURVE",
"488 269 CURVE SMOOTH",
"488 252 OFFCURVE",
"498 226 OFFCURVE",
"521 226 CURVE SMOOTH",
"536 226 OFFCURVE",
"550 234 OFFCURVE",
"561 242 CURVE SMOOTH",
"570 249 OFFCURVE",
"580 254 OFFCURVE",
"589 254 CURVE SMOOTH",
"597 254 OFFCURVE",
"604 250 OFFCURVE",
"604 180 CURVE SMOOTH",
"604 80 OFFCURVE",
"565 43 OFFCURVE",
"496 43 CURVE SMOOTH",
"397 43 OFFCURVE",
"379 175 OFFCURVE",
"370 243 CURVE SMOOTH",
"361 310 OFFCURVE",
"352 366 OFFCURVE",
"341 400 CURVE SMOOTH",
"333 426 OFFCURVE",
"320 439 OFFCURVE",
"297 439 CURVE SMOOTH",
"256 439 OFFCURVE",
"232 391 OFFCURVE",
"155 200 CURVE SMOOTH",
"129 136 OFFCURVE",
"99 85 OFFCURVE",
"53 84 CURVE SMOOTH",
"37 84 OFFCURVE",
"24 63 OFFCURVE",
"24 42 CURVE SMOOTH",
"24 21 OFFCURVE",
"33 0 OFFCURVE",
"48 0 CURVE SMOOTH",
"172 0 OFFCURVE",
"204 84 OFFCURVE",
"237 170 CURVE SMOOTH",
"255 216 OFFCURVE",
"274 271 OFFCURVE",
"293 331 CURVE",
"280 331 LINE",
"283 270 OFFCURVE",
"290 225 OFFCURVE",
"298 175 CURVE SMOOTH",
"313 82 OFFCURVE",
"358 -41 OFFCURVE",
"496 -41 CURVE SMOOTH"
);
},
{
closed = 1;
nodes = (
"761 0 LINE SMOOTH",
"776 0 OFFCURVE",
"785 21 OFFCURVE",
"785 42 CURVE SMOOTH",
"785 63 OFFCURVE",
"777 84 OFFCURVE",
"761 84 CURVE SMOOTH",
"587 84 LINE",
"587 0 LINE"
);
}
);
width = 746;
}
);
category = Letter;
},
{
glyphname = u10B87.init;
lastChange = "2018-04-03 13:12:53 +0000";
layers = (
{
layerId = UUID0;
paths = (
{
closed = 1;
nodes = (
"585 -41 OFFCURVE",
"658 30 OFFCURVE",
"658 199 CURVE SMOOTH",
"658 367 OFFCURVE",
"627 410 OFFCURVE",
"582 410 CURVE SMOOTH",
"516 410 OFFCURVE",
"454 322 OFFCURVE",
"454 269 CURVE SMOOTH",
"454 252 OFFCURVE",
"464 226 OFFCURVE",
"487 226 CURVE SMOOTH",
"502 226 OFFCURVE",
"516 234 OFFCURVE",
"527 242 CURVE SMOOTH",
"536 249 OFFCURVE",
"546 254 OFFCURVE",
"555 254 CURVE SMOOTH",
"563 254 OFFCURVE",
"570 250 OFFCURVE",
"570 180 CURVE SMOOTH",
"570 80 OFFCURVE",
"531 43 OFFCURVE",
"462 43 CURVE SMOOTH",
"363 43 OFFCURVE",
"345 175 OFFCURVE",
"336 243 CURVE SMOOTH",
"327 310 OFFCURVE",
"318 366 OFFCURVE",
"307 400 CURVE SMOOTH",
"299 426 OFFCURVE",
"286 439 OFFCURVE",
"263 439 CURVE SMOOTH",
"222 439 OFFCURVE",
"198 391 OFFCURVE",
"121 200 CURVE SMOOTH",
"95 136 OFFCURVE",
"65 85 OFFCURVE",
"19 84 CURVE SMOOTH",
"3 84 OFFCURVE",
"-10 63 OFFCURVE",
"-10 42 CURVE SMOOTH",
"-10 21 OFFCURVE",
"-1 0 OFFCURVE",
"14 0 CURVE SMOOTH",
"138 0 OFFCURVE",
"170 84 OFFCURVE",
"203 170 CURVE SMOOTH",
"221 216 OFFCURVE",
"240 271 OFFCURVE",
"259 331 CURVE",
"246 331 LINE",
"249 270 OFFCURVE",
"256 225 OFFCURVE",
"264 175 CURVE SMOOTH",
"279 82 OFFCURVE",
"324 -41 OFFCURVE",
"462 -41 CURVE SMOOTH"
);
},
{
closed = 1;
nodes = (
"32 0 LINE",
"32 84 LINE",
"-16 84 LINE SMOOTH",
"-32 84 OFFCURVE",
"-39 63 OFFCURVE",
"-39 42 CURVE SMOOTH",
"-39 21 OFFCURVE",
"-31 0 OFFCURVE",
"-16 0 CURVE SMOOTH"
);
}
);
width = 717;
}
);
category = Letter;
},
{
glyphname = u10B88.fina;
lastChange = "2018-04-03 13:12:53 +0000";
layers = (
{
layerId = UUID0;
paths = (
{
closed = 1;
nodes = (
"129 0 OFFCURVE",
"145 12 OFFCURVE",
"146 23 CURVE SMOOTH",
"160 197 LINE SMOOTH",
"166 271 OFFCURVE",
"184 352 OFFCURVE",
"281 352 CURVE SMOOTH",
"374 352 OFFCURVE",
"393 271 OFFCURVE",
"399 197 CURVE SMOOTH",
"413 23 LINE SMOOTH",
"414 11 OFFCURVE",
"424 0 OFFCURVE",
"436 0 CURVE SMOOTH",
"552 0 LINE SMOOTH",
"567 0 OFFCURVE",
"575 21 OFFCURVE",
"575 42 CURVE SMOOTH",
"575 63 OFFCURVE",
"568 84 OFFCURVE",
"552 84 CURVE SMOOTH",
"495 84 LINE",
"486 198 LINE SMOOTH",
"475 340 OFFCURVE",
"421 439 OFFCURVE",
"282 439 CURVE SMOOTH",
"156 439 OFFCURVE",
"84 340 OFFCURVE",
"72 193 CURVE SMOOTH",
"61 58 OFFCURVE",
"59 24 OFFCURVE",
"59 22 CURVE SMOOTH",
"59 9 OFFCURVE",
"76 0 OFFCURVE",
"102 0 CURVE SMOOTH"
);
}
);
width = 536;
}
);
category = Letter;
},
{
glyphname = u10B88.medi;
lastChange = "2018-04-03 13:12:53 +0000";
layers = (
{
layerId = UUID0;
paths = (
{
closed = 1;
nodes = (
"172 0 LINE SMOOTH",
"300 0 OFFCURVE",
"392 91 OFFCURVE",
"392 216 CURVE SMOOTH",
"392 330 OFFCURVE",
"317 422 OFFCURVE",
"197 422 CURVE SMOOTH",
"135 422 OFFCURVE",
"55 397 OFFCURVE",
"55 361 CURVE SMOOTH",
"55 338 OFFCURVE",
"69 318 OFFCURVE",
"94 318 CURVE SMOOTH",
"98 318 OFFCURVE",
"108 320 OFFCURVE",
"118 324 CURVE SMOOTH",
"134 330 OFFCURVE",
"164 338 OFFCURVE",
"198 338 CURVE SMOOTH",
"256 338 OFFCURVE",
"304 293 OFFCURVE",
"304 219 CURVE SMOOTH",
"304 125 OFFCURVE",
"244 84 OFFCURVE",
"153 84 CURVE SMOOTH",
"-11 84 LINE SMOOTH",
"-27 84 OFFCURVE",
"-39 63 OFFCURVE",
"-39 42 CURVE SMOOTH",
"-39 21 OFFCURVE",
"-31 0 OFFCURVE",
"-16 0 CURVE"
);
},
{
closed = 1;
nodes = (
"331 0 LINE",
"331 84 LINE",
"160 84 LINE",
"160 0 LINE"
);
},
{
closed = 1;
nodes = (
"437 0 LINE SMOOTH",
"452 0 OFFCURVE",
"461 21 OFFCURVE",
"461 42 CURVE SMOOTH",
"461 63 OFFCURVE",
"453 84 OFFCURVE",
"437 84 CURVE SMOOTH",
"263 84 LINE",
"263 0 LINE"
);
}
);
width = 421;
}
);
category = Letter;
},
{
glyphname = u10B88.init;
lastChange = "2018-04-03 13:12:53 +0000";
layers = (
{
layerId = UUID0;
paths = (
{
closed = 1;
nodes = (
"172 0 LINE SMOOTH",
"300 0 OFFCURVE",
"392 91 OFFCURVE",
"392 216 CURVE SMOOTH",
"392 330 OFFCURVE",
"317 422 OFFCURVE",
"197 422 CURVE SMOOTH",
"135 422 OFFCURVE",
"55 397 OFFCURVE",
"55 361 CURVE SMOOTH",
"55 338 OFFCURVE",
"69 318 OFFCURVE",
"94 318 CURVE SMOOTH",
"98 318 OFFCURVE",
"108 320 OFFCURVE",
"118 324 CURVE SMOOTH",
"134 330 OFFCURVE",
"164 338 OFFCURVE",
"198 338 CURVE SMOOTH",
"256 338 OFFCURVE",
"304 293 OFFCURVE",
"304 219 CURVE SMOOTH",
"304 125 OFFCURVE",
"244 84 OFFCURVE",
"153 84 CURVE SMOOTH",
"-11 84 LINE SMOOTH",
"-27 84 OFFCURVE",
"-39 63 OFFCURVE",
"-39 42 CURVE SMOOTH",
"-39 21 OFFCURVE",
"-31 0 OFFCURVE",
"-16 0 CURVE"
);
}
);
width = 441;
}
);
category = Letter;
},
{
glyphname = uni0640;
lastChange = "2018-04-03 13:12:53 +0000";
layers = (
{
layerId = UUID0;
paths = (
{
closed = 1;
nodes = (
"306 0 LINE SMOOTH",
"321 0 OFFCURVE",
"330 21 OFFCURVE",
"330 42 CURVE SMOOTH",
"330 63 OFFCURVE",
"322 84 OFFCURVE",
"306 84 CURVE SMOOTH",
"-16 84 LINE SMOOTH",
"-32 84 OFFCURVE",
"-39 63 OFFCURVE",
"-39 42 CURVE SMOOTH",
"-39 21 OFFCURVE",
"-31 0 OFFCURVE",
"-16 0 CURVE SMOOTH"
);
}
);
width = 291;
}
);
unicode = 0640;
category = Letter;
},
{
glyphname = u10B89.fina;
lastChange = "2018-04-03 13:12:53 +0000";
layers = (
{
layerId = UUID0;
paths = (
{
closed = 1;
nodes = (
"517 -337 OFFCURVE",
"607 -331 OFFCURVE",
"713 -324 CURVE SMOOTH",
"799 -318 OFFCURVE",
"879 -313 OFFCURVE",
"972 -313 CURVE SMOOTH",
"987 -313 OFFCURVE",
"995 -292 OFFCURVE",
"995 -271 CURVE SMOOTH",
"995 -250 OFFCURVE",
"988 -235 OFFCURVE",
"972 -234 CURVE SMOOTH",
"946 -232 OFFCURVE",
"917 -231 OFFCURVE",
"886 -231 CURVE SMOOTH",
"812 -231 OFFCURVE",
"741 -236 OFFCURVE",
"667 -242 CURVE SMOOTH",
"588 -248 OFFCURVE",
"504 -253 OFFCURVE",
"407 -253 CURVE SMOOTH",
"292 -253 OFFCURVE",
"170 -250 OFFCURVE",
"170 -190 CURVE SMOOTH",
"170 -148 OFFCURVE",
"196 -118 OFFCURVE",
"226 -84 CURVE SMOOTH",
"263 -42 OFFCURVE",
"303 9 OFFCURVE",
"303 91 CURVE SMOOTH",
"303 175 OFFCURVE",
"285 278 OFFCURVE",
"222 278 CURVE SMOOTH",
"155 278 OFFCURVE",
"24 118 OFFCURVE",
"24 60 CURVE SMOOTH",
"24 19 OFFCURVE",
"52 -5 OFFCURVE",
"93 -5 CURVE SMOOTH",
"140 -5 OFFCURVE",
"177 0 OFFCURVE",
"196 3 CURVE",
"196 -7 OFFCURVE",
"183 -21 OFFCURVE",
"165 -39 CURVE SMOOTH",
"129 -75 OFFCURVE",
"79 -127 OFFCURVE",
"79 -202 CURVE SMOOTH",
"79 -336 OFFCURVE",
"252 -337 OFFCURVE",
"384 -337 CURVE SMOOTH"
);
},
{
closed = 1;
nodes = (
"135 79 OFFCURVE",
"133 90 OFFCURVE",
"133 97 CURVE SMOOTH",
"133 120 OFFCURVE",
"178 167 OFFCURVE",
"191 167 CURVE SMOOTH",
"203 167 OFFCURVE",
"211 154 OFFCURVE",
"211 114 CURVE SMOOTH",
"211 107 OFFCURVE",
"211 104 OFFCURVE",
"210 85 CURVE",
"187 80 OFFCURVE",
"161 79 OFFCURVE",
"148 79 CURVE SMOOTH"
);
},
{
closed = 1;
nodes = (
"382 0 LINE SMOOTH",
"397 0 OFFCURVE",
"406 21 OFFCURVE",
"406 42 CURVE SMOOTH",
"406 63 OFFCURVE",
"398 84 OFFCURVE",
"382 84 CURVE SMOOTH",
"208 84 LINE",
"208 0 LINE"
);
}
);
width = 366;
}
);
category = Letter;
},
{
glyphname = u10B8A.fina;
lastChange = "2018-04-03 13:12:53 +0000";
layers = (
{
layerId = UUID0;
paths = (
{
closed = 1;
nodes = (
"376 -12 OFFCURVE",
"500 31 OFFCURVE",
"500 187 CURVE SMOOTH",
"500 271 OFFCURVE",
"438 342 OFFCURVE",
"319 342 CURVE SMOOTH",
"281 342 OFFCURVE",
"249 334 OFFCURVE",
"228 328 CURVE",
"230 393 OFFCURVE",
"241 485 OFFCURVE",
"249 543 CURVE SMOOTH",
"253 572 OFFCURVE",
"255 593 OFFCURVE",
"255 602 CURVE SMOOTH",
"255 618 OFFCURVE",
"234 625 OFFCURVE",
"212 625 CURVE SMOOTH",
"190 625 OFFCURVE",
"169 617 OFFCURVE",
"167 602 CURVE SMOOTH",
"161 564 OFFCURVE",
"144 404 OFFCURVE",
"144 300 CURVE SMOOTH",
"144 275 OFFCURVE",
"147 243 OFFCURVE",
"172 243 CURVE SMOOTH",
"179 243 OFFCURVE",
"190 245 OFFCURVE",
"204 250 CURVE SMOOTH",
"219 255 OFFCURVE",
"245 261 OFFCURVE",
"288 261 CURVE SMOOTH",
"331 261 OFFCURVE",
"411 250 OFFCURVE",
"411 183 CURVE SMOOTH",
"411 92 OFFCURVE",
"354 72 OFFCURVE",
"213 72 CURVE SMOOTH",
"161 72 OFFCURVE",
"94 83 OFFCURVE",
"64 88 CURVE SMOOTH",
"41 92 OFFCURVE",
"29 94 OFFCURVE",
"23 94 CURVE SMOOTH",
"7 94 OFFCURVE",
"0 73 OFFCURVE",
"0 52 CURVE SMOOTH",
"0 31 OFFCURVE",
"9 14 OFFCURVE",
"23 10 CURVE SMOOTH",
"35 7 OFFCURVE",
"128 -12 OFFCURVE",
"216 -12 CURVE SMOOTH"
);
},
{
closed = 1;
nodes = (
"564 0 LINE SMOOTH",
"579 0 OFFCURVE",
"588 21 OFFCURVE",
"588 42 CURVE SMOOTH",
"588 63 OFFCURVE",
"580 84 OFFCURVE",
"564 84 CURVE SMOOTH",
"341 84 LINE",
"341 0 LINE"
);
}
);
width = 544;
}
);
category = Letter;
},
{
glyphname = u10B8A.medi;
lastChange = "2018-04-03 13:12:53 +0000";
layers = (
{
layerId = UUID0;
paths = (
{
closed = 1;
nodes = (
"21 0 LINE SMOOTH",
"87 0 OFFCURVE",
"147 13 OFFCURVE",
"185 47 CURVE",
"223 13 OFFCURVE",
"282 0 OFFCURVE",
"339 0 CURVE SMOOTH",
"385 0 LINE SMOOTH",
"400 0 OFFCURVE",
"409 21 OFFCURVE",
"409 42 CURVE SMOOTH",
"409 63 OFFCURVE",
"401 84 OFFCURVE",
"385 84 CURVE SMOOTH",
"336 84 LINE SMOOTH",
"252 84 OFFCURVE",
"223 118 OFFCURVE",
"221 196 CURVE SMOOTH",
"220 236 OFFCURVE",
"219 286 OFFCURVE",
"219 355 CURVE SMOOTH",
"219 415 OFFCURVE",
"224 500 OFFCURVE",
"228 561 CURVE SMOOTH",
"229 582 OFFCURVE",
"230 592 OFFCURVE",
"230 602 CURVE SMOOTH",
"230 617 OFFCURVE",
"208 625 OFFCURVE",
"187 625 CURVE SMOOTH",
"165 625 OFFCURVE",
"146 617 OFFCURVE",
"142 602 CURVE SMOOTH",
"133 568 OFFCURVE",
"129 479 OFFCURVE",
"129 362 CURVE SMOOTH",
"129 321 OFFCURVE",
"129 265 OFFCURVE",
"132 220 CURVE SMOOTH",
"134 191 OFFCURVE",
"134 168 OFFCURVE",
"134 157 CURVE SMOOTH",
"134 98 OFFCURVE",
"77 84 OFFCURVE",
"31 84 CURVE SMOOTH",
"-16 84 LINE SMOOTH",
"-32 84 OFFCURVE",
"-39 63 OFFCURVE",
"-39 42 CURVE SMOOTH",
"-39 21 OFFCURVE",
"-31 0 OFFCURVE",
"-16 0 CURVE SMOOTH"
);
}
);
width = 370;
}
);
category = Letter;
},
{
glyphname = u10B8A.init;
lastChange = "2018-04-03 13:12:53 +0000";
layers = (
{
layerId = UUID0;
paths = (
{
closed = 1;
nodes = (
"43 0 LINE SMOOTH",
"150 0 OFFCURVE",
"247 31 OFFCURVE",
"247 157 CURVE SMOOTH",
"247 201 OFFCURVE",
"246 244 OFFCURVE",
"244 287 CURVE SMOOTH",
"242 329 OFFCURVE",
"242 371 OFFCURVE",
"242 412 CURVE SMOOTH",
"242 476 OFFCURVE",
"245 539 OFFCURVE",
"252 602 CURVE",
"252 618 OFFCURVE",
"231 625 OFFCURVE",
"209 625 CURVE SMOOTH",
"187 625 OFFCURVE",
"167 617 OFFCURVE",
"165 602 CURVE SMOOTH",
"156 537 OFFCURVE",
"154 472 OFFCURVE",
"154 406 CURVE SMOOTH",
"154 383 OFFCURVE",
"154 349 OFFCURVE",
"156 313 CURVE SMOOTH",
"158 267 OFFCURVE",
"159 225 OFFCURVE",
"159 187 CURVE SMOOTH",
"159 101 OFFCURVE",
"103 84 OFFCURVE",
"50 84 CURVE SMOOTH",
"-16 84 LINE SMOOTH",
"-32 84 OFFCURVE",
"-39 63 OFFCURVE",
"-39 42 CURVE SMOOTH",
"-39 21 OFFCURVE",
"-31 0 OFFCURVE",
"-16 0 CURVE SMOOTH"
);
}
);
width = 343;
}
);
category = Letter;
},
{
glyphname = u10B8B.fina;
lastChange = "2018-04-03 13:12:53 +0000";
layers = (
{
layerId = UUID0;
paths = (
{
closed = 1;
nodes = (
"268 -279 OFFCURVE",
"305 -256 OFFCURVE",
"357 -204 CURVE SMOOTH",
"442 -118 LINE SMOOTH",
"486 -74 OFFCURVE",
"515 -31 OFFCURVE",
"515 8 CURVE SMOOTH",
"515 83 OFFCURVE",
"413 84 OFFCURVE",
"388 84 CURVE SMOOTH",
"190 84 LINE",
"191 254 OFFCURVE",
"205 425 OFFCURVE",
"214 523 CURVE SMOOTH",
"218 563 OFFCURVE",
"220 591 OFFCURVE",
"220 602 CURVE SMOOTH",
"220 618 OFFCURVE",
"198 625 OFFCURVE",
"177 625 CURVE SMOOTH",
"154 625 OFFCURVE",
"135 617 OFFCURVE",
"132 602 CURVE SMOOTH",
"125 572 OFFCURVE",
"104 260 OFFCURVE",
"103 84 CURVE",
"61 84 LINE SMOOTH",
"37 84 OFFCURVE",
"24 63 OFFCURVE",
"24 42 CURVE SMOOTH",
"24 2 OFFCURVE",
"46 0 OFFCURVE",
"61 0 CURVE SMOOTH",
"105 0 LINE",
"115 -107 OFFCURVE",
"147 -279 OFFCURVE",
"233 -279 CURVE SMOOTH"
);
},
{
closed = 1;
nodes = (
"220 -189 OFFCURVE",
"200 -89 OFFCURVE",
"193 0 CURVE",
"348 0 LINE SMOOTH",
"393 0 OFFCURVE",
"419 -3 OFFCURVE",
"419 -18 CURVE SMOOTH",
"419 -38 OFFCURVE",
"389 -69 OFFCURVE",
"367 -91 CURVE SMOOTH",
"309 -148 LINE SMOOTH",
"289 -167 OFFCURVE",
"264 -189 OFFCURVE",
"249 -189 CURVE SMOOTH"
);
},
{
closed = 1;
nodes = (
"545 0 LINE SMOOTH",
"560 0 OFFCURVE",
"569 21 OFFCURVE",
"569 42 CURVE SMOOTH",
"569 63 OFFCURVE",
"561 84 OFFCURVE",
"545 84 CURVE SMOOTH",
"371 84 LINE",
"371 0 LINE"
);
}
);
width = 530;
}
);
category = Letter;
},
{
glyphname = u10B8B.medi;
lastChange = "2018-04-03 13:12:53 +0000";
layers = (
{
layerId = UUID0;
paths = (
{
closed = 1;
nodes = (
"268 -279 OFFCURVE",
"305 -256 OFFCURVE",
"357 -204 CURVE SMOOTH",
"442 -118 LINE SMOOTH",
"486 -74 OFFCURVE",
"515 -31 OFFCURVE",
"515 8 CURVE SMOOTH",
"515 83 OFFCURVE",
"413 84 OFFCURVE",
"388 84 CURVE SMOOTH",
"190 84 LINE",
"191 254 OFFCURVE",
"205 425 OFFCURVE",
"214 523 CURVE SMOOTH",
"218 563 OFFCURVE",
"220 591 OFFCURVE",
"220 602 CURVE SMOOTH",
"220 618 OFFCURVE",
"198 625 OFFCURVE",
"177 625 CURVE SMOOTH",
"154 625 OFFCURVE",
"135 617 OFFCURVE",
"132 602 CURVE SMOOTH",
"125 572 OFFCURVE",
"104 260 OFFCURVE",
"103 84 CURVE",
"61 84 LINE SMOOTH",
"37 84 OFFCURVE",
"24 63 OFFCURVE",
"24 42 CURVE SMOOTH",
"24 2 OFFCURVE",
"46 0 OFFCURVE",
"61 0 CURVE SMOOTH",
"105 0 LINE",
"115 -107 OFFCURVE",
"147 -279 OFFCURVE",
"233 -279 CURVE SMOOTH"
);
},
{
closed = 1;
nodes = (
"220 -189 OFFCURVE",
"200 -89 OFFCURVE",
"193 0 CURVE",
"348 0 LINE SMOOTH",
"393 0 OFFCURVE",
"419 -3 OFFCURVE",
"419 -18 CURVE SMOOTH",
"419 -38 OFFCURVE",
"389 -69 OFFCURVE",
"367 -91 CURVE SMOOTH",
"309 -148 LINE SMOOTH",
"289 -167 OFFCURVE",
"264 -189 OFFCURVE",
"249 -189 CURVE SMOOTH"
);
},
{
closed = 1;
nodes = (
"56 0 LINE",
"56 84 LINE",
"-16 84 LINE SMOOTH",
"-32 84 OFFCURVE",
"-39 63 OFFCURVE",
"-39 42 CURVE SMOOTH",
"-39 21 OFFCURVE",
"-31 0 OFFCURVE",
"-16 0 CURVE SMOOTH"
);
},
{
closed = 1;
nodes = (
"545 0 LINE SMOOTH",
"560 0 OFFCURVE",
"569 21 OFFCURVE",
"569 42 CURVE SMOOTH",
"569 63 OFFCURVE",
"561 84 OFFCURVE",
"545 84 CURVE SMOOTH",
"371 84 LINE",
"371 0 LINE"
);
}
);
width = 530;
}
);
category = Letter;
},
{
glyphname = u10B8B.init;
lastChange = "2018-04-03 13:12:53 +0000";
layers = (
{
layerId = UUID0;
paths = (
{
closed = 1;
nodes = (
"268 -279 OFFCURVE",
"305 -256 OFFCURVE",
"357 -204 CURVE SMOOTH",
"442 -118 LINE SMOOTH",
"486 -74 OFFCURVE",
"515 -31 OFFCURVE",
"515 8 CURVE SMOOTH",
"515 83 OFFCURVE",
"413 84 OFFCURVE",
"388 84 CURVE SMOOTH",
"190 84 LINE",
"191 254 OFFCURVE",
"205 425 OFFCURVE",
"214 523 CURVE SMOOTH",
"218 563 OFFCURVE",
"220 591 OFFCURVE",
"220 602 CURVE SMOOTH",
"220 618 OFFCURVE",
"198 625 OFFCURVE",
"177 625 CURVE SMOOTH",
"154 625 OFFCURVE",
"135 617 OFFCURVE",
"132 602 CURVE SMOOTH",
"125 572 OFFCURVE",
"104 260 OFFCURVE",
"103 84 CURVE",
"61 84 LINE SMOOTH",
"37 84 OFFCURVE",
"24 63 OFFCURVE",
"24 42 CURVE SMOOTH",
"24 2 OFFCURVE",
"46 0 OFFCURVE",
"61 0 CURVE SMOOTH",
"105 0 LINE",
"115 -107 OFFCURVE",
"147 -279 OFFCURVE",
"233 -279 CURVE SMOOTH"
);
},
{
closed = 1;
nodes = (
"220 -189 OFFCURVE",
"200 -89 OFFCURVE",
"193 0 CURVE",
"348 0 LINE SMOOTH",
"393 0 OFFCURVE",
"419 -3 OFFCURVE",
"419 -18 CURVE SMOOTH",
"419 -38 OFFCURVE",
"389 -69 OFFCURVE",
"367 -91 CURVE SMOOTH",
"309 -148 LINE SMOOTH",
"289 -167 OFFCURVE",
"264 -189 OFFCURVE",
"249 -189 CURVE SMOOTH"
);
},
{
closed = 1;
nodes = (
"56 0 LINE",
"56 84 LINE",
"-16 84 LINE SMOOTH",
"-32 84 OFFCURVE",
"-39 63 OFFCURVE",
"-39 42 CURVE SMOOTH",
"-39 21 OFFCURVE",
"-31 0 OFFCURVE",
"-16 0 CURVE SMOOTH"
);
}
);
width = 564;
}
);
category = Letter;
},
{
glyphname = u10B8C.fina;
lastChange = "2018-04-03 13:12:53 +0000";
layers = (
{
layerId = UUID0;
paths = (
{
closed = 1;
nodes = (
"485 -269 OFFCURVE",
"605 -243 OFFCURVE",
"630 -236 CURVE SMOOTH",
"645 -232 OFFCURVE",
"653 -218 OFFCURVE",
"653 -197 CURVE SMOOTH",
"653 -176 OFFCURVE",
"642 -160 OFFCURVE",
"617 -160 CURVE SMOOTH",
"602 -160 OFFCURVE",
"577 -162 OFFCURVE",
"544 -168 CURVE SMOOTH",
"495 -177 OFFCURVE",
"432 -185 OFFCURVE",
"377 -185 CURVE SMOOTH",
"249 -185 OFFCURVE",
"161 -160 OFFCURVE",
"161 -70 CURVE SMOOTH",
"161 59 OFFCURVE",
"165 189 OFFCURVE",
"172 318 CURVE",
"172 319 LINE",
"172 335 OFFCURVE",
"150 341 OFFCURVE",
"131 341 CURVE SMOOTH",
"107 341 OFFCURVE",
"85 332 OFFCURVE",
"84 318 CURVE SMOOTH",
"75 193 OFFCURVE",
"73 63 OFFCURVE",
"73 -76 CURVE",
"73 -207 OFFCURVE",
"154 -269 OFFCURVE",
"371 -269 CURVE SMOOTH"
);
},
{
closed = 1;
nodes = (
"341 0 LINE SMOOTH",
"356 0 OFFCURVE",
"365 21 OFFCURVE",
"365 42 CURVE SMOOTH",
"365 63 OFFCURVE",
"357 84 OFFCURVE",
"341 84 CURVE SMOOTH",
"118 84 LINE",
"118 0 LINE"
);
}
);
width = 324;
}
);
category = Letter;
},
{
glyphname = u10B8D.fina;
lastChange = "2018-04-03 13:12:53 +0000";
layers = (
{
layerId = UUID0;
paths = (
{
closed = 1;
nodes = (
"671 -12 OFFCURVE",
"737 77 OFFCURVE",
"737 192 CURVE SMOOTH",
"737 313 OFFCURVE",
"663 398 OFFCURVE",
"533 398 CURVE SMOOTH",
"479 398 OFFCURVE",
"447 383 OFFCURVE",
"447 347 CURVE SMOOTH",
"447 325 OFFCURVE",
"461 305 OFFCURVE",
"486 305 CURVE SMOOTH",
"504 305 OFFCURVE",
"514 307 OFFCURVE",
"523 310 CURVE SMOOTH",
"530 313 OFFCURVE",
"535 314 OFFCURVE",
"542 314 CURVE SMOOTH",
"611 314 OFFCURVE",
"649 267 OFFCURVE",
"649 199 CURVE SMOOTH",
"649 121 OFFCURVE",
"615 73 OFFCURVE",
"531 73 CURVE SMOOTH",
"457 73 OFFCURVE",
"400 104 OFFCURVE",
"371 218 CURVE",
"361 332 OFFCURVE",
"288 398 OFFCURVE",
"168 398 CURVE SMOOTH",
"115 398 OFFCURVE",
"83 383 OFFCURVE",
"83 347 CURVE SMOOTH",
"83 325 OFFCURVE",
"97 305 OFFCURVE",
"122 305 CURVE SMOOTH",
"141 305 OFFCURVE",
"151 308 OFFCURVE",
"160 311 CURVE SMOOTH",
"167 313 OFFCURVE",
"171 314 OFFCURVE",
"181 314 CURVE SMOOTH",
"237 314 OFFCURVE",
"285 284 OFFCURVE",
"285 202 CURVE SMOOTH",
"285 117 OFFCURVE",
"204 99 OFFCURVE",
"146 91 CURVE SMOOTH",
"124 88 OFFCURVE",
"84 85 OFFCURVE",
"53 84 CURVE SMOOTH",
"37 83 OFFCURVE",
"24 63 OFFCURVE",
"24 42 CURVE SMOOTH",
"24 21 OFFCURVE",
"33 0 OFFCURVE",
"48 0 CURVE SMOOTH",
"76 0 OFFCURVE",
"110 3 OFFCURVE",
"166 9 CURVE SMOOTH",
"242 17 OFFCURVE",
"298 43 OFFCURVE",
"333 82 CURVE",
"362 32 OFFCURVE",
"421 -12 OFFCURVE",
"524 -12 CURVE SMOOTH"
);
},
{
closed = 1;
nodes = (
"781 0 LINE SMOOTH",
"796 0 OFFCURVE",
"805 21 OFFCURVE",
"805 42 CURVE SMOOTH",
"805 63 OFFCURVE",
"797 84 OFFCURVE",
"781 84 CURVE SMOOTH",
"607 84 LINE",
"607 0 LINE"
);
}
);
width = 766;
}
);
category = Letter;
},
{
glyphname = u10B8D.medi;
lastChange = "2018-04-03 13:12:53 +0000";
layers = (
{
layerId = UUID0;
paths = (
{
closed = 1;
nodes = (
"632 -12 OFFCURVE",
"698 77 OFFCURVE",
"698 192 CURVE SMOOTH",
"698 313 OFFCURVE",
"624 398 OFFCURVE",
"494 398 CURVE SMOOTH",
"440 398 OFFCURVE",
"408 383 OFFCURVE",
"408 347 CURVE SMOOTH",
"408 325 OFFCURVE",
"422 305 OFFCURVE",
"447 305 CURVE SMOOTH",
"465 305 OFFCURVE",
"475 307 OFFCURVE",
"484 310 CURVE SMOOTH",
"491 313 OFFCURVE",
"496 314 OFFCURVE",
"503 314 CURVE SMOOTH",
"572 314 OFFCURVE",
"610 267 OFFCURVE",
"610 199 CURVE SMOOTH",
"610 121 OFFCURVE",
"576 73 OFFCURVE",
"492 73 CURVE SMOOTH",
"418 73 OFFCURVE",
"361 104 OFFCURVE",
"332 218 CURVE",
"322 332 OFFCURVE",
"249 398 OFFCURVE",
"129 398 CURVE SMOOTH",
"76 398 OFFCURVE",
"44 383 OFFCURVE",
"44 347 CURVE SMOOTH",
"44 325 OFFCURVE",
"58 305 OFFCURVE",
"83 305 CURVE SMOOTH",
"102 305 OFFCURVE",
"112 308 OFFCURVE",
"121 311 CURVE SMOOTH",
"128 313 OFFCURVE",
"132 314 OFFCURVE",
"142 314 CURVE SMOOTH",
"198 314 OFFCURVE",
"246 284 OFFCURVE",
"246 202 CURVE SMOOTH",
"246 117 OFFCURVE",
"165 99 OFFCURVE",
"107 91 CURVE SMOOTH",
"85 88 OFFCURVE",
"45 85 OFFCURVE",
"14 84 CURVE SMOOTH",
"-2 83 OFFCURVE",
"-15 63 OFFCURVE",
"-15 42 CURVE SMOOTH",
"-15 21 OFFCURVE",
"-6 0 OFFCURVE",
"9 0 CURVE SMOOTH",
"37 0 OFFCURVE",
"71 3 OFFCURVE",
"127 9 CURVE SMOOTH",
"203 17 OFFCURVE",
"259 43 OFFCURVE",
"294 82 CURVE",
"323 32 OFFCURVE",
"382 -12 OFFCURVE",
"485 -12 CURVE SMOOTH"
);
},
{
closed = 1;
nodes = (
"32 0 LINE",
"32 84 LINE",
"-16 84 LINE SMOOTH",
"-32 84 OFFCURVE",
"-39 63 OFFCURVE",
"-39 42 CURVE SMOOTH",
"-39 21 OFFCURVE",
"-31 0 OFFCURVE",
"-16 0 CURVE SMOOTH"
);
},
{
closed = 1;
nodes = (
"742 0 LINE SMOOTH",
"757 0 OFFCURVE",
"766 21 OFFCURVE",
"766 42 CURVE SMOOTH",
"766 63 OFFCURVE",
"758 84 OFFCURVE",
"742 84 CURVE SMOOTH",
"568 84 LINE",
"568 0 LINE"
);
}
);
width = 727;
}
);
category = Letter;
},
{
glyphname = u10B8D.init;
lastChange = "2018-04-03 13:12:53 +0000";
layers = (
{
layerId = UUID0;
paths = (
{
closed = 1;
nodes = (
"632 -12 OFFCURVE",
"698 77 OFFCURVE",
"698 192 CURVE SMOOTH",
"698 313 OFFCURVE",
"624 398 OFFCURVE",
"494 398 CURVE SMOOTH",
"440 398 OFFCURVE",
"408 383 OFFCURVE",
"408 347 CURVE SMOOTH",
"408 325 OFFCURVE",
"422 305 OFFCURVE",
"447 305 CURVE SMOOTH",
"465 305 OFFCURVE",
"475 307 OFFCURVE",
"484 310 CURVE SMOOTH",
"491 313 OFFCURVE",
"496 314 OFFCURVE",
"503 314 CURVE SMOOTH",
"572 314 OFFCURVE",
"610 267 OFFCURVE",
"610 199 CURVE SMOOTH",
"610 121 OFFCURVE",
"576 73 OFFCURVE",
"492 73 CURVE SMOOTH",
"418 73 OFFCURVE",
"361 104 OFFCURVE",
"332 218 CURVE",
"322 332 OFFCURVE",
"249 398 OFFCURVE",
"129 398 CURVE SMOOTH",
"76 398 OFFCURVE",
"44 383 OFFCURVE",
"44 347 CURVE SMOOTH",
"44 325 OFFCURVE",
"58 305 OFFCURVE",
"83 305 CURVE SMOOTH",
"102 305 OFFCURVE",
"112 308 OFFCURVE",
"121 311 CURVE SMOOTH",
"128 313 OFFCURVE",
"132 314 OFFCURVE",
"142 314 CURVE SMOOTH",
"198 314 OFFCURVE",
"246 284 OFFCURVE",
"246 202 CURVE SMOOTH",
"246 117 OFFCURVE",
"165 99 OFFCURVE",
"107 91 CURVE SMOOTH",
"85 88 OFFCURVE",
"45 85 OFFCURVE",
"14 84 CURVE SMOOTH",
"-2 83 OFFCURVE",
"-15 63 OFFCURVE",
"-15 42 CURVE SMOOTH",
"-15 21 OFFCURVE",
"-6 0 OFFCURVE",
"9 0 CURVE SMOOTH",
"37 0 OFFCURVE",
"71 3 OFFCURVE",
"127 9 CURVE SMOOTH",
"203 17 OFFCURVE",
"259 43 OFFCURVE",
"294 82 CURVE",
"323 32 OFFCURVE",
"382 -12 OFFCURVE",
"485 -12 CURVE SMOOTH"
);
},
{
closed = 1;
nodes = (
"32 0 LINE",
"32 84 LINE",
"-16 84 LINE SMOOTH",
"-32 84 OFFCURVE",
"-39 63 OFFCURVE",
"-39 42 CURVE SMOOTH",
"-39 21 OFFCURVE",
"-31 0 OFFCURVE",
"-16 0 CURVE SMOOTH"
);
}
);
width = 756;
}
);
category = Letter;
},
{
glyphname = u10B8E.fina;
lastChange = "2018-04-03 13:12:53 +0000";
layers = (
{
layerId = UUID0;
paths = (
{
closed = 1;
nodes = (
"442 0 OFFCURVE",
"544 82 OFFCURVE",
"544 223 CURVE SMOOTH",
"544 326 OFFCURVE",
"482 439 OFFCURVE",
"315 439 CURVE SMOOTH",
"173 439 OFFCURVE",
"86 357 OFFCURVE",
"86 210 CURVE SMOOTH",
"86 159 OFFCURVE",
"101 115 OFFCURVE",
"122 68 CURVE",
"136 89 LINE",
"113 94 OFFCURVE",
"84 100 OFFCURVE",
"63 100 CURVE SMOOTH",
"46 100 OFFCURVE",
"39 75 OFFCURVE",
"39 55 CURVE SMOOTH",
"39 33 OFFCURVE",
"48 14 OFFCURVE",
"63 12 CURVE SMOOTH",
"84 9 OFFCURVE",
"148 0 OFFCURVE",
"290 0 CURVE SMOOTH"
);
},
{
closed = 1;
nodes = (
"251 84 OFFCURVE",
"224 84 OFFCURVE",
"202 85 CURVE",
"185 131 OFFCURVE",
"175 177 OFFCURVE",
"175 205 CURVE SMOOTH",
"175 305 OFFCURVE",
"231 355 OFFCURVE",
"321 355 CURVE SMOOTH",
"418 355 OFFCURVE",
"455 295 OFFCURVE",
"455 218 CURVE SMOOTH",
"455 120 OFFCURVE",
"386 84 OFFCURVE",
"284 84 CURVE SMOOTH"
);
},
{
closed = 1;
nodes = (
"598 0 LINE SMOOTH",
"613 0 OFFCURVE",
"622 21 OFFCURVE",
"622 42 CURVE SMOOTH",
"622 63 OFFCURVE",
"614 84 OFFCURVE",
"598 84 CURVE SMOOTH",
"424 84 LINE",
"424 0 LINE"
);
},
{
closed = 1;
nodes = (
"466 0 LINE",
"466 84 LINE",
"295 84 LINE",
"295 0 LINE"
);
}
);
width = 583;
}
);
category = Letter;
},
{
glyphname = u10B8F.fina;
lastChange = "2018-04-03 13:12:53 +0000";
layers = (
{
layerId = UUID0;
paths = (
{
closed = 1;
nodes = (
"674 0 LINE SMOOTH",
"689 0 OFFCURVE",
"698 21 OFFCURVE",
"698 42 CURVE SMOOTH",
"698 63 OFFCURVE",
"690 84 OFFCURVE",
"674 84 CURVE SMOOTH",
"451 84 LINE",
"451 0 LINE"
);
},
{
closed = 1;
nodes = (
"449 -200 OFFCURVE",
"575 -170 OFFCURVE",
"600 -163 CURVE SMOOTH",
"615 -159 OFFCURVE",
"623 -145 OFFCURVE",
"623 -124 CURVE SMOOTH",
"623 -103 OFFCURVE",
"611 -90 OFFCURVE",
"588 -90 CURVE SMOOTH",
"567 -90 OFFCURVE",
"546 -93 OFFCURVE",
"521 -98 CURVE SMOOTH",
"480 -107 OFFCURVE",
"427 -116 OFFCURVE",
"339 -116 CURVE SMOOTH",
"180 -116 OFFCURVE",
"134 -78 OFFCURVE",
"134 38 CURVE SMOOTH",
"134 60 OFFCURVE",
"136 88 OFFCURVE",
"139 115 CURVE SMOOTH",
"161 304 LINE",
"153 304 LINE",
"160 254 OFFCURVE",
"175 193 OFFCURVE",
"184 158 CURVE SMOOTH",
"208 63 OFFCURVE",
"249 -12 OFFCURVE",
"369 -12 CURVE SMOOTH",
"525 -12 OFFCURVE",
"576 64 OFFCURVE",
"576 207 CURVE SMOOTH",
"576 370 OFFCURVE",
"542 410 OFFCURVE",
"500 410 CURVE SMOOTH",
"434 410 OFFCURVE",
"372 322 OFFCURVE",
"372 268 CURVE SMOOTH",
"372 252 OFFCURVE",
"381 226 OFFCURVE",
"404 226 CURVE SMOOTH",
"419 226 OFFCURVE",
"432 233 OFFCURVE",
"444 241 CURVE SMOOTH",
"454 248 OFFCURVE",
"463 254 OFFCURVE",
"473 254 CURVE SMOOTH",
"480 254 OFFCURVE",
"488 250 OFFCURVE",
"488 182 CURVE SMOOTH",
"488 115 OFFCURVE",
"464 73 OFFCURVE",
"377 73 CURVE SMOOTH",
"299 73 OFFCURVE",
"284 118 OFFCURVE",
"255 226 CURVE SMOOTH",
"207 404 OFFCURVE",
"192 429 OFFCURVE",
"153 429 CURVE SMOOTH",
"115 429 OFFCURVE",
"92 384 OFFCURVE",
"71 227 CURVE SMOOTH",
"55 109 LINE SMOOTH",
"52 86 OFFCURVE",
"49 47 OFFCURVE",
"49 19 CURVE SMOOTH",
"49 -147 OFFCURVE",
"146 -200 OFFCURVE",
"320 -200 CURVE SMOOTH"
);
}
);
width = 645;
}
);
category = Letter;
},
{
glyphname = u10B90.fina;
lastChange = "2018-04-03 13:12:53 +0000";
layers = (
{
layerId = UUID0;
paths = (
{
closed = 1;
nodes = (
"640 -12 OFFCURVE",
"714 17 OFFCURVE",
"751 76 CURVE",
"723 81 LINE",
"753 21 OFFCURVE",
"804 0 OFFCURVE",
"878 0 CURVE SMOOTH",
"905 0 LINE SMOOTH",
"920 0 OFFCURVE",
"929 21 OFFCURVE",
"929 42 CURVE SMOOTH",
"929 63 OFFCURVE",
"921 84 OFFCURVE",
"905 84 CURVE SMOOTH",
"884 84 LINE SMOOTH",
"836 84 OFFCURVE",
"801 86 OFFCURVE",
"777 166 CURVE",
"774 227 OFFCURVE",
"751 314 OFFCURVE",
"727 380 CURVE SMOOTH",
"709 431 OFFCURVE",
"671 469 OFFCURVE",
"623 469 CURVE SMOOTH",
"559 469 OFFCURVE",
"471 385 OFFCURVE",
"471 349 CURVE SMOOTH",
"471 327 OFFCURVE",
"485 316 OFFCURVE",
"510 316 CURVE SMOOTH",
"523 316 OFFCURVE",
"543 332 OFFCURVE",
"562 350 CURVE SMOOTH",
"580 367 OFFCURVE",
"600 385 OFFCURVE",
"617 385 CURVE SMOOTH",
"639 385 OFFCURVE",
"651 357 OFFCURVE",
"659 333 CURVE SMOOTH",
"683 260 OFFCURVE",
"691 211 OFFCURVE",
"691 158 CURVE SMOOTH",
"691 102 OFFCURVE",
"646 71 OFFCURVE",
"544 71 CURVE SMOOTH",
"474 71 OFFCURVE",
"421 81 OFFCURVE",
"377 99 CURVE",
"384 115 OFFCURVE",
"387 134 OFFCURVE",
"387 154 CURVE SMOOTH",
"387 214 OFFCURVE",
"358 310 OFFCURVE",
"334 380 CURVE SMOOTH",
"316 431 OFFCURVE",
"279 469 OFFCURVE",
"230 469 CURVE SMOOTH",
"169 469 OFFCURVE",
"79 390 OFFCURVE",
"79 349 CURVE SMOOTH",
"79 327 OFFCURVE",
"92 316 OFFCURVE",
"113 316 CURVE SMOOTH",
"133 316 OFFCURVE",
"152 333 OFFCURVE",
"170 350 CURVE SMOOTH",
"189 368 OFFCURVE",
"208 385 OFFCURVE",
"225 385 CURVE SMOOTH",
"246 385 OFFCURVE",
"258 357 OFFCURVE",
"266 333 CURVE SMOOTH",
"291 260 OFFCURVE",
"299 211 OFFCURVE",
"299 158 CURVE SMOOTH",
"299 86 OFFCURVE",
"236 76 OFFCURVE",
"164 76 CURVE SMOOTH",
"125 76 OFFCURVE",
"104 79 OFFCURVE",
"90 81 CURVE SMOOTH",
"76 83 OFFCURVE",
"68 84 OFFCURVE",
"59 84 CURVE SMOOTH",
"36 84 OFFCURVE",
"24 67 OFFCURVE",
"24 42 CURVE SMOOTH",
"24 25 OFFCURVE",
"39 5 OFFCURVE",
"52 1 CURVE SMOOTH",
"58 -1 OFFCURVE",
"74 -3 OFFCURVE",
"85 -4 CURVE SMOOTH",
"108 -6 OFFCURVE",
"137 -8 OFFCURVE",
"165 -8 CURVE SMOOTH",
"245 -8 OFFCURVE",
"302 10 OFFCURVE",
"339 51 CURVE",
"303 50 LINE",
"359 5 OFFCURVE",
"456 -12 OFFCURVE",
"538 -12 CURVE SMOOTH"
);
}
);
width = 890;
}
);
category = Letter;
},
{
glyphname = u10B90.medi;
lastChange = "2018-04-03 13:12:53 +0000";
layers = (
{
layerId = UUID0;
paths = (
{
closed = 1;
nodes = (
"598 -12 OFFCURVE",
"671 16 OFFCURVE",
"708 76 CURVE",
"680 80 LINE",
"711 21 OFFCURVE",
"761 0 OFFCURVE",
"835 0 CURVE SMOOTH",
"862 0 LINE SMOOTH",
"877 0 OFFCURVE",
"886 21 OFFCURVE",
"886 42 CURVE SMOOTH",
"886 63 OFFCURVE",
"878 84 OFFCURVE",
"862 84 CURVE SMOOTH",
"841 84 LINE SMOOTH",
"794 84 OFFCURVE",
"759 86 OFFCURVE",
"735 162 CURVE",
"733 223 OFFCURVE",
"708 313 OFFCURVE",
"685 380 CURVE SMOOTH",
"667 431 OFFCURVE",
"629 469 OFFCURVE",
"581 469 CURVE SMOOTH",
"517 469 OFFCURVE",
"429 385 OFFCURVE",
"429 349 CURVE SMOOTH",
"429 327 OFFCURVE",
"443 316 OFFCURVE",
"468 316 CURVE SMOOTH",
"484 316 OFFCURVE",
"502 332 OFFCURVE",
"521 350 CURVE SMOOTH",
"539 367 OFFCURVE",
"559 385 OFFCURVE",
"575 385 CURVE SMOOTH",
"597 385 OFFCURVE",
"609 356 OFFCURVE",
"617 333 CURVE SMOOTH",
"641 261 OFFCURVE",
"649 211 OFFCURVE",
"649 158 CURVE SMOOTH",
"649 102 OFFCURVE",
"604 71 OFFCURVE",
"502 71 CURVE SMOOTH",
"432 71 OFFCURVE",
"379 81 OFFCURVE",
"335 99 CURVE",
"341 115 OFFCURVE",
"345 133 OFFCURVE",
"345 154 CURVE SMOOTH",
"345 214 OFFCURVE",
"317 310 OFFCURVE",
"292 380 CURVE SMOOTH",
"274 431 OFFCURVE",
"237 469 OFFCURVE",
"188 469 CURVE SMOOTH",
"124 469 OFFCURVE",
"37 385 OFFCURVE",
"37 349 CURVE SMOOTH",
"37 327 OFFCURVE",
"50 316 OFFCURVE",
"76 316 CURVE SMOOTH",
"91 316 OFFCURVE",
"110 333 OFFCURVE",
"129 351 CURVE SMOOTH",
"147 368 OFFCURVE",
"166 385 OFFCURVE",
"183 385 CURVE SMOOTH",
"204 385 OFFCURVE",
"216 357 OFFCURVE",
"224 333 CURVE SMOOTH",
"248 260 OFFCURVE",
"257 211 OFFCURVE",
"257 158 CURVE SMOOTH",
"257 87 OFFCURVE",
"147 84 OFFCURVE",
"84 84 CURVE SMOOTH",
"-16 84 LINE SMOOTH",
"-32 84 OFFCURVE",
"-39 63 OFFCURVE",
"-39 42 CURVE SMOOTH",
"-39 21 OFFCURVE",
"-31 0 OFFCURVE",
"-16 0 CURVE SMOOTH",
"66 0 LINE SMOOTH",
"134 0 OFFCURVE",
"236 0 OFFCURVE",
"295 56 CURVE",
"256 53 LINE",
"311 6 OFFCURVE",
"411 -12 OFFCURVE",
"496 -12 CURVE SMOOTH"
);
}
);
width = 847;
}
);
category = Letter;
},
{
glyphname = u10B90.init;
lastChange = "2018-04-03 13:12:53 +0000";
layers = (
{
layerId = UUID0;
paths = (
{
closed = 1;
nodes = (
"906 -13 OFFCURVE",
"958 14 OFFCURVE",
"968 20 CURVE SMOOTH",
"980 27 OFFCURVE",
"992 36 OFFCURVE",
"992 62 CURVE SMOOTH",
"992 83 OFFCURVE",
"984 104 OFFCURVE",
"968 104 CURVE SMOOTH",
"964 104 OFFCURVE",
"957 101 OFFCURVE",
"946 96 CURVE SMOOTH",
"923 86 OFFCURVE",
"883 71 OFFCURVE",
"840 71 CURVE SMOOTH",
"788 71 OFFCURVE",
"756 86 OFFCURVE",
"733 189 CURVE",
"726 248 OFFCURVE",
"705 323 OFFCURVE",
"685 380 CURVE SMOOTH",
"667 431 OFFCURVE",
"629 469 OFFCURVE",
"581 469 CURVE SMOOTH",
"517 469 OFFCURVE",
"429 385 OFFCURVE",
"429 349 CURVE SMOOTH",
"429 327 OFFCURVE",
"443 316 OFFCURVE",
"468 316 CURVE SMOOTH",
"484 316 OFFCURVE",
"503 334 OFFCURVE",
"521 351 CURVE SMOOTH",
"541 369 OFFCURVE",
"559 385 OFFCURVE",
"575 385 CURVE SMOOTH",
"597 385 OFFCURVE",
"609 357 OFFCURVE",
"617 333 CURVE SMOOTH",
"641 260 OFFCURVE",
"649 211 OFFCURVE",
"649 158 CURVE SMOOTH",
"649 102 OFFCURVE",
"604 71 OFFCURVE",
"502 71 CURVE SMOOTH",
"432 71 OFFCURVE",
"379 81 OFFCURVE",
"335 99 CURVE",
"342 115 OFFCURVE",
"345 134 OFFCURVE",
"345 154 CURVE SMOOTH",
"345 214 OFFCURVE",
"317 310 OFFCURVE",
"292 380 CURVE SMOOTH",
"274 431 OFFCURVE",
"237 469 OFFCURVE",
"188 469 CURVE SMOOTH",
"124 469 OFFCURVE",
"37 385 OFFCURVE",
"37 349 CURVE SMOOTH",
"37 327 OFFCURVE",
"50 316 OFFCURVE",
"76 316 CURVE SMOOTH",
"91 316 OFFCURVE",
"110 333 OFFCURVE",
"128 350 CURVE SMOOTH",
"147 368 OFFCURVE",
"166 385 OFFCURVE",
"183 385 CURVE SMOOTH",
"204 385 OFFCURVE",
"216 357 OFFCURVE",
"224 333 CURVE SMOOTH",
"248 260 OFFCURVE",
"257 211 OFFCURVE",
"257 158 CURVE SMOOTH",
"257 86 OFFCURVE",
"194 76 OFFCURVE",
"122 76 CURVE SMOOTH",
"83 76 OFFCURVE",
"62 79 OFFCURVE",
"45 82 CURVE SMOOTH",
"35 84 OFFCURVE",
"26 84 OFFCURVE",
"17 84 CURVE SMOOTH",
"-6 84 OFFCURVE",
"-18 67 OFFCURVE",
"-18 42 CURVE SMOOTH",
"-18 25 OFFCURVE",
"-8 2 OFFCURVE",
"13 0 CURVE SMOOTH",
"22 -1 OFFCURVE",
"27 -1 OFFCURVE",
"44 -3 CURVE SMOOTH",
"67 -6 OFFCURVE",
"95 -8 OFFCURVE",
"123 -8 CURVE SMOOTH",
"191 -8 OFFCURVE",
"244 5 OFFCURVE",
"280 29 CURVE",
"337 1 OFFCURVE",
"423 -12 OFFCURVE",
"496 -12 CURVE SMOOTH",
"596 -12 OFFCURVE",
"669 16 OFFCURVE",
"707 80 CURVE",
"680 87 LINE",
"711 9 OFFCURVE",
"763 -13 OFFCURVE",
"846 -13 CURVE SMOOTH"
);
},
{
closed = 1;
nodes = (
"32 0 LINE",
"32 84 LINE",
"-16 84 LINE SMOOTH",
"-32 84 OFFCURVE",
"-39 63 OFFCURVE",
"-39 42 CURVE SMOOTH",
"-39 21 OFFCURVE",
"-31 0 OFFCURVE",
"-16 0 CURVE SMOOTH"
);
}
);
width = 1016;
}
);
category = Letter;
},
{
glyphname = u10B91.fina;
lastChange = "2018-04-03 13:12:53 +0000";
layers = (
{
layerId = UUID0;
paths = (
{
closed = 1;
nodes = (
"154 -27 OFFCURVE",
"176 -18 OFFCURVE",
"176 -3 CURVE SMOOTH",
"176 7 OFFCURVE",
"176 16 OFFCURVE",
"177 26 CURVE",
"247 4 OFFCURVE",
"315 -10 OFFCURVE",
"406 -10 CURVE SMOOTH",
"557 -10 OFFCURVE",
"661 67 OFFCURVE",
"661 188 CURVE SMOOTH",
"661 302 OFFCURVE",
"588 386 OFFCURVE",
"468 386 CURVE SMOOTH",
"356 386 OFFCURVE",
"254 314 OFFCURVE",
"151 208 CURVE",
"168 193 LINE",
"162 287 OFFCURVE",
"148 355 OFFCURVE",
"127 416 CURVE SMOOTH",
"121 432 OFFCURVE",
"104 439 OFFCURVE",
"81 439 CURVE SMOOTH",
"61 439 OFFCURVE",
"39 433 OFFCURVE",
"39 416 CURVE SMOOTH",
"39 411 OFFCURVE",
"41 402 OFFCURVE",
"42 397 CURVE SMOOTH",
"68 296 OFFCURVE",
"90 205 OFFCURVE",
"90 56 CURVE SMOOTH",
"90 49 OFFCURVE",
"90 41 OFFCURVE",
"90 31 CURVE SMOOTH",
"89 20 OFFCURVE",
"89 7 OFFCURVE",
"89 -3 CURVE SMOOTH",
"89 -20 OFFCURVE",
"111 -27 OFFCURVE",
"131 -27 CURVE SMOOTH"
);
},
{
closed = 1;
nodes = (
"319 70 OFFCURVE",
"213 95 OFFCURVE",
"176 119 CURVE",
"176 123 LINE",
"255 223 OFFCURVE",
"367 302 OFFCURVE",
"458 302 CURVE SMOOTH",
"526 302 OFFCURVE",
"572 263 OFFCURVE",
"572 188 CURVE SMOOTH",
"572 120 OFFCURVE",
"508 70 OFFCURVE",
"400 70 CURVE SMOOTH"
);
},
{
closed = 1;
nodes = (
"725 0 LINE SMOOTH",
"740 0 OFFCURVE",
"749 21 OFFCURVE",
"749 42 CURVE SMOOTH",
"749 63 OFFCURVE",
"741 84 OFFCURVE",
"725 84 CURVE SMOOTH",
"502 84 LINE",
"502 0 LINE"
);
}
);
width = 710;
}
);
category = Letter;
},
{
glyphname = u10BA9.fina;
lastChange = "2018-04-03 13:12:53 +0000";
layers = (
{
layerId = UUID0;
paths = (
{
closed = 1;
nodes = (
"112 -220 OFFCURVE",
"134 -212 OFFCURVE",
"137 -197 CURVE SMOOTH",
"172 0 LINE",
"336 0 LINE SMOOTH",
"352 0 OFFCURVE",
"360 21 OFFCURVE",
"360 42 CURVE SMOOTH",
"360 63 OFFCURVE",
"353 84 OFFCURVE",
"336 84 CURVE SMOOTH",
"187 84 LINE",
"245 412 LINE SMOOTH",
"246 417 OFFCURVE",
"246 420 OFFCURVE",
"246 421 CURVE SMOOTH",
"246 433 OFFCURVE",
"227 439 OFFCURVE",
"207 439 CURVE SMOOTH",
"185 439 OFFCURVE",
"161 433 OFFCURVE",
"158 417 CURVE SMOOTH",
"50 -192 LINE SMOOTH",
"49 -197 OFFCURVE",
"49 -198 OFFCURVE",
"49 -199 CURVE SMOOTH",
"49 -213 OFFCURVE",
"69 -220 OFFCURVE",
"90 -220 CURVE SMOOTH"
);
}
);
width = 321;
}
);
category = Letter;
},
{
glyphname = u10BA9;
lastChange = "2018-04-03 13:12:53 +0000";
layers = (
{
layerId = UUID0;
paths = (
{
closed = 1;
nodes = (
"65 0 LINE SMOOTH",
"173 0 OFFCURVE",
"229 60 OFFCURVE",
"246 160 CURVE SMOOTH",
"289 406 LINE SMOOTH",
"290 411 OFFCURVE",
"291 417 OFFCURVE",
"291 419 CURVE SMOOTH",
"291 431 OFFCURVE",
"271 439 OFFCURVE",
"249 439 CURVE SMOOTH",
"229 439 OFFCURVE",
"206 433 OFFCURVE",
"203 416 CURVE SMOOTH",
"157 157 LINE SMOOTH",
"147 101 OFFCURVE",
"122 84 OFFCURVE",
"77 84 CURVE SMOOTH",
"57 84 LINE SMOOTH",
"34 84 OFFCURVE",
"24 55 OFFCURVE",
"24 35 CURVE SMOOTH",
"24 13 OFFCURVE",
"35 0 OFFCURVE",
"47 0 CURVE SMOOTH"
);
}
);
width = 340;
}
);
unicode = 10BA9;
category = Letter;
},
{
glyphname = u10BAA;
lastChange = "2018-04-03 13:12:53 +0000";
layers = (
{
layerId = UUID0;
paths = (
{
closed = 1;
nodes = (
"112 -220 OFFCURVE",
"134 -212 OFFCURVE",
"137 -197 CURVE SMOOTH",
"172 0 LINE",
"352 0 LINE SMOOTH",
"459 0 OFFCURVE",
"514 60 OFFCURVE",
"532 160 CURVE SMOOTH",
"576 406 LINE SMOOTH",
"577 411 OFFCURVE",
"578 416 OFFCURVE",
"578 418 CURVE SMOOTH",
"578 431 OFFCURVE",
"558 439 OFFCURVE",
"535 439 CURVE SMOOTH",
"515 439 OFFCURVE",
"493 433 OFFCURVE",
"490 416 CURVE SMOOTH",
"444 157 LINE SMOOTH",
"434 101 OFFCURVE",
"409 84 OFFCURVE",
"364 84 CURVE SMOOTH",
"187 84 LINE",
"244 407 LINE SMOOTH",
"245 412 OFFCURVE",
"246 417 OFFCURVE",
"246 419 CURVE SMOOTH",
"246 433 OFFCURVE",
"227 439 OFFCURVE",
"207 439 CURVE SMOOTH",
"185 439 OFFCURVE",
"161 433 OFFCURVE",
"158 417 CURVE SMOOTH",
"51 -187 LINE SMOOTH",
"50 -191 OFFCURVE",
"49 -196 OFFCURVE",
"49 -199 CURVE SMOOTH",
"49 -213 OFFCURVE",
"69 -220 OFFCURVE",
"90 -220 CURVE SMOOTH"
);
}
);
width = 627;
}
);
unicode = 10BAA;
category = Letter;
},
{
glyphname = u10BAB;
lastChange = "2018-04-03 13:12:53 +0000";
layers = (
{
layerId = UUID0;
paths = (
{
closed = 1;
nodes = (
"112 -220 OFFCURVE",
"134 -212 OFFCURVE",
"137 -197 CURVE SMOOTH",
"172 0 LINE",
"635 0 LINE SMOOTH",
"743 0 OFFCURVE",
"797 60 OFFCURVE",
"815 160 CURVE SMOOTH",
"860 411 LINE SMOOTH",
"861 413 OFFCURVE",
"861 416 OFFCURVE",
"861 418 CURVE SMOOTH",
"861 431 OFFCURVE",
"840 439 OFFCURVE",
"818 439 CURVE SMOOTH",
"798 439 OFFCURVE",
"776 433 OFFCURVE",
"773 416 CURVE SMOOTH",
"727 157 LINE SMOOTH",
"717 101 OFFCURVE",
"692 84 OFFCURVE",
"647 84 CURVE SMOOTH",
"482 84 LINE",
"494 105 OFFCURVE",
"503 131 OFFCURVE",
"508 160 CURVE SMOOTH",
"553 411 LINE SMOOTH",
"554 416 OFFCURVE",
"554 417 OFFCURVE",
"554 418 CURVE SMOOTH",
"554 431 OFFCURVE",
"533 439 OFFCURVE",
"511 439 CURVE SMOOTH",
"491 439 OFFCURVE",
"468 433 OFFCURVE",
"465 416 CURVE SMOOTH",
"419 157 LINE SMOOTH",
"409 101 OFFCURVE",
"384 84 OFFCURVE",
"339 84 CURVE SMOOTH",
"187 84 LINE",
"244 406 LINE SMOOTH",
"245 411 OFFCURVE",
"246 417 OFFCURVE",
"246 419 CURVE SMOOTH",
"246 433 OFFCURVE",
"227 439 OFFCURVE",
"207 439 CURVE SMOOTH",
"184 439 OFFCURVE",
"161 433 OFFCURVE",
"158 417 CURVE SMOOTH",
"50 -192 LINE SMOOTH",
"49 -195 OFFCURVE",
"49 -198 OFFCURVE",
"49 -199 CURVE SMOOTH",
"49 -213 OFFCURVE",
"69 -220 OFFCURVE",
"90 -220 CURVE SMOOTH"
);
}
);
width = 910;
}
);
unicode = 10BAB;
category = Letter;
},
{
glyphname = u10BAC;
lastChange = "2018-04-03 13:12:53 +0000";
layers = (
{
layerId = UUID0;
paths = (
{
closed = 1;
nodes = (
"112 -220 OFFCURVE",
"134 -212 OFFCURVE",
"137 -197 CURVE SMOOTH",
"172 0 LINE",
"855 0 LINE SMOOTH",
"962 0 OFFCURVE",
"1017 60 OFFCURVE",
"1035 160 CURVE SMOOTH",
"1080 411 LINE SMOOTH",
"1081 413 OFFCURVE",
"1081 416 OFFCURVE",
"1081 418 CURVE SMOOTH",
"1081 431 OFFCURVE",
"1061 439 OFFCURVE",
"1038 439 CURVE SMOOTH",
"1018 439 OFFCURVE",
"996 433 OFFCURVE",
"993 416 CURVE SMOOTH",
"947 157 LINE SMOOTH",
"937 101 OFFCURVE",
"912 84 OFFCURVE",
"867 84 CURVE SMOOTH",
"731 84 LINE",
"743 105 OFFCURVE",
"752 131 OFFCURVE",
"757 160 CURVE SMOOTH",
"802 411 LINE SMOOTH",
"803 416 OFFCURVE",
"803 417 OFFCURVE",
"803 418 CURVE SMOOTH",
"803 431 OFFCURVE",
"782 439 OFFCURVE",
"760 439 CURVE SMOOTH",
"740 439 OFFCURVE",
"717 433 OFFCURVE",
"714 416 CURVE SMOOTH",
"668 157 LINE SMOOTH",
"658 101 OFFCURVE",
"633 84 OFFCURVE",
"588 84 CURVE SMOOTH",
"453 84 LINE",
"465 105 OFFCURVE",
"474 132 OFFCURVE",
"479 161 CURVE SMOOTH",
"523 406 LINE SMOOTH",
"524 413 OFFCURVE",
"524 417 OFFCURVE",
"524 418 CURVE SMOOTH",
"524 431 OFFCURVE",
"503 439 OFFCURVE",
"481 439 CURVE SMOOTH",
"461 439 OFFCURVE",
"439 433 OFFCURVE",
"436 416 CURVE SMOOTH",
"390 157 LINE SMOOTH",
"380 103 OFFCURVE",
"356 84 OFFCURVE",
"313 84 CURVE SMOOTH",
"187 84 LINE",
"245 411 LINE SMOOTH",
"246 417 OFFCURVE",
"246 418 OFFCURVE",
"246 420 CURVE SMOOTH",
"246 432 OFFCURVE",
"227 439 OFFCURVE",
"207 439 CURVE SMOOTH",
"185 439 OFFCURVE",
"161 433 OFFCURVE",
"158 417 CURVE SMOOTH",
"50 -192 LINE SMOOTH",
"49 -195 OFFCURVE",
"49 -198 OFFCURVE",
"49 -199 CURVE SMOOTH",
"49 -213 OFFCURVE",
"69 -220 OFFCURVE",
"90 -220 CURVE SMOOTH"
);
}
);
width = 1130;
}
);
unicode = 10BAC;
category = Letter;
},
{
glyphname = u10BAD;
lastChange = "2018-04-03 13:12:53 +0000";
layers = (
{
layerId = UUID0;
paths = (
{
closed = 1;
nodes = (
"405 -21 OFFCURVE",
"552 28 OFFCURVE",
"552 205 CURVE SMOOTH",
"552 274 OFFCURVE",
"500 345 OFFCURVE",
"381 347 CURVE",
"442 692 LINE SMOOTH",
"444 704 OFFCURVE",
"445 710 OFFCURVE",
"445 712 CURVE SMOOTH",
"445 726 OFFCURVE",
"426 732 OFFCURVE",
"406 732 CURVE SMOOTH",
"383 732 OFFCURVE",
"360 725 OFFCURVE",
"357 709 CURVE SMOOTH",
"301 374 LINE SMOOTH",
"297 352 OFFCURVE",
"282 332 OFFCURVE",
"266 314 CURVE SMOOTH",
"251 298 OFFCURVE",
"241 286 OFFCURVE",
"241 271 CURVE SMOOTH",
"241 251 OFFCURVE",
"255 239 OFFCURVE",
"277 239 CURVE SMOOTH",
"291 239 OFFCURVE",
"305 243 OFFCURVE",
"322 250 CURVE SMOOTH",
"341 258 OFFCURVE",
"360 266 OFFCURVE",
"381 266 CURVE SMOOTH",
"414 266 OFFCURVE",
"461 252 OFFCURVE",
"461 191 CURVE SMOOTH",
"461 102 OFFCURVE",
"395 63 OFFCURVE",
"252 63 CURVE SMOOTH",
"209 63 OFFCURVE",
"172 69 OFFCURVE",
"137 75 CURVE SMOOTH",
"108 80 OFFCURVE",
"82 84 OFFCURVE",
"56 84 CURVE SMOOTH",
"37 84 OFFCURVE",
"24 54 OFFCURVE",
"24 30 CURVE SMOOTH",
"24 15 OFFCURVE",
"30 0 OFFCURVE",
"42 0 CURVE SMOOTH",
"58 0 OFFCURVE",
"80 -3 OFFCURVE",
"104 -7 CURVE SMOOTH",
"142 -14 OFFCURVE",
"190 -21 OFFCURVE",
"250 -21 CURVE SMOOTH"
);
}
);
width = 601;
}
);
unicode = 10BAD;
category = Letter;
},
{
glyphname = u10BAE;
lastChange = "2018-04-03 13:12:53 +0000";
layers = (
{
layerId = UUID0;
paths = (
{
closed = 1;
nodes = (
"407 -21 OFFCURVE",
"552 28 OFFCURVE",
"552 205 CURVE SMOOTH",
"552 275 OFFCURVE",
"506 347 OFFCURVE",
"384 347 CURVE SMOOTH",
"332 347 OFFCURVE",
"241 333 OFFCURVE",
"241 271 CURVE SMOOTH",
"241 251 OFFCURVE",
"255 239 OFFCURVE",
"277 239 CURVE SMOOTH",
"291 239 OFFCURVE",
"306 244 OFFCURVE",
"321 250 CURVE SMOOTH",
"340 258 OFFCURVE",
"360 266 OFFCURVE",
"381 266 CURVE SMOOTH",
"414 266 OFFCURVE",
"461 252 OFFCURVE",
"461 191 CURVE SMOOTH",
"461 95 OFFCURVE",
"385 63 OFFCURVE",
"242 63 CURVE SMOOTH",
"200 63 OFFCURVE",
"166 69 OFFCURVE",
"134 75 CURVE SMOOTH",
"107 80 OFFCURVE",
"83 84 OFFCURVE",
"56 84 CURVE SMOOTH",
"37 84 OFFCURVE",
"24 54 OFFCURVE",
"24 30 CURVE SMOOTH",
"24 15 OFFCURVE",
"30 0 OFFCURVE",
"42 0 CURVE SMOOTH",
"55 0 OFFCURVE",
"74 -3 OFFCURVE",
"97 -7 CURVE SMOOTH",
"134 -14 OFFCURVE",
"181 -21 OFFCURVE",
"235 -21 CURVE SMOOTH"
);
}
);
width = 601;
}
);
unicode = 10BAE;
category = Letter;
},
{
glyphname = u10BAF;
lastChange = "2018-04-03 13:12:53 +0000";
layers = (
{
layerId = UUID0;
paths = (
{
closed = 1;
nodes = (
"1046 -195 OFFCURVE",
"1174 -52 OFFCURVE",
"1174 131 CURVE SMOOTH",
"1174 162 LINE SMOOTH",
"1174 302 OFFCURVE",
"1109 377 OFFCURVE",
"1020 377 CURVE SMOOTH",
"932 377 OFFCURVE",
"882 317 OFFCURVE",
"882 241 CURVE SMOOTH",
"882 157 OFFCURVE",
"937 99 OFFCURVE",
"1086 99 CURVE",
"1075 -37 OFFCURVE",
"988 -111 OFFCURVE",
"749 -111 CURVE SMOOTH",
"634 -111 OFFCURVE",
"577 -95 OFFCURVE",
"546 -86 CURVE SMOOTH",
"530 -81 OFFCURVE",
"515 -79 OFFCURVE",
"508 -79 CURVE SMOOTH",
"492 -79 OFFCURVE",
"484 -100 OFFCURVE",
"484 -120 CURVE SMOOTH",
"484 -142 OFFCURVE",
"494 -155 OFFCURVE",
"508 -161 CURVE SMOOTH",
"525 -169 OFFCURVE",
"591 -195 OFFCURVE",
"751 -195 CURVE SMOOTH"
);
},
{
closed = 1;
nodes = (
"294 -148 LINE SMOOTH",
"389 -148 OFFCURVE",
"430 -116 OFFCURVE",
"430 -62 CURVE SMOOTH",
"430 -43 OFFCURVE",
"425 -22 OFFCURVE",
"417 1 CURVE SMOOTH",
"371 125 LINE SMOOTH",
"365 140 OFFCURVE",
"361 152 OFFCURVE",
"361 162 CURVE SMOOTH",
"361 176 OFFCURVE",
"370 187 OFFCURVE",
"392 203 CURVE SMOOTH",
"571 330 LINE SMOOTH",
"583 338 OFFCURVE",
"588 349 OFFCURVE",
"588 359 CURVE SMOOTH",
"588 382 OFFCURVE",
"565 404 OFFCURVE",
"546 404 CURVE SMOOTH",
"543 404 OFFCURVE",
"540 404 OFFCURVE",
"536 401 CURVE SMOOTH",
"335 259 LINE SMOOTH",
"290 227 OFFCURVE",
"274 203 OFFCURVE",
"274 175 CURVE SMOOTH",
"274 155 OFFCURVE",
"281 134 OFFCURVE",
"293 105 CURVE SMOOTH",
"323 29 LINE SMOOTH",
"332 7 OFFCURVE",
"339 -12 OFFCURVE",
"339 -27 CURVE SMOOTH",
"339 -50 OFFCURVE",
"322 -64 OFFCURVE",
"270 -64 CURVE SMOOTH",
"48 -64 LINE SMOOTH",
"32 -64 OFFCURVE",
"24 -85 OFFCURVE",
"24 -105 CURVE SMOOTH",
"24 -127 OFFCURVE",
"33 -148 OFFCURVE",
"48 -148 CURVE SMOOTH"
);
},
{
closed = 1;
nodes = (
"707 0 LINE SMOOTH",
"826 0 OFFCURVE",
"868 34 OFFCURVE",
"868 95 CURVE SMOOTH",
"868 124 OFFCURVE",
"858 157 OFFCURVE",
"844 196 CURVE SMOOTH",
"762 416 LINE SMOOTH",
"757 429 OFFCURVE",
"739 439 OFFCURVE",
"715 439 CURVE SMOOTH",
"686 439 OFFCURVE",
"675 429 OFFCURVE",
"675 416 CURVE SMOOTH",
"675 413 OFFCURVE",
"676 410 OFFCURVE",
"677 407 CURVE SMOOTH",
"757 193 LINE SMOOTH",
"766 168 OFFCURVE",
"775 143 OFFCURVE",
"775 124 CURVE SMOOTH",
"775 100 OFFCURVE",
"761 84 OFFCURVE",
"713 84 CURVE SMOOTH",
"493 84 LINE SMOOTH",
"477 84 OFFCURVE",
"470 63 OFFCURVE",
"470 42 CURVE SMOOTH",
"470 21 OFFCURVE",
"478 0 OFFCURVE",
"493 0 CURVE SMOOTH"
);
},
{
closed = 1;
nodes = (
"988 176 OFFCURVE",
"966 209 OFFCURVE",
"966 244 CURVE SMOOTH",
"966 277 OFFCURVE",
"989 293 OFFCURVE",
"1011 293 CURVE SMOOTH",
"1064 293 OFFCURVE",
"1086 240 OFFCURVE",
"1086 176 CURVE"
);
}
);
width = 1248;
}
);
unicode = 10BAF;
category = Letter;
},
{
glyphname = u10BA9.alt.fina;
lastChange = "2018-04-03 13:12:53 +0000";
layers = (
{
layerId = UUID0;
paths = (
{
closed = 1;
nodes = (
"65 0 LINE SMOOTH",
"173 0 OFFCURVE",
"229 60 OFFCURVE",
"246 160 CURVE SMOOTH",
"289 406 LINE SMOOTH",
"290 411 OFFCURVE",
"291 417 OFFCURVE",
"291 419 CURVE SMOOTH",
"291 431 OFFCURVE",
"271 439 OFFCURVE",
"249 439 CURVE SMOOTH",
"229 439 OFFCURVE",
"206 433 OFFCURVE",
"203 416 CURVE SMOOTH",
"157 157 LINE SMOOTH",
"147 101 OFFCURVE",
"122 84 OFFCURVE",
"77 84 CURVE SMOOTH",
"57 84 LINE SMOOTH",
"34 84 OFFCURVE",
"24 55 OFFCURVE",
"24 35 CURVE SMOOTH",
"24 13 OFFCURVE",
"35 0 OFFCURVE",
"47 0 CURVE SMOOTH"
);
},
{
closed = 1;
nodes = (
"356 0 LINE SMOOTH",
"371 0 OFFCURVE",
"379 21 OFFCURVE",
"379 42 CURVE SMOOTH",
"379 63 OFFCURVE",
"372 84 OFFCURVE",
"356 84 CURVE SMOOTH",
"64 84 LINE",
"64 0 LINE"
);
}
);
width = 340;
}
);
category = Letter;
},
{
glyphname = u10BAA.fina;
lastChange = "2018-04-03 13:12:53 +0000";
layers = (
{
layerId = UUID0;
paths = (
{
closed = 1;
nodes = (
"112 -220 OFFCURVE",
"134 -212 OFFCURVE",
"137 -197 CURVE SMOOTH",
"172 0 LINE",
"352 0 LINE SMOOTH",
"459 0 OFFCURVE",
"514 60 OFFCURVE",
"532 160 CURVE SMOOTH",
"576 406 LINE SMOOTH",
"577 411 OFFCURVE",
"578 416 OFFCURVE",
"578 418 CURVE SMOOTH",
"578 431 OFFCURVE",
"558 439 OFFCURVE",
"535 439 CURVE SMOOTH",
"515 439 OFFCURVE",
"493 433 OFFCURVE",
"490 416 CURVE SMOOTH",
"444 157 LINE SMOOTH",
"434 101 OFFCURVE",
"409 84 OFFCURVE",
"364 84 CURVE SMOOTH",
"187 84 LINE",
"244 407 LINE SMOOTH",
"245 412 OFFCURVE",
"246 417 OFFCURVE",
"246 419 CURVE SMOOTH",
"246 433 OFFCURVE",
"227 439 OFFCURVE",
"207 439 CURVE SMOOTH",
"185 439 OFFCURVE",
"161 433 OFFCURVE",
"158 417 CURVE SMOOTH",
"51 -187 LINE SMOOTH",
"50 -191 OFFCURVE",
"49 -196 OFFCURVE",
"49 -199 CURVE SMOOTH",
"49 -213 OFFCURVE",
"69 -220 OFFCURVE",
"90 -220 CURVE SMOOTH"
);
},
{
closed = 1;
nodes = (
"643 0 LINE SMOOTH",
"658 0 OFFCURVE",
"666 21 OFFCURVE",
"666 42 CURVE SMOOTH",
"666 63 OFFCURVE",
"659 84 OFFCURVE",
"643 84 CURVE SMOOTH",
"351 84 LINE",
"351 0 LINE"
);
}
);
width = 627;
}
);
category = Letter;
},
{
glyphname = u10BAA.alt;
lastChange = "2018-04-03 13:12:53 +0000";
layers = (
{
layerId = UUID0;
paths = (
{
closed = 1;
nodes = (
"381 0 LINE SMOOTH",
"489 0 OFFCURVE",
"544 61 OFFCURVE",
"562 161 CURVE SMOOTH",
"605 406 LINE SMOOTH",
"606 411 OFFCURVE",
"607 416 OFFCURVE",
"607 418 CURVE SMOOTH",
"607 431 OFFCURVE",
"587 439 OFFCURVE",
"564 439 CURVE SMOOTH",
"544 439 OFFCURVE",
"522 433 OFFCURVE",
"519 416 CURVE SMOOTH",
"473 157 LINE SMOOTH",
"463 101 OFFCURVE",
"438 84 OFFCURVE",
"393 84 CURVE SMOOTH",
"206 84 LINE",
"217 105 OFFCURVE",
"226 131 OFFCURVE",
"231 160 CURVE SMOOTH",
"275 411 LINE SMOOTH",
"276 414 OFFCURVE",
"276 417 OFFCURVE",
"276 418 CURVE SMOOTH",
"276 431 OFFCURVE",
"256 439 OFFCURVE",
"234 439 CURVE SMOOTH",
"214 439 OFFCURVE",
"191 433 OFFCURVE",
"188 416 CURVE SMOOTH",
"143 157 LINE SMOOTH",
"133 101 OFFCURVE",
"107 84 OFFCURVE",
"63 84 CURVE SMOOTH",
"57 84 LINE SMOOTH",
"31 84 OFFCURVE",
"24 58 OFFCURVE",
"24 35 CURVE SMOOTH",
"24 16 OFFCURVE",
"33 0 OFFCURVE",
"44 0 CURVE SMOOTH"
);
}
);
width = 656;
}
);
category = Letter;
},
{
glyphname = u10BAA.alt.fina;
lastChange = "2018-04-03 13:12:53 +0000";
layers = (
{
layerId = UUID0;
paths = (
{
closed = 1;
nodes = (
"381 0 LINE SMOOTH",
"489 0 OFFCURVE",
"544 61 OFFCURVE",
"562 161 CURVE SMOOTH",
"605 406 LINE SMOOTH",
"606 411 OFFCURVE",
"607 416 OFFCURVE",
"607 418 CURVE SMOOTH",
"607 431 OFFCURVE",
"587 439 OFFCURVE",
"564 439 CURVE SMOOTH",
"544 439 OFFCURVE",
"522 433 OFFCURVE",
"519 416 CURVE SMOOTH",
"473 157 LINE SMOOTH",
"463 101 OFFCURVE",
"438 84 OFFCURVE",
"393 84 CURVE SMOOTH",
"206 84 LINE",
"217 105 OFFCURVE",
"226 131 OFFCURVE",
"231 160 CURVE SMOOTH",
"275 411 LINE SMOOTH",
"276 414 OFFCURVE",
"276 417 OFFCURVE",
"276 418 CURVE SMOOTH",
"276 431 OFFCURVE",
"256 439 OFFCURVE",
"234 439 CURVE SMOOTH",
"214 439 OFFCURVE",
"191 433 OFFCURVE",
"188 416 CURVE SMOOTH",
"143 157 LINE SMOOTH",
"133 101 OFFCURVE",
"107 84 OFFCURVE",
"63 84 CURVE SMOOTH",
"57 84 LINE SMOOTH",
"31 84 OFFCURVE",
"24 58 OFFCURVE",
"24 35 CURVE SMOOTH",
"24 16 OFFCURVE",
"33 0 OFFCURVE",
"44 0 CURVE SMOOTH"
);
},
{
closed = 1;
nodes = (
"672 0 LINE SMOOTH",
"687 0 OFFCURVE",
"695 21 OFFCURVE",
"695 42 CURVE SMOOTH",
"695 63 OFFCURVE",
"688 84 OFFCURVE",
"672 84 CURVE SMOOTH",
"380 84 LINE",
"380 0 LINE"
);
}
);
width = 656;
}
);
category = Letter;
},
{
glyphname = u10BAB.fina;
lastChange = "2018-04-03 13:12:53 +0000";
layers = (
{
layerId = UUID0;
paths = (
{
closed = 1;
nodes = (
"112 -220 OFFCURVE",
"134 -212 OFFCURVE",
"137 -197 CURVE SMOOTH",
"172 0 LINE",
"635 0 LINE SMOOTH",
"743 0 OFFCURVE",
"797 60 OFFCURVE",
"815 160 CURVE SMOOTH",
"860 411 LINE SMOOTH",
"861 413 OFFCURVE",
"861 416 OFFCURVE",
"861 418 CURVE SMOOTH",
"861 431 OFFCURVE",
"840 439 OFFCURVE",
"818 439 CURVE SMOOTH",
"798 439 OFFCURVE",
"776 433 OFFCURVE",
"773 416 CURVE SMOOTH",
"727 157 LINE SMOOTH",
"717 101 OFFCURVE",
"692 84 OFFCURVE",
"647 84 CURVE SMOOTH",
"482 84 LINE",
"494 105 OFFCURVE",
"503 131 OFFCURVE",
"508 160 CURVE SMOOTH",
"553 411 LINE SMOOTH",
"554 416 OFFCURVE",
"554 417 OFFCURVE",
"554 418 CURVE SMOOTH",
"554 431 OFFCURVE",
"533 439 OFFCURVE",
"511 439 CURVE SMOOTH",
"491 439 OFFCURVE",
"468 433 OFFCURVE",
"465 416 CURVE SMOOTH",
"419 157 LINE SMOOTH",
"409 101 OFFCURVE",
"384 84 OFFCURVE",
"339 84 CURVE SMOOTH",
"187 84 LINE",
"244 406 LINE SMOOTH",
"245 411 OFFCURVE",
"246 417 OFFCURVE",
"246 419 CURVE SMOOTH",
"246 433 OFFCURVE",
"227 439 OFFCURVE",
"207 439 CURVE SMOOTH",
"184 439 OFFCURVE",
"161 433 OFFCURVE",
"158 417 CURVE SMOOTH",
"50 -192 LINE SMOOTH",
"49 -195 OFFCURVE",
"49 -198 OFFCURVE",
"49 -199 CURVE SMOOTH",
"49 -213 OFFCURVE",
"69 -220 OFFCURVE",
"90 -220 CURVE SMOOTH"
);
},
{
closed = 1;
nodes = (
"926 0 LINE SMOOTH",
"941 0 OFFCURVE",
"949 21 OFFCURVE",
"949 42 CURVE SMOOTH",
"949 63 OFFCURVE",
"942 84 OFFCURVE",
"926 84 CURVE SMOOTH",
"634 84 LINE",
"634 0 LINE"
);
}
);
width = 910;
}
);
category = Letter;
},
{
glyphname = u10BAB.alt;
lastChange = "2018-04-03 13:12:53 +0000";
layers = (
{
layerId = UUID0;
paths = (
{
closed = 1;
nodes = (
"665 0 LINE SMOOTH",
"772 0 OFFCURVE",
"827 60 OFFCURVE",
"845 160 CURVE SMOOTH",
"889 411 LINE SMOOTH",
"890 413 OFFCURVE",
"890 417 OFFCURVE",
"890 418 CURVE SMOOTH",
"890 431 OFFCURVE",
"870 439 OFFCURVE",
"848 439 CURVE SMOOTH",
"828 439 OFFCURVE",
"805 433 OFFCURVE",
"802 416 CURVE SMOOTH",
"756 156 LINE SMOOTH",
"746 100 OFFCURVE",
"721 84 OFFCURVE",
"676 84 CURVE SMOOTH",
"512 84 LINE",
"523 105 OFFCURVE",
"532 131 OFFCURVE",
"537 160 CURVE SMOOTH",
"582 411 LINE SMOOTH",
"583 416 OFFCURVE",
"583 417 OFFCURVE",
"583 418 CURVE SMOOTH",
"583 431 OFFCURVE",
"562 439 OFFCURVE",
"540 439 CURVE SMOOTH",
"520 439 OFFCURVE",
"498 433 OFFCURVE",
"495 416 CURVE SMOOTH",
"449 157 LINE SMOOTH",
"439 101 OFFCURVE",
"414 84 OFFCURVE",
"369 84 CURVE SMOOTH",
"206 84 LINE",
"217 105 OFFCURVE",
"226 131 OFFCURVE",
"231 160 CURVE SMOOTH",
"275 411 LINE SMOOTH",
"276 414 OFFCURVE",
"276 417 OFFCURVE",
"276 418 CURVE SMOOTH",
"276 431 OFFCURVE",
"256 439 OFFCURVE",
"234 439 CURVE SMOOTH",
"214 439 OFFCURVE",
"191 433 OFFCURVE",
"188 416 CURVE SMOOTH",
"143 157 LINE SMOOTH",
"133 101 OFFCURVE",
"107 84 OFFCURVE",
"63 84 CURVE SMOOTH",
"57 84 LINE SMOOTH",
"31 84 OFFCURVE",
"24 58 OFFCURVE",
"24 36 CURVE SMOOTH",
"24 18 OFFCURVE",
"31 0 OFFCURVE",
"45 0 CURVE SMOOTH"
);
}
);
width = 939;
}
);
category = Letter;
},
{
glyphname = u10BAB.alt.fina;
lastChange = "2018-04-03 13:12:53 +0000";
layers = (
{
layerId = UUID0;
paths = (
{
closed = 1;
nodes = (
"665 0 LINE SMOOTH",
"772 0 OFFCURVE",
"827 60 OFFCURVE",
"845 160 CURVE SMOOTH",
"889 411 LINE SMOOTH",
"890 413 OFFCURVE",
"890 417 OFFCURVE",
"890 418 CURVE SMOOTH",
"890 431 OFFCURVE",
"870 439 OFFCURVE",
"848 439 CURVE SMOOTH",
"828 439 OFFCURVE",
"805 433 OFFCURVE",
"802 416 CURVE SMOOTH",
"756 156 LINE SMOOTH",
"746 100 OFFCURVE",
"721 84 OFFCURVE",
"676 84 CURVE SMOOTH",
"512 84 LINE",
"523 105 OFFCURVE",
"532 131 OFFCURVE",
"537 160 CURVE SMOOTH",
"582 411 LINE SMOOTH",
"583 416 OFFCURVE",
"583 417 OFFCURVE",
"583 418 CURVE SMOOTH",
"583 431 OFFCURVE",
"562 439 OFFCURVE",
"540 439 CURVE SMOOTH",
"520 439 OFFCURVE",
"498 433 OFFCURVE",
"495 416 CURVE SMOOTH",
"449 157 LINE SMOOTH",
"439 101 OFFCURVE",
"414 84 OFFCURVE",
"369 84 CURVE SMOOTH",
"206 84 LINE",
"217 105 OFFCURVE",
"226 131 OFFCURVE",
"231 160 CURVE SMOOTH",
"275 411 LINE SMOOTH",
"276 414 OFFCURVE",
"276 417 OFFCURVE",
"276 418 CURVE SMOOTH",
"276 431 OFFCURVE",
"256 439 OFFCURVE",
"234 439 CURVE SMOOTH",
"214 439 OFFCURVE",
"191 433 OFFCURVE",
"188 416 CURVE SMOOTH",
"143 157 LINE SMOOTH",
"133 101 OFFCURVE",
"107 84 OFFCURVE",
"63 84 CURVE SMOOTH",
"57 84 LINE SMOOTH",
"31 84 OFFCURVE",
"24 58 OFFCURVE",
"24 36 CURVE SMOOTH",
"24 18 OFFCURVE",
"31 0 OFFCURVE",
"45 0 CURVE SMOOTH"
);
},
{
closed = 1;
nodes = (
"956 0 LINE SMOOTH",
"971 0 OFFCURVE",
"979 21 OFFCURVE",
"979 42 CURVE SMOOTH",
"979 63 OFFCURVE",
"972 84 OFFCURVE",
"956 84 CURVE SMOOTH",
"664 84 LINE",
"664 0 LINE"
);
}
);
width = 939;
}
);
category = Letter;
},
{
glyphname = u10BAC.fina;
lastChange = "2018-04-03 13:12:53 +0000";
layers = (
{
layerId = UUID0;
paths = (
{
closed = 1;
nodes = (
"112 -220 OFFCURVE",
"134 -212 OFFCURVE",
"137 -197 CURVE SMOOTH",
"172 0 LINE",
"855 0 LINE SMOOTH",
"962 0 OFFCURVE",
"1017 60 OFFCURVE",
"1035 160 CURVE SMOOTH",
"1080 411 LINE SMOOTH",
"1081 413 OFFCURVE",
"1081 416 OFFCURVE",
"1081 418 CURVE SMOOTH",
"1081 431 OFFCURVE",
"1061 439 OFFCURVE",
"1038 439 CURVE SMOOTH",
"1018 439 OFFCURVE",
"996 433 OFFCURVE",
"993 416 CURVE SMOOTH",
"947 157 LINE SMOOTH",
"937 101 OFFCURVE",
"912 84 OFFCURVE",
"867 84 CURVE SMOOTH",
"731 84 LINE",
"743 105 OFFCURVE",
"752 131 OFFCURVE",
"757 160 CURVE SMOOTH",
"802 411 LINE SMOOTH",
"803 416 OFFCURVE",
"803 417 OFFCURVE",
"803 418 CURVE SMOOTH",
"803 431 OFFCURVE",
"782 439 OFFCURVE",
"760 439 CURVE SMOOTH",
"740 439 OFFCURVE",
"717 433 OFFCURVE",
"714 416 CURVE SMOOTH",
"668 157 LINE SMOOTH",
"658 101 OFFCURVE",
"633 84 OFFCURVE",
"588 84 CURVE SMOOTH",
"453 84 LINE",
"465 105 OFFCURVE",
"474 132 OFFCURVE",
"479 161 CURVE SMOOTH",
"523 406 LINE SMOOTH",
"524 413 OFFCURVE",
"524 417 OFFCURVE",
"524 418 CURVE SMOOTH",
"524 431 OFFCURVE",
"503 439 OFFCURVE",
"481 439 CURVE SMOOTH",
"461 439 OFFCURVE",
"439 433 OFFCURVE",
"436 416 CURVE SMOOTH",
"390 157 LINE SMOOTH",
"380 103 OFFCURVE",
"356 84 OFFCURVE",
"313 84 CURVE SMOOTH",
"187 84 LINE",
"245 411 LINE SMOOTH",
"246 417 OFFCURVE",
"246 418 OFFCURVE",
"246 420 CURVE SMOOTH",
"246 432 OFFCURVE",
"227 439 OFFCURVE",
"207 439 CURVE SMOOTH",
"185 439 OFFCURVE",
"161 433 OFFCURVE",
"158 417 CURVE SMOOTH",
"50 -192 LINE SMOOTH",
"49 -195 OFFCURVE",
"49 -198 OFFCURVE",
"49 -199 CURVE SMOOTH",
"49 -213 OFFCURVE",
"69 -220 OFFCURVE",
"90 -220 CURVE SMOOTH"
);
},
{
closed = 1;
nodes = (
"1146 0 LINE SMOOTH",
"1161 0 OFFCURVE",
"1169 21 OFFCURVE",
"1169 42 CURVE SMOOTH",
"1169 63 OFFCURVE",
"1162 84 OFFCURVE",
"1146 84 CURVE SMOOTH",
"854 84 LINE",
"854 0 LINE"
);
}
);
width = 1130;
}
);
category = Letter;
},
{
glyphname = u10BAC.alt;
lastChange = "2018-04-03 13:12:53 +0000";
layers = (
{
layerId = UUID0;
paths = (
{
closed = 1;
nodes = (
"884 0 LINE SMOOTH",
"992 0 OFFCURVE",
"1046 60 OFFCURVE",
"1064 160 CURVE SMOOTH",
"1109 411 LINE SMOOTH",
"1110 415 OFFCURVE",
"1110 417 OFFCURVE",
"1110 418 CURVE SMOOTH",
"1110 431 OFFCURVE",
"1090 439 OFFCURVE",
"1067 439 CURVE SMOOTH",
"1047 439 OFFCURVE",
"1025 433 OFFCURVE",
"1022 416 CURVE SMOOTH",
"976 157 LINE SMOOTH",
"966 101 OFFCURVE",
"941 84 OFFCURVE",
"896 84 CURVE SMOOTH",
"761 84 LINE",
"772 105 OFFCURVE",
"781 131 OFFCURVE",
"786 160 CURVE SMOOTH",
"831 411 LINE SMOOTH",
"832 416 OFFCURVE",
"832 417 OFFCURVE",
"832 418 CURVE SMOOTH",
"832 431 OFFCURVE",
"811 439 OFFCURVE",
"789 439 CURVE SMOOTH",
"769 439 OFFCURVE",
"747 433 OFFCURVE",
"744 416 CURVE SMOOTH",
"698 157 LINE SMOOTH",
"688 103 OFFCURVE",
"664 84 OFFCURVE",
"621 84 CURVE SMOOTH",
"482 84 LINE",
"494 105 OFFCURVE",
"503 131 OFFCURVE",
"508 160 CURVE SMOOTH",
"552 411 LINE SMOOTH",
"553 414 OFFCURVE",
"553 417 OFFCURVE",
"553 418 CURVE SMOOTH",
"553 431 OFFCURVE",
"533 439 OFFCURVE",
"511 439 CURVE SMOOTH",
"491 439 OFFCURVE",
"468 433 OFFCURVE",
"465 416 CURVE SMOOTH",
"419 157 LINE SMOOTH",
"409 103 OFFCURVE",
"386 84 OFFCURVE",
"343 84 CURVE SMOOTH",
"206 84 LINE",
"217 105 OFFCURVE",
"226 131 OFFCURVE",
"231 160 CURVE SMOOTH",
"275 411 LINE SMOOTH",
"276 413 OFFCURVE",
"276 417 OFFCURVE",
"276 418 CURVE SMOOTH",
"276 431 OFFCURVE",
"256 439 OFFCURVE",
"234 439 CURVE SMOOTH",
"214 439 OFFCURVE",
"191 433 OFFCURVE",
"188 416 CURVE SMOOTH",
"143 157 LINE SMOOTH",
"133 101 OFFCURVE",
"107 84 OFFCURVE",
"63 84 CURVE SMOOTH",
"57 84 LINE SMOOTH",
"34 84 OFFCURVE",
"24 61 OFFCURVE",
"24 36 CURVE SMOOTH",
"24 15 OFFCURVE",
"34 0 OFFCURVE",
"47 0 CURVE SMOOTH"
);
}
);
width = 1159;
}
);
category = Letter;
},
{
glyphname = u10BAC.alt.fina;
lastChange = "2018-04-03 13:12:53 +0000";
layers = (
{
layerId = UUID0;
paths = (
{
closed = 1;
nodes = (
"884 0 LINE SMOOTH",
"992 0 OFFCURVE",
"1046 60 OFFCURVE",
"1064 160 CURVE SMOOTH",
"1109 411 LINE SMOOTH",
"1110 415 OFFCURVE",
"1110 417 OFFCURVE",
"1110 418 CURVE SMOOTH",
"1110 431 OFFCURVE",
"1090 439 OFFCURVE",
"1067 439 CURVE SMOOTH",
"1047 439 OFFCURVE",
"1025 433 OFFCURVE",
"1022 416 CURVE SMOOTH",
"976 157 LINE SMOOTH",
"966 101 OFFCURVE",
"941 84 OFFCURVE",
"896 84 CURVE SMOOTH",
"761 84 LINE",
"772 105 OFFCURVE",
"781 131 OFFCURVE",
"786 160 CURVE SMOOTH",
"831 411 LINE SMOOTH",
"832 416 OFFCURVE",
"832 417 OFFCURVE",
"832 418 CURVE SMOOTH",
"832 431 OFFCURVE",
"811 439 OFFCURVE",
"789 439 CURVE SMOOTH",
"769 439 OFFCURVE",
"747 433 OFFCURVE",
"744 416 CURVE SMOOTH",
"698 157 LINE SMOOTH",
"688 103 OFFCURVE",
"664 84 OFFCURVE",
"621 84 CURVE SMOOTH",
"482 84 LINE",
"494 105 OFFCURVE",
"503 131 OFFCURVE",
"508 160 CURVE SMOOTH",
"552 411 LINE SMOOTH",
"553 414 OFFCURVE",
"553 417 OFFCURVE",
"553 418 CURVE SMOOTH",
"553 431 OFFCURVE",
"533 439 OFFCURVE",
"511 439 CURVE SMOOTH",
"491 439 OFFCURVE",
"468 433 OFFCURVE",
"465 416 CURVE SMOOTH",
"419 157 LINE SMOOTH",
"409 103 OFFCURVE",
"386 84 OFFCURVE",
"343 84 CURVE SMOOTH",
"206 84 LINE",
"217 105 OFFCURVE",
"226 131 OFFCURVE",
"231 160 CURVE SMOOTH",
"275 411 LINE SMOOTH",
"276 413 OFFCURVE",
"276 417 OFFCURVE",
"276 418 CURVE SMOOTH",
"276 431 OFFCURVE",
"256 439 OFFCURVE",
"234 439 CURVE SMOOTH",
"214 439 OFFCURVE",
"191 433 OFFCURVE",
"188 416 CURVE SMOOTH",
"143 157 LINE SMOOTH",
"133 101 OFFCURVE",
"107 84 OFFCURVE",
"63 84 CURVE SMOOTH",
"57 84 LINE SMOOTH",
"34 84 OFFCURVE",
"24 61 OFFCURVE",
"24 36 CURVE SMOOTH",
"24 15 OFFCURVE",
"34 0 OFFCURVE",
"47 0 CURVE SMOOTH"
);
},
{
closed = 1;
nodes = (
"1175 0 LINE SMOOTH",
"1190 0 OFFCURVE",
"1198 21 OFFCURVE",
"1198 42 CURVE SMOOTH",
"1198 63 OFFCURVE",
"1191 84 OFFCURVE",
"1175 84 CURVE SMOOTH",
"883 84 LINE",
"883 0 LINE"
);
}
);
width = 1159;
}
);
category = Letter;
},
{
glyphname = u10BAD.fina;
lastChange = "2018-04-03 13:12:53 +0000";
layers = (
{
layerId = UUID0;
paths = (
{
closed = 1;
nodes = (
"405 -21 OFFCURVE",
"552 28 OFFCURVE",
"552 205 CURVE SMOOTH",
"552 274 OFFCURVE",
"500 345 OFFCURVE",
"381 347 CURVE",
"442 692 LINE SMOOTH",
"444 704 OFFCURVE",
"445 710 OFFCURVE",
"445 712 CURVE SMOOTH",
"445 726 OFFCURVE",
"426 732 OFFCURVE",
"406 732 CURVE SMOOTH",
"383 732 OFFCURVE",
"360 725 OFFCURVE",
"357 709 CURVE SMOOTH",
"301 374 LINE SMOOTH",
"297 352 OFFCURVE",
"282 332 OFFCURVE",
"266 314 CURVE SMOOTH",
"251 298 OFFCURVE",
"241 286 OFFCURVE",
"241 271 CURVE SMOOTH",
"241 251 OFFCURVE",
"255 239 OFFCURVE",
"277 239 CURVE SMOOTH",
"291 239 OFFCURVE",
"305 243 OFFCURVE",
"322 250 CURVE SMOOTH",
"341 258 OFFCURVE",
"360 266 OFFCURVE",
"381 266 CURVE SMOOTH",
"414 266 OFFCURVE",
"461 252 OFFCURVE",
"461 191 CURVE SMOOTH",
"461 102 OFFCURVE",
"395 63 OFFCURVE",
"252 63 CURVE SMOOTH",
"209 63 OFFCURVE",
"172 69 OFFCURVE",
"137 75 CURVE SMOOTH",
"108 80 OFFCURVE",
"82 84 OFFCURVE",
"56 84 CURVE SMOOTH",
"37 84 OFFCURVE",
"24 54 OFFCURVE",
"24 30 CURVE SMOOTH",
"24 15 OFFCURVE",
"30 0 OFFCURVE",
"42 0 CURVE SMOOTH",
"58 0 OFFCURVE",
"80 -3 OFFCURVE",
"104 -7 CURVE SMOOTH",
"142 -14 OFFCURVE",
"190 -21 OFFCURVE",
"250 -21 CURVE SMOOTH"
);
},
{
closed = 1;
nodes = (
"617 0 LINE SMOOTH",
"632 0 OFFCURVE",
"641 21 OFFCURVE",
"641 42 CURVE SMOOTH",
"641 63 OFFCURVE",
"633 84 OFFCURVE",
"617 84 CURVE SMOOTH",
"394 84 LINE",
"394 0 LINE"
);
}
);
width = 601;
}
);
category = Letter;
},
{
glyphname = u10BAD.medi;
lastChange = "2018-04-03 13:12:53 +0000";
layers = (
{
layerId = UUID0;
paths = (
{
closed = 1;
nodes = (
"371 -21 OFFCURVE",
"518 28 OFFCURVE",
"518 205 CURVE SMOOTH",
"518 274 OFFCURVE",
"466 345 OFFCURVE",
"347 347 CURVE",
"408 692 LINE SMOOTH",
"410 704 OFFCURVE",
"411 710 OFFCURVE",
"411 712 CURVE SMOOTH",
"411 726 OFFCURVE",
"392 732 OFFCURVE",
"372 732 CURVE SMOOTH",
"349 732 OFFCURVE",
"326 725 OFFCURVE",
"323 709 CURVE SMOOTH",
"267 374 LINE SMOOTH",
"263 352 OFFCURVE",
"248 332 OFFCURVE",
"232 314 CURVE SMOOTH",
"217 298 OFFCURVE",
"207 286 OFFCURVE",
"207 271 CURVE SMOOTH",
"207 251 OFFCURVE",
"221 239 OFFCURVE",
"243 239 CURVE SMOOTH",
"257 239 OFFCURVE",
"271 243 OFFCURVE",
"288 250 CURVE SMOOTH",
"307 258 OFFCURVE",
"326 266 OFFCURVE",
"347 266 CURVE SMOOTH",
"380 266 OFFCURVE",
"427 252 OFFCURVE",
"427 191 CURVE SMOOTH",
"427 102 OFFCURVE",
"361 63 OFFCURVE",
"218 63 CURVE SMOOTH",
"175 63 OFFCURVE",
"138 69 OFFCURVE",
"103 75 CURVE SMOOTH",
"74 80 OFFCURVE",
"48 84 OFFCURVE",
"22 84 CURVE SMOOTH",
"3 84 OFFCURVE",
"-10 54 OFFCURVE",
"-10 30 CURVE SMOOTH",
"-10 15 OFFCURVE",
"-4 0 OFFCURVE",
"8 0 CURVE SMOOTH",
"24 0 OFFCURVE",
"46 -3 OFFCURVE",
"70 -7 CURVE SMOOTH",
"108 -14 OFFCURVE",
"156 -21 OFFCURVE",
"216 -21 CURVE SMOOTH"
);
},
{
closed = 1;
nodes = (
"32 0 LINE",
"32 84 LINE",
"-16 84 LINE SMOOTH",
"-32 84 OFFCURVE",
"-39 63 OFFCURVE",
"-39 42 CURVE SMOOTH",
"-39 21 OFFCURVE",
"-31 0 OFFCURVE",
"-16 0 CURVE SMOOTH"
);
},
{
closed = 1;
nodes = (
"582 0 LINE SMOOTH",
"597 0 OFFCURVE",
"606 21 OFFCURVE",
"606 42 CURVE SMOOTH",
"606 63 OFFCURVE",
"598 84 OFFCURVE",
"582 84 CURVE SMOOTH",
"359 84 LINE",
"359 0 LINE"
);
}
);
width = 567;
}
);
category = Letter;
},
{
glyphname = u10BAD.init;
lastChange = "2018-04-03 13:12:53 +0000";
layers = (
{
layerId = UUID0;
paths = (
{
closed = 1;
nodes = (
"371 -21 OFFCURVE",
"518 28 OFFCURVE",
"518 205 CURVE SMOOTH",
"518 274 OFFCURVE",
"466 345 OFFCURVE",
"347 347 CURVE",
"408 692 LINE SMOOTH",
"410 704 OFFCURVE",
"411 710 OFFCURVE",
"411 712 CURVE SMOOTH",
"411 726 OFFCURVE",
"392 732 OFFCURVE",
"372 732 CURVE SMOOTH",
"349 732 OFFCURVE",
"326 725 OFFCURVE",
"323 709 CURVE SMOOTH",
"267 374 LINE SMOOTH",
"263 352 OFFCURVE",
"248 332 OFFCURVE",
"232 314 CURVE SMOOTH",
"217 298 OFFCURVE",
"207 286 OFFCURVE",
"207 271 CURVE SMOOTH",
"207 251 OFFCURVE",
"221 239 OFFCURVE",
"243 239 CURVE SMOOTH",
"257 239 OFFCURVE",
"271 243 OFFCURVE",
"288 250 CURVE SMOOTH",
"307 258 OFFCURVE",
"326 266 OFFCURVE",
"347 266 CURVE SMOOTH",
"380 266 OFFCURVE",
"427 252 OFFCURVE",
"427 191 CURVE SMOOTH",
"427 102 OFFCURVE",
"361 63 OFFCURVE",
"218 63 CURVE SMOOTH",
"175 63 OFFCURVE",
"138 69 OFFCURVE",
"103 75 CURVE SMOOTH",
"74 80 OFFCURVE",
"48 84 OFFCURVE",
"22 84 CURVE SMOOTH",
"3 84 OFFCURVE",
"-10 54 OFFCURVE",
"-10 30 CURVE SMOOTH",
"-10 15 OFFCURVE",
"-4 0 OFFCURVE",
"8 0 CURVE SMOOTH",
"24 0 OFFCURVE",
"46 -3 OFFCURVE",
"70 -7 CURVE SMOOTH",
"108 -14 OFFCURVE",
"156 -21 OFFCURVE",
"216 -21 CURVE SMOOTH"
);
},
{
closed = 1;
nodes = (
"32 0 LINE",
"32 84 LINE",
"-16 84 LINE SMOOTH",
"-32 84 OFFCURVE",
"-39 63 OFFCURVE",
"-39 42 CURVE SMOOTH",
"-39 21 OFFCURVE",
"-31 0 OFFCURVE",
"-16 0 CURVE SMOOTH"
);
}
);
width = 567;
}
);
category = Letter;
},
{
glyphname = u10BAE.fina;
lastChange = "2018-04-03 13:12:53 +0000";
layers = (
{
layerId = UUID0;
paths = (
{
closed = 1;
nodes = (
"407 -21 OFFCURVE",
"552 28 OFFCURVE",
"552 205 CURVE SMOOTH",
"552 275 OFFCURVE",
"506 347 OFFCURVE",
"384 347 CURVE SMOOTH",
"332 347 OFFCURVE",
"241 333 OFFCURVE",
"241 271 CURVE SMOOTH",
"241 251 OFFCURVE",
"255 239 OFFCURVE",
"277 239 CURVE SMOOTH",
"291 239 OFFCURVE",
"306 244 OFFCURVE",
"321 250 CURVE SMOOTH",
"340 258 OFFCURVE",
"360 266 OFFCURVE",
"381 266 CURVE SMOOTH",
"414 266 OFFCURVE",
"461 252 OFFCURVE",
"461 191 CURVE SMOOTH",
"461 95 OFFCURVE",
"385 63 OFFCURVE",
"242 63 CURVE SMOOTH",
"200 63 OFFCURVE",
"166 69 OFFCURVE",
"134 75 CURVE SMOOTH",
"107 80 OFFCURVE",
"83 84 OFFCURVE",
"56 84 CURVE SMOOTH",
"37 84 OFFCURVE",
"24 54 OFFCURVE",
"24 30 CURVE SMOOTH",
"24 15 OFFCURVE",
"30 0 OFFCURVE",
"42 0 CURVE SMOOTH",
"55 0 OFFCURVE",
"74 -3 OFFCURVE",
"97 -7 CURVE SMOOTH",
"134 -14 OFFCURVE",
"181 -21 OFFCURVE",
"235 -21 CURVE SMOOTH"
);
},
{
closed = 1;
nodes = (
"617 0 LINE SMOOTH",
"632 0 OFFCURVE",
"641 21 OFFCURVE",
"641 42 CURVE SMOOTH",
"641 63 OFFCURVE",
"633 84 OFFCURVE",
"617 84 CURVE SMOOTH",
"394 84 LINE",
"394 0 LINE"
);
}
);
width = 601;
}
);
category = Letter;
},
{
glyphname = u10BAE.medi;
lastChange = "2018-04-03 13:12:53 +0000";
layers = (
{
layerId = UUID0;
paths = (
{
closed = 1;
nodes = (
"373 -21 OFFCURVE",
"518 28 OFFCURVE",
"518 205 CURVE SMOOTH",
"518 275 OFFCURVE",
"472 347 OFFCURVE",
"350 347 CURVE SMOOTH",
"298 347 OFFCURVE",
"207 333 OFFCURVE",
"207 271 CURVE SMOOTH",
"207 251 OFFCURVE",
"221 239 OFFCURVE",
"243 239 CURVE SMOOTH",
"257 239 OFFCURVE",
"272 244 OFFCURVE",
"287 250 CURVE SMOOTH",
"306 258 OFFCURVE",
"326 266 OFFCURVE",
"347 266 CURVE SMOOTH",
"380 266 OFFCURVE",
"427 252 OFFCURVE",
"427 191 CURVE SMOOTH",
"427 95 OFFCURVE",
"351 63 OFFCURVE",
"208 63 CURVE SMOOTH",
"166 63 OFFCURVE",
"132 69 OFFCURVE",
"100 75 CURVE SMOOTH",
"73 80 OFFCURVE",
"49 84 OFFCURVE",
"22 84 CURVE SMOOTH",
"3 84 OFFCURVE",
"-10 54 OFFCURVE",
"-10 30 CURVE SMOOTH",
"-10 15 OFFCURVE",
"-4 0 OFFCURVE",
"8 0 CURVE SMOOTH",
"21 0 OFFCURVE",
"40 -3 OFFCURVE",
"63 -7 CURVE SMOOTH",
"100 -14 OFFCURVE",
"147 -21 OFFCURVE",
"201 -21 CURVE SMOOTH"
);
},
{
closed = 1;
nodes = (
"582 0 LINE SMOOTH",
"597 0 OFFCURVE",
"606 21 OFFCURVE",
"606 42 CURVE SMOOTH",
"606 63 OFFCURVE",
"598 84 OFFCURVE",
"582 84 CURVE SMOOTH",
"359 84 LINE",
"359 0 LINE"
);
},
{
closed = 1;
nodes = (
"32 0 LINE",
"32 84 LINE",
"-16 84 LINE SMOOTH",
"-32 84 OFFCURVE",
"-39 63 OFFCURVE",
"-39 42 CURVE SMOOTH",
"-39 21 OFFCURVE",
"-31 0 OFFCURVE",
"-16 0 CURVE SMOOTH"
);
}
);
width = 567;
}
);
category = Letter;
},
{
glyphname = u10BAE.init;
lastChange = "2018-04-03 13:12:53 +0000";
layers = (
{
layerId = UUID0;
paths = (
{
closed = 1;
nodes = (
"373 -21 OFFCURVE",
"518 28 OFFCURVE",
"518 205 CURVE SMOOTH",
"518 275 OFFCURVE",
"472 347 OFFCURVE",
"350 347 CURVE SMOOTH",
"298 347 OFFCURVE",
"207 333 OFFCURVE",
"207 271 CURVE SMOOTH",
"207 251 OFFCURVE",
"221 239 OFFCURVE",
"243 239 CURVE SMOOTH",
"257 239 OFFCURVE",
"272 244 OFFCURVE",
"287 250 CURVE SMOOTH",
"306 258 OFFCURVE",
"326 266 OFFCURVE",
"347 266 CURVE SMOOTH",
"380 266 OFFCURVE",
"427 252 OFFCURVE",
"427 191 CURVE SMOOTH",
"427 95 OFFCURVE",
"351 63 OFFCURVE",
"208 63 CURVE SMOOTH",
"166 63 OFFCURVE",
"132 69 OFFCURVE",
"100 75 CURVE SMOOTH",
"73 80 OFFCURVE",
"49 84 OFFCURVE",
"22 84 CURVE SMOOTH",
"3 84 OFFCURVE",
"-10 54 OFFCURVE",
"-10 30 CURVE SMOOTH",
"-10 15 OFFCURVE",
"-4 0 OFFCURVE",
"8 0 CURVE SMOOTH",
"21 0 OFFCURVE",
"40 -3 OFFCURVE",
"63 -7 CURVE SMOOTH",
"100 -14 OFFCURVE",
"147 -21 OFFCURVE",
"201 -21 CURVE SMOOTH"
);
},
{
closed = 1;
nodes = (
"32 0 LINE",
"32 84 LINE",
"-16 84 LINE SMOOTH",
"-32 84 OFFCURVE",
"-39 63 OFFCURVE",
"-39 42 CURVE SMOOTH",
"-39 21 OFFCURVE",
"-31 0 OFFCURVE",
"-16 0 CURVE SMOOTH"
);
}
);
width = 567;
}
);
category = Letter;
},
{
glyphname = uni25CC;
lastChange = "2018-04-03 13:12:53 +0000";
layers = (
{
layerId = UUID0;
paths = (
{
closed = 1;
nodes = (
"469 423 OFFCURVE",
"481 435 OFFCURVE",
"481 449 CURVE SMOOTH",
"481 463 OFFCURVE",
"469 475 OFFCURVE",
"455 475 CURVE SMOOTH",
"441 475 OFFCURVE",
"429 463 OFFCURVE",
"429 449 CURVE SMOOTH",
"429 435 OFFCURVE",
"441 423 OFFCURVE",
"455 423 CURVE SMOOTH"
);
},
{
closed = 1;
nodes = (
"153 107 OFFCURVE",
"165 119 OFFCURVE",
"165 133 CURVE SMOOTH",
"165 147 OFFCURVE",
"153 159 OFFCURVE",
"139 159 CURVE SMOOTH",
"125 159 OFFCURVE",
"113 147 OFFCURVE",
"113 133 CURVE SMOOTH",
"113 119 OFFCURVE",
"125 107 OFFCURVE",
"139 107 CURVE SMOOTH"
);
},
{
closed = 1;
nodes = (
"227 60 OFFCURVE",
"239 72 OFFCURVE",
"239 86 CURVE SMOOTH",
"239 100 OFFCURVE",
"227 112 OFFCURVE",
"213 112 CURVE SMOOTH",
"199 112 OFFCURVE",
"187 100 OFFCURVE",
"187 86 CURVE SMOOTH",
"187 72 OFFCURVE",
"199 60 OFFCURVE",
"213 60 CURVE SMOOTH"
);
},
{
closed = 1;
nodes = (
"106 181 OFFCURVE",
"118 193 OFFCURVE",
"118 207 CURVE SMOOTH",
"118 221 OFFCURVE",
"106 233 OFFCURVE",
"92 233 CURVE SMOOTH",
"78 233 OFFCURVE",
"66 221 OFFCURVE",
"66 207 CURVE SMOOTH",
"66 193 OFFCURVE",
"78 181 OFFCURVE",
"92 181 CURVE SMOOTH"
);
},
{
closed = 1;
nodes = (
"311 42 OFFCURVE",
"323 54 OFFCURVE",
"323 68 CURVE SMOOTH",
"323 82 OFFCURVE",
"311 94 OFFCURVE",
"297 94 CURVE SMOOTH",
"283 94 OFFCURVE",
"271 82 OFFCURVE",
"271 68 CURVE SMOOTH",
"271 54 OFFCURVE",
"283 42 OFFCURVE",
"297 42 CURVE SMOOTH"
);
},
{
closed = 1;
nodes = (
"88 265 OFFCURVE",
"100 277 OFFCURVE",
"100 291 CURVE SMOOTH",
"100 305 OFFCURVE",
"88 317 OFFCURVE",
"74 317 CURVE SMOOTH",
"60 317 OFFCURVE",
"48 305 OFFCURVE",
"48 291 CURVE SMOOTH",
"48 277 OFFCURVE",
"60 265 OFFCURVE",
"74 265 CURVE SMOOTH"
);
},
{
closed = 1;
nodes = (
"395 60 OFFCURVE",
"407 72 OFFCURVE",
"407 86 CURVE SMOOTH",
"407 100 OFFCURVE",
"395 112 OFFCURVE",
"381 112 CURVE SMOOTH",
"367 112 OFFCURVE",
"355 100 OFFCURVE",
"355 86 CURVE SMOOTH",
"355 72 OFFCURVE",
"367 60 OFFCURVE",
"381 60 CURVE SMOOTH"
);
},
{
closed = 1;
nodes = (
"106 349 OFFCURVE",
"118 361 OFFCURVE",
"118 375 CURVE SMOOTH",
"118 389 OFFCURVE",
"106 401 OFFCURVE",
"92 401 CURVE SMOOTH",
"78 401 OFFCURVE",
"66 389 OFFCURVE",
"66 375 CURVE SMOOTH",
"66 361 OFFCURVE",
"78 349 OFFCURVE",
"92 349 CURVE SMOOTH"
);
},
{
closed = 1;
nodes = (
"153 423 OFFCURVE",
"165 435 OFFCURVE",
"165 449 CURVE SMOOTH",
"165 463 OFFCURVE",
"153 475 OFFCURVE",
"139 475 CURVE SMOOTH",
"125 475 OFFCURVE",
"113 463 OFFCURVE",
"113 449 CURVE SMOOTH",
"113 435 OFFCURVE",
"125 423 OFFCURVE",
"139 423 CURVE SMOOTH"
);
},
{
closed = 1;
nodes = (
"469 107 OFFCURVE",
"481 119 OFFCURVE",
"481 133 CURVE SMOOTH",
"481 147 OFFCURVE",
"469 159 OFFCURVE",
"455 159 CURVE SMOOTH",
"441 159 OFFCURVE",
"429 147 OFFCURVE",
"429 133 CURVE SMOOTH",
"429 119 OFFCURVE",
"441 107 OFFCURVE",
"455 107 CURVE SMOOTH"
);
},
{
closed = 1;
nodes = (
"227 470 OFFCURVE",
"239 482 OFFCURVE",
"239 496 CURVE SMOOTH",
"239 510 OFFCURVE",
"227 522 OFFCURVE",
"213 522 CURVE SMOOTH",
"199 522 OFFCURVE",
"187 510 OFFCURVE",
"187 496 CURVE SMOOTH",
"187 482 OFFCURVE",
"199 470 OFFCURVE",
"213 470 CURVE SMOOTH"
);
},
{
closed = 1;
nodes = (
"516 181 OFFCURVE",
"528 193 OFFCURVE",
"528 207 CURVE SMOOTH",
"528 221 OFFCURVE",
"516 233 OFFCURVE",
"502 233 CURVE SMOOTH",
"488 233 OFFCURVE",
"476 221 OFFCURVE",
"476 207 CURVE SMOOTH",
"476 193 OFFCURVE",
"488 181 OFFCURVE",
"502 181 CURVE SMOOTH"
);
},
{
closed = 1;
nodes = (
"311 488 OFFCURVE",
"323 500 OFFCURVE",
"323 514 CURVE SMOOTH",
"323 528 OFFCURVE",
"311 540 OFFCURVE",
"297 540 CURVE SMOOTH",
"283 540 OFFCURVE",
"271 528 OFFCURVE",
"271 514 CURVE SMOOTH",
"271 500 OFFCURVE",
"283 488 OFFCURVE",
"297 488 CURVE SMOOTH"
);
},
{
closed = 1;
nodes = (
"534 265 OFFCURVE",
"546 277 OFFCURVE",
"546 291 CURVE SMOOTH",
"546 305 OFFCURVE",
"534 317 OFFCURVE",
"520 317 CURVE SMOOTH",
"506 317 OFFCURVE",
"494 305 OFFCURVE",
"494 291 CURVE SMOOTH",
"494 277 OFFCURVE",
"506 265 OFFCURVE",
"520 265 CURVE SMOOTH"
);
},
{
closed = 1;
nodes = (
"395 470 OFFCURVE",
"407 482 OFFCURVE",
"407 496 CURVE SMOOTH",
"407 510 OFFCURVE",
"395 522 OFFCURVE",
"381 522 CURVE SMOOTH",
"367 522 OFFCURVE",
"355 510 OFFCURVE",
"355 496 CURVE SMOOTH",
"355 482 OFFCURVE",
"367 470 OFFCURVE",
"381 470 CURVE SMOOTH"
);
},
{
closed = 1;
nodes = (
"516 349 OFFCURVE",
"528 361 OFFCURVE",
"528 375 CURVE SMOOTH",
"528 389 OFFCURVE",
"516 401 OFFCURVE",
"502 401 CURVE SMOOTH",
"488 401 OFFCURVE",
"476 389 OFFCURVE",
"476 375 CURVE SMOOTH",
"476 361 OFFCURVE",
"488 349 OFFCURVE",
"502 349 CURVE SMOOTH"
);
}
);
width = 594;
}
);
unicode = 25CC;
category = Letter;
},
{
glyphname = u10B89_alt2;
lastChange = "2018-04-03 13:12:53 +0000";
layers = (
{
layerId = UUID0;
paths = (
{
closed = 1;
nodes = (
"517 -529 OFFCURVE",
"607 -523 OFFCURVE",
"713 -516 CURVE SMOOTH",
"799 -510 OFFCURVE",
"879 -505 OFFCURVE",
"972 -505 CURVE SMOOTH",
"987 -505 OFFCURVE",
"995 -484 OFFCURVE",
"995 -463 CURVE SMOOTH",
"995 -442 OFFCURVE",
"988 -427 OFFCURVE",
"972 -426 CURVE SMOOTH",
"946 -424 OFFCURVE",
"917 -423 OFFCURVE",
"886 -423 CURVE SMOOTH",
"812 -423 OFFCURVE",
"741 -428 OFFCURVE",
"667 -434 CURVE SMOOTH",
"588 -440 OFFCURVE",
"504 -445 OFFCURVE",
"407 -445 CURVE SMOOTH",
"292 -445 OFFCURVE",
"170 -439 OFFCURVE",
"170 -308 CURVE SMOOTH",
"170 -235 OFFCURVE",
"196 -182 OFFCURVE",
"228 -120 CURVE SMOOTH",
"262 -54 OFFCURVE",
"303 43 OFFCURVE",
"303 189 CURVE SMOOTH",
"303 273 OFFCURVE",
"285 376 OFFCURVE",
"222 376 CURVE SMOOTH",
"155 376 OFFCURVE",
"24 216 OFFCURVE",
"24 158 CURVE SMOOTH",
"24 117 OFFCURVE",
"52 93 OFFCURVE",
"93 93 CURVE SMOOTH",
"141 93 OFFCURVE",
"179 96 OFFCURVE",
"199 99 CURVE",
"195 52 OFFCURVE",
"182 -7 OFFCURVE",
"148 -73 CURVE SMOOTH",
"114 -138 OFFCURVE",
"79 -213 OFFCURVE",
"79 -308 CURVE SMOOTH",
"79 -497 OFFCURVE",
"216 -529 OFFCURVE",
"384 -529 CURVE SMOOTH"
);
},
{
closed = 1;
nodes = (
"135 177 OFFCURVE",
"133 188 OFFCURVE",
"133 195 CURVE SMOOTH",
"133 218 OFFCURVE",
"178 265 OFFCURVE",
"191 265 CURVE SMOOTH",
"203 265 OFFCURVE",
"211 252 OFFCURVE",
"211 212 CURVE SMOOTH",
"211 205 OFFCURVE",
"211 202 OFFCURVE",
"210 183 CURVE",
"187 178 OFFCURVE",
"161 177 OFFCURVE",
"148 177 CURVE SMOOTH"
);
}
);
width = 800;
}
);
category = Letter;
},
{
glyphname = u10B8C_alt2;
lastChange = "2018-04-03 13:12:53 +0000";
layers = (
{
layerId = UUID0;
paths = (
{
closed = 1;
nodes = (
"485 -521 OFFCURVE",
"605 -495 OFFCURVE",
"630 -488 CURVE SMOOTH",
"645 -484 OFFCURVE",
"653 -470 OFFCURVE",
"653 -449 CURVE SMOOTH",
"653 -428 OFFCURVE",
"642 -412 OFFCURVE",
"617 -412 CURVE SMOOTH",
"602 -412 OFFCURVE",
"577 -414 OFFCURVE",
"544 -420 CURVE SMOOTH",
"495 -429 OFFCURVE",
"432 -437 OFFCURVE",
"377 -437 CURVE SMOOTH",
"235 -437 OFFCURVE",
"161 -391 OFFCURVE",
"161 -211 CURVE SMOOTH",
"161 -2 OFFCURVE",
"165 207 OFFCURVE",
"172 416 CURVE SMOOTH",
"172 417 LINE",
"172 433 OFFCURVE",
"150 439 OFFCURVE",
"131 439 CURVE SMOOTH",
"107 439 OFFCURVE",
"85 430 OFFCURVE",
"84 416 CURVE SMOOTH",
"75 215 OFFCURVE",
"73 6 OFFCURVE",
"73 -217 CURVE SMOOTH",
"73 -423 OFFCURVE",
"154 -521 OFFCURVE",
"371 -521 CURVE SMOOTH"
);
}
);
width = 576;
}
);
category = Letter;
},
{
glyphname = u10B8F_alt2;
lastChange = "2018-04-03 13:12:53 +0000";
layers = (
{
layerId = UUID0;
paths = (
{
closed = 1;
nodes = (
"449 -490 OFFCURVE",
"575 -460 OFFCURVE",
"600 -453 CURVE SMOOTH",
"615 -449 OFFCURVE",
"623 -435 OFFCURVE",
"623 -414 CURVE SMOOTH",
"623 -393 OFFCURVE",
"611 -380 OFFCURVE",
"588 -380 CURVE SMOOTH",
"567 -380 OFFCURVE",
"546 -383 OFFCURVE",
"521 -388 CURVE SMOOTH",
"480 -397 OFFCURVE",
"427 -406 OFFCURVE",
"339 -406 CURVE SMOOTH",
"180 -406 OFFCURVE",
"134 -341 OFFCURVE",
"134 -139 CURVE SMOOTH",
"134 -106 OFFCURVE",
"136 -64 OFFCURVE",
"139 -25 CURVE SMOOTH",
"165 314 LINE",
"153 314 LINE",
"160 264 OFFCURVE",
"175 203 OFFCURVE",
"184 168 CURVE SMOOTH",
"208 73 OFFCURVE",
"249 -2 OFFCURVE",
"369 -2 CURVE SMOOTH",
"525 -2 OFFCURVE",
"576 74 OFFCURVE",
"576 217 CURVE SMOOTH",
"576 380 OFFCURVE",
"542 420 OFFCURVE",
"500 420 CURVE SMOOTH",
"434 420 OFFCURVE",
"372 332 OFFCURVE",
"372 278 CURVE SMOOTH",
"372 262 OFFCURVE",
"381 236 OFFCURVE",
"404 236 CURVE SMOOTH",
"419 236 OFFCURVE",
"432 243 OFFCURVE",
"444 251 CURVE SMOOTH",
"454 258 OFFCURVE",
"463 264 OFFCURVE",
"473 264 CURVE SMOOTH",
"480 264 OFFCURVE",
"488 260 OFFCURVE",
"488 192 CURVE SMOOTH",
"488 125 OFFCURVE",
"464 83 OFFCURVE",
"377 83 CURVE SMOOTH",
"299 83 OFFCURVE",
"284 128 OFFCURVE",
"255 236 CURVE SMOOTH",
"207 414 OFFCURVE",
"192 439 OFFCURVE",
"153 439 CURVE SMOOTH",
"115 439 OFFCURVE",
"92 372 OFFCURVE",
"71 140 CURVE SMOOTH",
"55 -34 LINE SMOOTH",
"52 -68 OFFCURVE",
"49 -125 OFFCURVE",
"49 -165 CURVE SMOOTH",
"49 -411 OFFCURVE",
"146 -490 OFFCURVE",
"320 -490 CURVE SMOOTH"
);
}
);
width = 645;
}
);
category = Letter;
},
{
glyphname = u10B89_alt2.fina;
lastChange = "2018-04-03 13:12:53 +0000";
layers = (
{
layerId = UUID0;
paths = (
{
closed = 1;
nodes = (
"382 0 LINE SMOOTH",
"397 0 OFFCURVE",
"406 21 OFFCURVE",
"406 42 CURVE SMOOTH",
"406 63 OFFCURVE",
"398 84 OFFCURVE",
"382 84 CURVE SMOOTH",
"208 84 LINE",
"208 0 LINE"
);
},
{
closed = 1;
nodes = (
"517 -539 OFFCURVE",
"607 -533 OFFCURVE",
"713 -526 CURVE SMOOTH",
"799 -520 OFFCURVE",
"879 -515 OFFCURVE",
"972 -515 CURVE SMOOTH",
"987 -515 OFFCURVE",
"995 -494 OFFCURVE",
"995 -473 CURVE SMOOTH",
"995 -452 OFFCURVE",
"988 -437 OFFCURVE",
"972 -436 CURVE SMOOTH",
"946 -434 OFFCURVE",
"917 -433 OFFCURVE",
"886 -433 CURVE SMOOTH",
"812 -433 OFFCURVE",
"741 -438 OFFCURVE",
"667 -444 CURVE SMOOTH",
"588 -450 OFFCURVE",
"504 -455 OFFCURVE",
"407 -455 CURVE SMOOTH",
"292 -455 OFFCURVE",
"170 -450 OFFCURVE",
"170 -340 CURVE SMOOTH",
"170 -274 OFFCURVE",
"196 -227 OFFCURVE",
"228 -171 CURVE SMOOTH",
"262 -111 OFFCURVE",
"303 -34 OFFCURVE",
"303 89 CURVE SMOOTH",
"303 173 OFFCURVE",
"285 276 OFFCURVE",
"222 276 CURVE SMOOTH",
"155 276 OFFCURVE",
"24 116 OFFCURVE",
"24 58 CURVE SMOOTH",
"24 17 OFFCURVE",
"52 -7 OFFCURVE",
"93 -7 CURVE SMOOTH",
"141 -7 OFFCURVE",
"179 -4 OFFCURVE",
"199 -1 CURVE",
"192 -36 OFFCURVE",
"180 -73 OFFCURVE",
"148 -128 CURVE SMOOTH",
"114 -187 OFFCURVE",
"79 -254 OFFCURVE",
"79 -340 CURVE SMOOTH",
"79 -510 OFFCURVE",
"216 -539 OFFCURVE",
"384 -539 CURVE SMOOTH"
);
},
{
closed = 1;
nodes = (
"135 77 OFFCURVE",
"133 88 OFFCURVE",
"133 95 CURVE SMOOTH",
"133 118 OFFCURVE",
"178 165 OFFCURVE",
"191 165 CURVE SMOOTH",
"203 165 OFFCURVE",
"211 152 OFFCURVE",
"211 112 CURVE SMOOTH",
"211 105 OFFCURVE",
"211 102 OFFCURVE",
"210 83 CURVE",
"187 78 OFFCURVE",
"161 77 OFFCURVE",
"148 77 CURVE SMOOTH"
);
}
);
width = 366;
}
);
category = Letter;
},
{
glyphname = u10B8C_alt2.fina;
lastChange = "2018-04-03 13:12:53 +0000";
layers = (
{
layerId = UUID0;
paths = (
{
closed = 1;
nodes = (
"341 0 LINE SMOOTH",
"356 0 OFFCURVE",
"365 21 OFFCURVE",
"365 42 CURVE SMOOTH",
"365 63 OFFCURVE",
"357 84 OFFCURVE",
"341 84 CURVE SMOOTH",
"118 84 LINE",
"118 0 LINE"
);
},
{
closed = 1;
nodes = (
"485 -551 OFFCURVE",
"605 -525 OFFCURVE",
"630 -518 CURVE SMOOTH",
"645 -514 OFFCURVE",
"653 -500 OFFCURVE",
"653 -479 CURVE SMOOTH",
"653 -458 OFFCURVE",
"642 -442 OFFCURVE",
"617 -442 CURVE SMOOTH",
"602 -442 OFFCURVE",
"577 -444 OFFCURVE",
"544 -450 CURVE SMOOTH",
"495 -459 OFFCURVE",
"432 -467 OFFCURVE",
"377 -467 CURVE SMOOTH",
"249 -467 OFFCURVE",
"161 -423 OFFCURVE",
"161 -263 CURVE SMOOTH",
"161 -70 OFFCURVE",
"165 123 OFFCURVE",
"172 316 CURVE",
"172 317 LINE",
"172 333 OFFCURVE",
"150 339 OFFCURVE",
"131 339 CURVE SMOOTH",
"107 339 OFFCURVE",
"85 330 OFFCURVE",
"84 316 CURVE SMOOTH",
"73 166 OFFCURVE",
"73 -63 OFFCURVE",
"73 -269 CURVE SMOOTH",
"73 -460 OFFCURVE",
"154 -551 OFFCURVE",
"371 -551 CURVE SMOOTH"
);
}
);
width = 324;
}
);
category = Letter;
},
{
glyphname = u10B8F_alt2.fina;
lastChange = "2018-04-03 13:12:53 +0000";
layers = (
{
layerId = UUID0;
paths = (
{
closed = 1;
nodes = (
"674 0 LINE SMOOTH",
"689 0 OFFCURVE",
"698 21 OFFCURVE",
"698 42 CURVE SMOOTH",
"698 63 OFFCURVE",
"690 84 OFFCURVE",
"674 84 CURVE SMOOTH",
"451 84 LINE",
"451 0 LINE"
);
},
{
closed = 1;
nodes = (
"449 -420 OFFCURVE",
"575 -390 OFFCURVE",
"600 -383 CURVE SMOOTH",
"615 -379 OFFCURVE",
"623 -365 OFFCURVE",
"623 -344 CURVE SMOOTH",
"623 -323 OFFCURVE",
"611 -310 OFFCURVE",
"588 -310 CURVE SMOOTH",
"567 -310 OFFCURVE",
"546 -313 OFFCURVE",
"521 -318 CURVE SMOOTH",
"480 -326 OFFCURVE",
"427 -336 OFFCURVE",
"339 -336 CURVE SMOOTH",
"180 -336 OFFCURVE",
"134 -278 OFFCURVE",
"134 -99 CURVE SMOOTH",
"134 -69 OFFCURVE",
"136 -31 OFFCURVE",
"139 5 CURVE SMOOTH",
"165 304 LINE",
"153 304 LINE",
"160 254 OFFCURVE",
"175 193 OFFCURVE",
"184 158 CURVE SMOOTH",
"208 63 OFFCURVE",
"249 -12 OFFCURVE",
"369 -12 CURVE SMOOTH",
"525 -12 OFFCURVE",
"576 64 OFFCURVE",
"576 207 CURVE SMOOTH",
"576 370 OFFCURVE",
"542 410 OFFCURVE",
"500 410 CURVE SMOOTH",
"434 410 OFFCURVE",
"372 322 OFFCURVE",
"372 268 CURVE SMOOTH",
"372 252 OFFCURVE",
"381 226 OFFCURVE",
"404 226 CURVE SMOOTH",
"419 226 OFFCURVE",
"432 233 OFFCURVE",
"444 241 CURVE SMOOTH",
"454 248 OFFCURVE",
"463 254 OFFCURVE",
"473 254 CURVE SMOOTH",
"480 254 OFFCURVE",
"488 250 OFFCURVE",
"488 182 CURVE SMOOTH",
"488 115 OFFCURVE",
"464 73 OFFCURVE",
"377 73 CURVE SMOOTH",
"299 73 OFFCURVE",
"284 118 OFFCURVE",
"255 226 CURVE SMOOTH",
"207 404 OFFCURVE",
"192 429 OFFCURVE",
"153 429 CURVE SMOOTH",
"115 429 OFFCURVE",
"92 368 OFFCURVE",
"71 156 CURVE SMOOTH",
"55 -3 LINE SMOOTH",
"52 -34 OFFCURVE",
"49 -86 OFFCURVE",
"49 -123 CURVE SMOOTH",
"49 -348 OFFCURVE",
"146 -420 OFFCURVE",
"320 -420 CURVE SMOOTH"
);
}
